<svg width="24" height="24" viewBox="0 0 24 24" fill="none" xmlns="http://www.w3.org/2000/svg">
<path d="M14.12 15.3998L18.71 10.8098C18.8963 10.6224 19.0008 10.369 19.0008 10.1048C19.0008 9.84062 18.8963 9.58716 18.71 9.3998C18.617 9.30607 18.5064 9.23168 18.3846 9.18091C18.2627 9.13014 18.132 9.104 18 9.104C17.868 9.104 17.7373 9.13014 17.6154 9.18091C17.4936 9.23168 17.383 9.30607 17.29 9.3998L12.71 13.9998C12.617 14.0935 12.5064 14.1679 12.3846 14.2187C12.2627 14.2695 12.132 14.2956 12 14.2956C11.868 14.2956 11.7373 14.2695 11.6154 14.2187C11.4936 14.1679 11.383 14.0935 11.29 13.9998L6.71 9.3998C6.52302 9.2115 6.2689 9.10518 6.00354 9.10425C5.73817 9.10331 5.4833 9.20783 5.295 9.3948C5.1067 9.58178 5.00038 9.8359 4.99944 10.1013C4.9985 10.3666 5.10302 10.6215 5.29 10.8098L9.88 15.3998C10.4425 15.9616 11.205 16.2772 12 16.2772C12.795 16.2772 13.5575 15.9616 14.12 15.3998Z" fill="#9B9B9B"/>
</svg>
