<svg width="393" height="32" viewBox="0 0 393 32" fill="none" xmlns="http://www.w3.org/2000/svg">
<rect width="393" height="32" fill="#FF9500"/>



<g clip-path="url(#clip0_1_655)">
<path d="M367 23.9993H361.667C361.49 23.9993 361.32 23.9291 361.195 23.8041C361.07 23.6791 361 23.5095 361 23.3327C361 23.1559 361.07 22.9863 361.195 22.8613C361.32 22.7363 361.49 22.666 361.667 22.666H367C367.177 22.666 367.346 22.7363 367.471 22.8613C367.596 22.9863 367.667 23.1559 367.667 23.3327C367.667 23.5095 367.596 23.6791 367.471 23.8041C367.346 23.9291 367.177 23.9993 367 23.9993Z" fill="white"/>
<path d="M365.667 21.3333H361.667C361.49 21.3333 361.32 21.2631 361.195 21.1381C361.07 21.0131 361 20.8435 361 20.6667C361 20.4899 361.07 20.3203 361.195 20.1953C361.32 20.0702 361.49 20 361.667 20H365.667C365.843 20 366.013 20.0702 366.138 20.1953C366.263 20.3203 366.333 20.4899 366.333 20.6667C366.333 20.8435 366.263 21.0131 366.138 21.1381C366.013 21.2631 365.843 21.3333 365.667 21.3333Z" fill="white"/>
<path d="M364.333 18.6673H361.667C361.49 18.6673 361.32 18.5971 361.195 18.4721C361.07 18.347 361 18.1775 361 18.0007C361 17.8238 361.07 17.6543 361.195 17.5292C361.32 17.4042 361.49 17.334 361.667 17.334H364.333C364.51 17.334 364.68 17.4042 364.805 17.5292C364.93 17.6543 365 17.8238 365 18.0007C365 18.1775 364.93 18.347 364.805 18.4721C364.68 18.5971 364.51 18.6673 364.333 18.6673Z" fill="white"/>
<path d="M369.667 23.9696C369.49 23.9775 369.317 23.9148 369.187 23.7953C369.056 23.6758 368.978 23.5094 368.97 23.3326C368.963 23.1558 369.025 22.9831 369.145 22.8525C369.264 22.7219 369.431 22.6441 369.607 22.6363C370.869 22.5208 372.072 22.0483 373.074 21.274C374.077 20.4997 374.839 19.4557 375.269 18.2643C375.7 17.0729 375.783 15.7834 375.507 14.5468C375.231 13.3102 374.609 12.1778 373.713 11.2822C372.817 10.3866 371.684 9.76478 370.448 9.4897C369.211 9.21462 367.921 9.29761 366.73 9.72896C365.539 10.1603 364.495 10.9222 363.721 11.9253C362.948 12.9284 362.476 14.1312 362.361 15.3929C362.345 15.569 362.26 15.7316 362.124 15.8449C361.988 15.9581 361.813 16.0128 361.637 15.9969C361.461 15.981 361.298 15.8958 361.185 15.76C361.072 15.6242 361.017 15.449 361.033 15.2729C361.219 13.2218 362.189 11.3214 363.74 9.9673C365.292 8.61321 367.306 7.90976 369.364 8.0034C371.421 8.09703 373.363 8.98052 374.786 10.47C376.208 11.9594 377.001 13.9401 377 15.9996C377.01 17.9985 376.268 19.928 374.92 21.4043C373.572 22.8805 371.718 23.7954 369.727 23.9669C369.707 23.9689 369.686 23.9696 369.667 23.9696Z" fill="white"/>
<path d="M369 12C368.823 12 368.654 12.0702 368.529 12.1953C368.404 12.3203 368.333 12.4899 368.333 12.6667V16C368.333 16.1768 368.404 16.3463 368.529 16.4713L370.529 18.4713C370.655 18.5928 370.823 18.66 370.998 18.6584C371.172 18.6569 371.34 18.5868 371.463 18.4632C371.587 18.3396 371.657 18.1724 371.659 17.9976C371.66 17.8228 371.593 17.6544 371.471 17.5287L369.667 15.724V12.6667C369.667 12.4899 369.597 12.3203 369.472 12.1953C369.346 12.0702 369.177 12 369 12Z" fill="white"/>
</g>
<defs>
<clipPath id="clip0_1_655">
<rect width="16" height="16" fill="white" transform="translate(361 8)"/>
</clipPath>
</defs>
</svg>
