<svg width="57" height="18" viewBox="0 0 57 18" fill="none" xmlns="http://www.w3.org/2000/svg">
<g clip-path="url(#clip0_35_183)">
<path fill-rule="evenodd" clip-rule="evenodd" d="M8 15.5C8.23 15.5 8.843 15.274 9.487 13.986C9.793 13.374 10.05 12.616 10.229 11.75H5.771C5.95 12.616 6.207 13.374 6.513 13.986C7.157 15.274 7.77 15.5 8 15.5ZM5.554 10.25C5.48152 9.41824 5.48152 8.58176 5.554 7.75H10.446C10.518 8.58178 10.518 9.41822 10.446 10.25H5.554ZM11.757 11.75C11.533 12.974 11.164 14.058 10.691 14.918C12.0995 14.2748 13.2337 13.152 13.891 11.75H11.757ZM14.38 10.25H11.95C12.0152 9.41794 12.0152 8.58206 11.95 7.75H14.379C14.5408 8.57548 14.5408 9.42452 14.379 10.25H14.38ZM4.049 10.25H1.62C1.45823 9.42452 1.45823 8.57548 1.62 7.75H4.05C3.9848 8.58206 3.9848 9.41794 4.05 10.25H4.049ZM2.109 11.75H4.243C4.467 12.974 4.836 14.058 5.309 14.918C3.90046 14.2748 2.76632 13.152 2.109 11.75ZM5.771 6.25H10.229C10.05 5.384 9.793 4.626 9.487 4.014C8.843 2.726 8.23 2.5 8 2.5C7.77 2.5 7.157 2.726 6.513 4.014C6.207 4.626 5.95 5.384 5.771 6.25ZM11.757 6.25H13.891C13.2337 4.848 12.0995 3.72519 10.691 3.082C11.164 3.942 11.533 5.026 11.757 6.25ZM5.31 3.082C4.837 3.942 4.468 5.026 4.244 6.25H2.109C2.76632 4.848 3.90146 3.72519 5.31 3.082ZM8 1C10.1217 1 12.1566 1.84285 13.6569 3.34315C15.1571 4.84344 16 6.87827 16 9C16 11.1217 15.1571 13.1566 13.6569 14.6569C12.1566 16.1571 10.1217 17 8 17C5.87827 17 3.84344 16.1571 2.34315 14.6569C0.842855 13.1566 0 11.1217 0 9C0 6.87827 0.842855 4.84344 2.34315 3.34315C3.84344 1.84285 5.87827 1 8 1Z" fill="black"/>
</g>
<defs>
<clipPath id="clip0_35_183">
<rect width="16" height="16" fill="white" transform="translate(0 1)"/>
</clipPath>
</defs>
</svg>
