<svg className="w-[100%] h-auto" width="360" height="40" viewBox="0 0 360 40" fill="none" xmlns="http://www.w3.org/2000/svg">
<rect width="172" height="40" rx="4" fill="#FF3B30" fill-opacity="0.12"/>
<path d="M70.8183 21.592C71.0903 20.808 71.5863 20.212 72.3063 19.804C72.8423 19.5 73.4223 19.348 74.0463 19.348C74.6703 19.348 75.2423 19.516 75.7623 19.852C76.4183 20.252 76.8823 20.832 77.1543 21.592L77.0223 21.928C76.6863 22.08 76.3463 22.328 76.0023 22.672C75.6663 23.04 75.4463 23.408 75.3423 23.776H77.2743V25H74.6343C74.4103 25 74.2063 24.896 74.0223 24.688H73.9623C73.7943 24.872 73.5583 24.984 73.2543 25.024C73.2063 25.032 73.1623 25.04 73.1223 25.048C72.6343 25.128 72.2943 25.32 72.1023 25.624C71.9503 25.856 71.8743 26.168 71.8743 26.56C71.8743 27.728 72.6463 28.312 74.1903 28.312C74.6383 28.312 75.1063 28.244 75.5943 28.108V28.612L74.9583 29.392C74.6943 29.472 74.3263 29.52 73.8543 29.536C72.9023 29.536 72.1183 29.308 71.5023 28.852C70.7743 28.324 70.4103 27.544 70.4103 26.512C70.4103 25.856 70.5663 25.324 70.8783 24.916C71.2623 24.38 71.8583 24.036 72.6663 23.884C72.5863 23.532 72.3903 23.172 72.0783 22.804C71.7503 22.412 71.3743 22.12 70.9503 21.928L70.8183 21.592ZM75.6183 21.496C75.4263 21.16 75.1663 20.912 74.8383 20.752C74.5903 20.632 74.3143 20.572 74.0103 20.572C73.6903 20.572 73.3863 20.64 73.0983 20.776C72.7783 20.936 72.5303 21.176 72.3543 21.496C72.6263 21.616 72.9143 21.856 73.2183 22.216C73.5703 22.592 73.8183 23 73.9623 23.44H74.0103C74.1623 22.992 74.4223 22.564 74.7903 22.156C75.0863 21.828 75.3623 21.608 75.6183 21.496ZM80.8026 19.48V23.596V23.776H81.4146V25H80.9946L80.5506 24.508H80.5266C80.2546 24.836 79.9146 25 79.5066 25H77.1906V23.776H79.0026C79.1146 23.776 79.1946 23.744 79.2426 23.68C79.3146 23.616 79.3506 23.536 79.3506 23.44V19.48H80.8026ZM78.1986 25.876C78.4146 25.876 78.5986 25.952 78.7506 26.104C78.9026 26.256 78.9786 26.44 78.9786 26.656C78.9786 26.872 78.9026 27.056 78.7506 27.208C78.5986 27.36 78.4146 27.436 78.1986 27.436C77.9826 27.436 77.7986 27.36 77.6466 27.208C77.4946 27.056 77.4186 26.872 77.4186 26.656C77.4186 26.44 77.4946 26.256 77.6466 26.104C77.7986 25.952 77.9826 25.876 78.1986 25.876ZM80.0226 25.876C80.2386 25.876 80.4226 25.952 80.5746 26.104C80.7266 26.256 80.8026 26.44 80.8026 26.656C80.8026 26.872 80.7266 27.056 80.5746 27.208C80.4226 27.36 80.2386 27.436 80.0226 27.436C79.8146 27.436 79.6346 27.36 79.4826 27.208C79.3306 27.056 79.2546 26.872 79.2546 26.656C79.2546 26.44 79.3306 26.256 79.4826 26.104C79.6346 25.952 79.8146 25.876 80.0226 25.876ZM84.9393 19.48V23.68C84.9393 23.992 84.8353 24.28 84.6273 24.544C84.3633 24.848 84.0353 25 83.6433 25H81.3273V23.776H83.1753C83.2633 23.776 83.3393 23.744 83.4033 23.68C83.4593 23.624 83.4873 23.556 83.4873 23.476V19.48H84.9393ZM83.9433 25.876C84.1593 25.876 84.3433 25.952 84.4953 26.104C84.6473 26.256 84.7233 26.44 84.7233 26.656C84.7233 26.872 84.6473 27.056 84.4953 27.208C84.3433 27.36 84.1593 27.436 83.9433 27.436C83.7273 27.436 83.5433 27.36 83.3913 27.208C83.2473 27.056 83.1753 26.872 83.1753 26.656C83.1753 26.44 83.2473 26.256 83.3913 26.104C83.5433 25.952 83.7273 25.876 83.9433 25.876ZM88.0615 16.408V23.476C88.0615 23.556 88.0855 23.62 88.1335 23.668C88.1815 23.74 88.2575 23.776 88.3615 23.776H88.6735V25H87.8935C87.5655 25 87.2775 24.884 87.0295 24.652C86.7415 24.388 86.5975 24.064 86.5975 23.68V16.408H88.0615ZM101.325 19.48V23.68C101.325 24.04 101.197 24.352 100.941 24.616C100.693 24.872 100.389 25 100.029 25H97.5089L97.0649 24.508H97.0289C96.7649 24.836 96.4289 25 96.0209 25H93.5009L93.0449 24.508H93.0089C92.7449 24.836 92.4089 25 92.0009 25H88.5929V23.776H91.5329C91.7329 23.776 91.8329 23.676 91.8329 23.476V20.86H93.2969V23.26C93.2969 23.492 93.2929 23.664 93.2849 23.776H95.5529C95.7529 23.776 95.8529 23.676 95.8529 23.476V20.164H97.3169V23.368C97.3169 23.416 97.3129 23.488 97.3049 23.584C97.3049 23.672 97.3049 23.736 97.3049 23.776H99.5609C99.7609 23.776 99.8609 23.676 99.8609 23.476V19.48H101.325ZM104.444 16.408V24.7L103.7 25.3H102.98V16.408H104.444ZM111.661 19.48V23.776H112.273V25H111.649C111.585 25.96 111.205 26.696 110.509 27.208C109.933 27.632 109.225 27.844 108.385 27.844C108.241 27.844 108.085 27.84 107.917 27.832L107.329 27.1V26.584C107.585 26.624 107.833 26.644 108.073 26.644C109.489 26.644 110.197 25.956 110.197 24.58V19.48H111.661ZM115.806 16.408V21.496C116.894 20.048 118.222 19.324 119.79 19.324C120.75 19.324 121.538 19.628 122.154 20.236C122.722 20.78 123.006 21.464 123.006 22.288V23.428C123.006 23.46 123.002 23.52 122.994 23.608C122.994 23.688 122.994 23.744 122.994 23.776H123.39V25H123.15L122.754 24.508H122.718C122.454 24.836 122.118 25 121.71 25H112.194V23.776H114.354V16.408H115.806ZM118.998 16.84C119.214 16.84 119.398 16.916 119.55 17.068C119.702 17.22 119.778 17.404 119.778 17.62C119.778 17.828 119.702 18.008 119.55 18.16C119.398 18.312 119.214 18.388 118.998 18.388C118.79 18.388 118.61 18.312 118.458 18.16C118.306 18.008 118.23 17.828 118.23 17.62C118.23 17.404 118.306 17.22 118.458 17.068C118.61 16.916 118.79 16.84 118.998 16.84ZM121.542 22.36C121.534 21.752 121.298 21.288 120.834 20.968C120.482 20.712 120.054 20.584 119.55 20.584C118.958 20.584 118.386 20.768 117.834 21.136C117.026 21.672 116.35 22.552 115.806 23.776H121.242C121.442 23.776 121.542 23.676 121.542 23.476V22.36ZM124.468 16.84C124.684 16.84 124.868 16.916 125.02 17.068C125.172 17.22 125.248 17.404 125.248 17.62C125.248 17.828 125.172 18.008 125.02 18.16C124.868 18.312 124.684 18.388 124.468 18.388C124.252 18.388 124.068 18.312 123.916 18.16C123.764 18.008 123.688 17.828 123.688 17.62C123.688 17.404 123.764 17.22 123.916 17.068C124.068 16.916 124.252 16.84 124.468 16.84ZM126.292 16.84C126.508 16.84 126.692 16.916 126.844 17.068C126.996 17.22 127.072 17.404 127.072 17.62C127.072 17.828 126.996 18.008 126.844 18.16C126.692 18.312 126.508 18.388 126.292 18.388C126.084 18.388 125.904 18.312 125.752 18.16C125.6 18.008 125.524 17.828 125.524 17.62C125.524 17.404 125.6 17.22 125.752 17.068C125.904 16.916 126.084 16.84 126.292 16.84ZM126.916 19.48V23.596V23.776H127.528V25H127.108L126.664 24.508H126.64C126.368 24.836 126.028 25 125.62 25H123.304V23.776H125.116C125.228 23.776 125.308 23.744 125.356 23.68C125.428 23.616 125.464 23.536 125.464 23.44V19.48H126.916ZM130.321 16.84C130.537 16.84 130.721 16.916 130.873 17.068C131.025 17.22 131.101 17.404 131.101 17.62C131.101 17.828 131.025 18.008 130.873 18.16C130.721 18.312 130.537 18.388 130.321 18.388C130.113 18.388 129.933 18.312 129.781 18.16C129.629 18.008 129.553 17.828 129.553 17.62C129.553 17.404 129.629 17.22 129.781 17.068C129.933 16.916 130.113 16.84 130.321 16.84ZM131.053 19.48V23.68C131.053 23.992 130.949 24.28 130.741 24.544C130.477 24.848 130.149 25 129.757 25H127.441V23.776H129.289C129.377 23.776 129.453 23.744 129.517 23.68C129.573 23.624 129.601 23.556 129.601 23.476V19.48H131.053ZM134.175 16.408V24.7L133.431 25.3H132.711V16.408H134.175Z" fill="black"/>
<path fill-rule="evenodd" clip-rule="evenodd" d="M151 13C149.143 13 147.363 13.7375 146.05 15.0503C144.737 16.363 144 18.1435 144 20C144 21.8565 144.737 23.637 146.05 24.9497C147.363 26.2625 149.143 27 151 27C152.857 27 154.637 26.2625 155.95 24.9497C157.263 23.637 158 21.8565 158 20C158 18.1435 157.263 16.363 155.95 15.0503C154.637 13.7375 152.857 13 151 13ZM147 19.5V20.5H155V19.5H147Z" fill="#FF3B30"/>
<rect x="188" width="172" height="40" rx="4" fill="#34C759" fill-opacity="0.12"/>
<path d="M244.052 19.156V23.476C244.052 23.572 244.08 23.644 244.136 23.692C244.184 23.748 244.248 23.776 244.328 23.776H244.664V25H243.908C243.54 25 243.208 24.852 242.912 24.556C242.456 24.932 241.948 25.12 241.388 25.12C240.756 25.12 240.212 24.92 239.756 24.52C239.148 23.952 238.844 23.192 238.844 22.24C238.844 21.368 239.124 20.644 239.684 20.068C240.196 19.548 240.824 19.288 241.568 19.288C241.984 19.288 242.4 19.376 242.816 19.552L243.332 19.156H244.052ZM242.588 20.704C242.308 20.6 242.04 20.548 241.784 20.548C241.352 20.548 240.996 20.708 240.716 21.028C240.436 21.34 240.296 21.748 240.296 22.252C240.296 22.756 240.42 23.16 240.668 23.464C240.924 23.768 241.264 23.92 241.688 23.92C241.976 23.92 242.276 23.856 242.588 23.728V20.704ZM248.193 16.84C248.409 16.84 248.593 16.916 248.745 17.068C248.897 17.22 248.973 17.404 248.973 17.62C248.973 17.828 248.897 18.008 248.745 18.16C248.593 18.312 248.409 18.388 248.193 18.388C247.985 18.388 247.805 18.312 247.653 18.16C247.501 18.008 247.425 17.828 247.425 17.62C247.425 17.404 247.501 17.22 247.653 17.068C247.805 16.916 247.985 16.84 248.193 16.84ZM250.017 16.84C250.233 16.84 250.417 16.916 250.569 17.068C250.721 17.22 250.797 17.404 250.797 17.62C250.797 17.828 250.721 18.008 250.569 18.16C250.417 18.312 250.233 18.388 250.017 18.388C249.801 18.388 249.617 18.316 249.465 18.172C249.321 18.02 249.249 17.836 249.249 17.62C249.249 17.404 249.321 17.22 249.465 17.068C249.617 16.916 249.801 16.84 250.017 16.84ZM246.969 23.776C246.609 23.296 246.429 22.716 246.429 22.036C246.429 21.42 246.585 20.888 246.897 20.44C247.401 19.704 248.129 19.336 249.081 19.336C249.801 19.336 250.405 19.56 250.893 20.008C251.461 20.528 251.745 21.204 251.745 22.036C251.745 22.692 251.565 23.272 251.205 23.776H252.033V25H250.233C249.713 25 249.337 24.948 249.105 24.844H249.045C248.821 24.948 248.445 25 247.917 25H244.581V23.776H246.969ZM249.081 23.764C249.441 23.724 249.729 23.56 249.945 23.272C250.169 22.976 250.281 22.6 250.281 22.144C250.281 21.664 250.173 21.28 249.957 20.992C249.741 20.704 249.449 20.56 249.081 20.56C248.721 20.56 248.429 20.704 248.205 20.992C247.989 21.28 247.881 21.664 247.881 22.144C247.881 22.6 247.989 22.976 248.205 23.272C248.429 23.56 248.721 23.724 249.081 23.764ZM255.564 19.48V23.596V23.776H256.176V25H255.756L255.312 24.508H255.288C255.016 24.836 254.676 25 254.268 25H251.952V23.776H253.764C253.876 23.776 253.956 23.744 254.004 23.68C254.076 23.616 254.112 23.536 254.112 23.44V19.48H255.564ZM252.96 25.876C253.176 25.876 253.36 25.952 253.512 26.104C253.664 26.256 253.74 26.44 253.74 26.656C253.74 26.872 253.664 27.056 253.512 27.208C253.36 27.36 253.176 27.436 252.96 27.436C252.744 27.436 252.56 27.36 252.408 27.208C252.256 27.056 252.18 26.872 252.18 26.656C252.18 26.44 252.256 26.256 252.408 26.104C252.56 25.952 252.744 25.876 252.96 25.876ZM254.784 25.876C255 25.876 255.184 25.952 255.336 26.104C255.488 26.256 255.564 26.44 255.564 26.656C255.564 26.872 255.488 27.056 255.336 27.208C255.184 27.36 255 27.436 254.784 27.436C254.576 27.436 254.396 27.36 254.244 27.208C254.092 27.056 254.016 26.872 254.016 26.656C254.016 26.44 254.092 26.256 254.244 26.104C254.396 25.952 254.576 25.876 254.784 25.876ZM259.833 16.84C260.049 16.84 260.233 16.916 260.385 17.068C260.537 17.22 260.613 17.404 260.613 17.62C260.613 17.828 260.537 18.008 260.385 18.16C260.233 18.312 260.049 18.388 259.833 18.388C259.625 18.388 259.445 18.312 259.293 18.16C259.141 18.008 259.065 17.828 259.065 17.62C259.065 17.404 259.141 17.22 259.293 17.068C259.445 16.916 259.625 16.84 259.833 16.84ZM261.657 16.84C261.873 16.84 262.057 16.916 262.209 17.068C262.361 17.22 262.437 17.404 262.437 17.62C262.437 17.828 262.361 18.008 262.209 18.16C262.057 18.312 261.873 18.388 261.657 18.388C261.449 18.388 261.269 18.312 261.117 18.16C260.965 18.008 260.889 17.828 260.889 17.62C260.889 17.404 260.965 17.22 261.117 17.068C261.269 16.916 261.449 16.84 261.657 16.84ZM258.501 23.776C258.317 23.544 258.173 23.268 258.069 22.948C257.981 22.644 257.937 22.34 257.937 22.036C257.937 21.332 258.141 20.744 258.549 20.272C259.069 19.648 259.801 19.336 260.745 19.336C261.417 19.336 261.977 19.516 262.425 19.876C262.913 20.292 263.157 20.852 263.157 21.556V23.68C263.157 24.008 263.049 24.3 262.833 24.556C262.577 24.852 262.253 25 261.861 25H256.089V23.776H258.501ZM261.693 21.556C261.693 21.228 261.581 20.964 261.357 20.764C261.181 20.628 260.977 20.56 260.745 20.56C260.225 20.56 259.849 20.764 259.617 21.172C259.465 21.428 259.389 21.752 259.389 22.144C259.389 22.68 259.557 23.1 259.893 23.404C260.165 23.652 260.521 23.776 260.961 23.776H261.393C261.593 23.776 261.693 23.676 261.693 23.476V21.556ZM265.493 19.408C265.765 19.36 266.081 19.336 266.441 19.336C267.361 19.336 268.105 19.632 268.673 20.224C269.177 20.76 269.429 21.424 269.429 22.216V23.68C269.429 24.056 269.293 24.372 269.021 24.628C268.773 24.876 268.477 25 268.133 25H264.281V23.776H267.665C267.865 23.776 267.965 23.676 267.965 23.476V22.36C267.965 21.808 267.797 21.364 267.461 21.028C267.149 20.716 266.697 20.548 266.105 20.524C265.833 20.524 265.629 20.54 265.493 20.572V19.408ZM274.647 22.912V24.58C274.647 25.34 274.835 25.872 275.211 26.176C275.595 26.488 276.251 26.644 277.179 26.644C277.987 26.644 278.571 26.54 278.931 26.332C279.371 26.084 279.623 25.64 279.687 25H278.943L278.319 24.232V23.776H281.631V25H281.175C281.111 26 280.711 26.752 279.975 27.256C279.399 27.664 278.667 27.868 277.779 27.868H276.591C275.583 27.868 274.779 27.608 274.179 27.088C273.515 26.544 273.183 25.752 273.183 24.712V23.5L273.927 22.912H274.647ZM285.249 16.84C285.465 16.84 285.649 16.916 285.801 17.068C285.953 17.22 286.029 17.404 286.029 17.62C286.029 17.828 285.953 18.008 285.801 18.16C285.649 18.312 285.465 18.388 285.249 18.388C285.041 18.388 284.861 18.312 284.709 18.16C284.557 18.008 284.481 17.828 284.481 17.62C284.481 17.404 284.557 17.22 284.709 17.068C284.861 16.916 285.041 16.84 285.249 16.84ZM283.005 23.776C282.821 23.544 282.677 23.268 282.573 22.948C282.485 22.644 282.441 22.34 282.441 22.036C282.441 21.332 282.645 20.744 283.053 20.272C283.573 19.648 284.305 19.336 285.249 19.336C285.921 19.336 286.481 19.516 286.929 19.876C287.417 20.292 287.661 20.852 287.661 21.556V23.68C287.661 24.008 287.553 24.3 287.337 24.556C287.081 24.852 286.757 25 286.365 25H280.593V23.776H283.005ZM286.197 21.556C286.197 21.228 286.085 20.964 285.861 20.764C285.685 20.628 285.481 20.56 285.249 20.56C284.729 20.56 284.353 20.764 284.121 21.172C283.969 21.428 283.893 21.752 283.893 22.144C283.893 22.68 284.061 23.1 284.397 23.404C284.669 23.652 285.025 23.776 285.465 23.776H285.897C286.097 23.776 286.197 23.676 286.197 23.476V21.556ZM296.388 19.156V23.476C296.388 23.572 296.416 23.644 296.472 23.692C296.52 23.748 296.584 23.776 296.664 23.776H297V25H296.244C295.876 25 295.544 24.852 295.248 24.556C294.792 24.932 294.284 25.12 293.724 25.12C293.092 25.12 292.548 24.92 292.092 24.52C291.484 23.952 291.18 23.192 291.18 22.24C291.18 21.368 291.46 20.644 292.02 20.068C292.532 19.548 293.16 19.288 293.904 19.288C294.32 19.288 294.736 19.376 295.152 19.552L295.668 19.156H296.388ZM294.924 20.704C294.644 20.6 294.376 20.548 294.12 20.548C293.688 20.548 293.332 20.708 293.052 21.028C292.772 21.34 292.632 21.748 292.632 22.252C292.632 22.756 292.756 23.16 293.004 23.464C293.26 23.768 293.6 23.92 294.024 23.92C294.312 23.92 294.612 23.856 294.924 23.728V20.704ZM298.501 19.684C299.261 19.452 299.953 19.336 300.577 19.336C301.545 19.336 302.325 19.64 302.917 20.248C303.453 20.792 303.721 21.48 303.721 22.312V23.596V23.776H304.117V25H303.865L303.469 24.508H303.445C303.173 24.836 302.833 25 302.425 25H296.905V23.776H301.957C302.157 23.776 302.257 23.676 302.257 23.476V22.396C302.257 21.852 302.073 21.416 301.705 21.088C301.345 20.752 300.869 20.584 300.277 20.584C299.885 20.584 299.293 20.672 298.501 20.848V19.684ZM300.181 25.876C300.397 25.876 300.581 25.952 300.733 26.104C300.885 26.256 300.961 26.44 300.961 26.656C300.961 26.872 300.885 27.056 300.733 27.208C300.581 27.36 300.397 27.436 300.181 27.436C299.973 27.436 299.793 27.36 299.641 27.208C299.489 27.056 299.413 26.872 299.413 26.656C299.413 26.44 299.489 26.256 299.641 26.104C299.793 25.952 299.973 25.876 300.181 25.876ZM307.642 19.48V23.596V23.776H308.254V25H307.834L307.39 24.508H307.366C307.094 24.836 306.754 25 306.346 25H304.03V23.776H305.842C305.954 23.776 306.034 23.744 306.082 23.68C306.154 23.616 306.19 23.536 306.19 23.44V19.48H307.642ZM305.038 25.876C305.254 25.876 305.438 25.952 305.59 26.104C305.742 26.256 305.818 26.44 305.818 26.656C305.818 26.872 305.742 27.056 305.59 27.208C305.438 27.36 305.254 27.436 305.038 27.436C304.822 27.436 304.638 27.36 304.486 27.208C304.334 27.056 304.258 26.872 304.258 26.656C304.258 26.44 304.334 26.256 304.486 26.104C304.638 25.952 304.822 25.876 305.038 25.876ZM306.862 25.876C307.078 25.876 307.262 25.952 307.414 26.104C307.566 26.256 307.642 26.44 307.642 26.656C307.642 26.872 307.566 27.056 307.414 27.208C307.262 27.36 307.078 27.436 306.862 27.436C306.654 27.436 306.474 27.36 306.322 27.208C306.17 27.056 306.094 26.872 306.094 26.656C306.094 26.44 306.17 26.256 306.322 26.104C306.474 25.952 306.654 25.876 306.862 25.876ZM309.331 16.84C309.547 16.84 309.731 16.916 309.883 17.068C310.035 17.22 310.111 17.404 310.111 17.62C310.111 17.828 310.035 18.008 309.883 18.16C309.731 18.312 309.547 18.388 309.331 18.388C309.115 18.388 308.931 18.312 308.779 18.16C308.627 18.008 308.551 17.828 308.551 17.62C308.551 17.404 308.627 17.22 308.779 17.068C308.931 16.916 309.115 16.84 309.331 16.84ZM311.155 16.84C311.371 16.84 311.555 16.916 311.707 17.068C311.859 17.22 311.935 17.404 311.935 17.62C311.935 17.828 311.859 18.008 311.707 18.16C311.555 18.312 311.371 18.388 311.155 18.388C310.947 18.388 310.767 18.312 310.615 18.16C310.463 18.008 310.387 17.828 310.387 17.62C310.387 17.404 310.463 17.22 310.615 17.068C310.767 16.916 310.947 16.84 311.155 16.84ZM311.779 19.48V23.596V23.776H312.391V25H311.971L311.527 24.508H311.503C311.231 24.836 310.891 25 310.483 25H308.167V23.776H309.979C310.091 23.776 310.171 23.744 310.219 23.68C310.291 23.616 310.327 23.536 310.327 23.44V19.48H311.779ZM315.184 16.84C315.4 16.84 315.584 16.916 315.736 17.068C315.888 17.22 315.964 17.404 315.964 17.62C315.964 17.828 315.888 18.008 315.736 18.16C315.584 18.312 315.4 18.388 315.184 18.388C314.976 18.388 314.796 18.312 314.644 18.16C314.492 18.008 314.416 17.828 314.416 17.62C314.416 17.404 314.492 17.22 314.644 17.068C314.796 16.916 314.976 16.84 315.184 16.84ZM315.916 19.48V23.596V23.776H316.528V25H316.108L315.664 24.508H315.64C315.368 24.836 315.028 25 314.62 25H312.304V23.776H314.116C314.228 23.776 314.308 23.744 314.356 23.68C314.428 23.616 314.464 23.536 314.464 23.44V19.48H315.916ZM320.053 16.408V23.68C320.053 24.016 319.945 24.304 319.729 24.544C319.481 24.848 319.157 25 318.757 25H316.441V23.776H318.289C318.377 23.776 318.453 23.744 318.517 23.68C318.573 23.624 318.601 23.556 318.601 23.476V16.408H320.053ZM323.175 16.408V24.7L322.431 25.3H321.711V16.408H323.175Z" fill="black"/>
<path d="M339.067 23.0667L343.767 18.3667L342.833 17.4334L339.067 21.2L337.167 19.3L336.233 20.2334L339.067 23.0667ZM340 26.6667C339.078 26.6667 338.211 26.4916 337.4 26.1414C336.589 25.7912 335.883 25.3163 335.283 24.7167C334.683 24.1172 334.208 23.4116 333.859 22.6C333.509 21.7885 333.334 20.9218 333.333 20C333.333 19.0783 333.508 18.2116 333.859 17.4C334.209 16.5885 334.684 15.8829 335.283 15.2834C335.882 14.6838 336.588 14.2089 337.4 13.8587C338.212 13.5085 339.079 13.3334 340 13.3334C340.921 13.3334 341.788 13.5085 342.6 13.8587C343.412 14.2089 344.118 14.6838 344.717 15.2834C345.316 15.8829 345.791 16.5885 346.142 17.4C346.493 18.2116 346.668 19.0783 346.667 20C346.665 20.9218 346.49 21.7885 346.141 22.6C345.792 23.4116 345.318 24.1172 344.717 24.7167C344.116 25.3163 343.41 25.7914 342.6 26.142C341.79 26.4927 340.923 26.6676 340 26.6667Z" fill="#34C759"/>
</svg>
