<svg className="w-[100%] h-auto" width="360" height="40" viewBox="0 0 360 40" fill="none" xmlns="http://www.w3.org/2000/svg">
<rect width="172" height="40" rx="4" fill="#FF3B30" fill-opacity="0.12"/>
<path d="M56.4453 16.84C56.6613 16.84 56.8453 16.916 56.9973 17.068C57.1493 17.22 57.2253 17.404 57.2253 17.62C57.2253 17.828 57.1493 18.008 56.9973 18.16C56.8453 18.312 56.6613 18.388 56.4453 18.388C56.2373 18.388 56.0573 18.312 55.9053 18.16C55.7533 18.008 55.6773 17.828 55.6773 17.62C55.6773 17.404 55.7533 17.22 55.9053 17.068C56.0573 16.916 56.2373 16.84 56.4453 16.84ZM54.3333 23.776C53.9733 23.264 53.7933 22.684 53.7933 22.036C53.7933 21.268 54.0373 20.632 54.5253 20.128C55.0293 19.6 55.6733 19.336 56.4573 19.336C57.2013 19.336 57.8293 19.584 58.3413 20.08C58.8533 20.592 59.1093 21.244 59.1093 22.036C59.1093 22.684 58.9293 23.264 58.5693 23.776H59.3253V25H57.5973C57.0773 25 56.7053 24.948 56.4813 24.844H56.4213C56.1893 24.948 55.8093 25 55.2813 25H50.4453C49.8613 25 49.3733 24.796 48.9813 24.388C48.5573 23.98 48.3453 23.464 48.3453 22.84V20.944L49.0893 20.344H49.8093V22.84C49.8093 23.096 49.8893 23.304 50.0493 23.464C50.2173 23.672 50.4453 23.776 50.7333 23.776H54.3333ZM56.4453 23.764C56.8053 23.724 57.0973 23.556 57.3213 23.26C57.5453 22.964 57.6573 22.592 57.6573 22.144C57.6573 21.624 57.5293 21.224 57.2733 20.944C57.0653 20.688 56.7893 20.56 56.4453 20.56C56.0693 20.56 55.7773 20.708 55.5693 21.004C55.3533 21.284 55.2453 21.664 55.2453 22.144C55.2453 22.592 55.3533 22.964 55.5693 23.26C55.7933 23.556 56.0853 23.724 56.4453 23.764ZM62.8533 19.48V23.68C62.8533 23.992 62.7493 24.28 62.5413 24.544C62.2773 24.848 61.9493 25 61.5573 25H59.2413V23.776H61.0893C61.1773 23.776 61.2533 23.744 61.3173 23.68C61.3733 23.624 61.4013 23.556 61.4013 23.476V19.48H62.8533ZM60.2253 25.876C60.4413 25.876 60.6253 25.952 60.7773 26.104C60.9293 26.256 61.0053 26.44 61.0053 26.656C61.0053 26.872 60.9293 27.056 60.7773 27.208C60.6253 27.36 60.4413 27.436 60.2253 27.436C60.0173 27.436 59.8373 27.36 59.6853 27.208C59.5333 27.056 59.4573 26.872 59.4573 26.656C59.4573 26.44 59.5333 26.256 59.6853 26.104C59.8373 25.952 60.0173 25.876 60.2253 25.876ZM62.0613 25.876C62.2773 25.876 62.4573 25.952 62.6013 26.104C62.7533 26.256 62.8293 26.44 62.8293 26.656C62.8293 26.872 62.7533 27.056 62.6013 27.208C62.4573 27.36 62.2773 27.436 62.0613 27.436C61.8453 27.436 61.6613 27.36 61.5093 27.208C61.3573 27.056 61.2813 26.872 61.2813 26.656C61.2813 26.44 61.3573 26.256 61.5093 26.104C61.6613 25.952 61.8453 25.876 62.0613 25.876ZM67.8833 19.48V24.712C67.8833 25.704 67.5793 26.472 66.9713 27.016C66.5793 27.376 66.0753 27.628 65.4593 27.772C65.1713 27.828 64.8713 27.856 64.5593 27.856C64.4553 27.856 64.3153 27.848 64.1393 27.832L63.5513 27.1V26.584C63.8073 26.624 64.0553 26.644 64.2953 26.644C65.7113 26.644 66.4193 25.956 66.4193 24.58V19.48H67.8833ZM71.0029 16.408V23.476C71.0029 23.556 71.0269 23.62 71.0749 23.668C71.1229 23.74 71.1989 23.776 71.3029 23.776H71.6149V25H70.8349C70.5069 25 70.2189 24.884 69.9709 24.652C69.6829 24.388 69.5389 24.064 69.5389 23.68V16.408H71.0029ZM75.1463 21.496C76.2183 20.048 77.5423 19.324 79.1183 19.324C80.0783 19.324 80.8703 19.624 81.4943 20.224C82.0623 20.768 82.3463 21.456 82.3463 22.288V23.392C82.3463 23.44 82.3423 23.508 82.3343 23.596C82.3343 23.676 82.3343 23.736 82.3343 23.776H82.7303V25H82.4903L82.0943 24.508H82.0583C81.7943 24.836 81.4543 25 81.0383 25H71.5343V23.776H73.6943L73.6823 19.48H75.1463V21.496ZM80.8823 22.36C80.8743 21.784 80.6543 21.328 80.2223 20.992C79.8543 20.72 79.4103 20.584 78.8903 20.584C78.0903 20.584 77.3503 20.916 76.6703 21.58C76.0463 22.1 75.5383 22.832 75.1463 23.776H80.5823C80.7823 23.776 80.8823 23.676 80.8823 23.476V22.36ZM84.7917 21.556C84.7917 20.796 85.0557 20.22 85.5837 19.828C85.9997 19.508 86.5677 19.348 87.2877 19.348C87.9917 19.348 88.5877 19.556 89.0757 19.972C89.6917 20.5 89.9997 21.248 89.9997 22.216C89.9997 23.128 89.7557 23.884 89.2677 24.484C88.7957 25.068 88.1837 25.36 87.4317 25.36C86.7677 25.36 86.2437 25.112 85.8597 24.616C85.6037 24.872 85.2917 25 84.9237 25H82.6317V23.776H84.4797C84.5677 23.776 84.6437 23.744 84.7077 23.68C84.7637 23.624 84.7917 23.556 84.7917 23.476V21.556ZM86.2437 23.644C86.5397 23.964 86.8797 24.124 87.2637 24.124C87.6397 24.124 87.9477 23.96 88.1877 23.632C88.4277 23.296 88.5477 22.864 88.5477 22.336C88.5477 21.76 88.4157 21.308 88.1517 20.98C87.9117 20.7 87.5997 20.56 87.2157 20.56C86.9277 20.56 86.6997 20.652 86.5317 20.836C86.3397 21.012 86.2437 21.252 86.2437 21.556V23.644ZM94.9467 24.952C94.6027 25.048 94.2667 25.096 93.9387 25.096C93.0907 25.096 92.4027 24.768 91.8747 24.112C91.4427 23.56 91.2267 22.908 91.2267 22.156C91.2267 21.332 91.4707 20.664 91.9587 20.152C92.4627 19.608 93.1467 19.336 94.0107 19.336C94.6507 19.336 95.1867 19.5 95.6187 19.828C96.1627 20.22 96.4347 20.796 96.4347 21.556V24.712C96.4347 25.744 96.1067 26.536 95.4507 27.088C95.0747 27.408 94.6067 27.632 94.0467 27.76C93.7667 27.824 93.4547 27.856 93.1107 27.856C93.0227 27.856 92.8827 27.848 92.6907 27.832L92.1027 27.1V26.584C92.3587 26.624 92.6107 26.644 92.8587 26.644C94.1467 26.644 94.8427 26.08 94.9467 24.952ZM94.9707 21.556C94.9707 21.212 94.8547 20.948 94.6227 20.764C94.4627 20.628 94.2587 20.56 94.0107 20.56C93.5947 20.56 93.2667 20.704 93.0267 20.992C92.7947 21.28 92.6787 21.676 92.6787 22.18C92.6787 22.7 92.8107 23.112 93.0747 23.416C93.3467 23.712 93.7147 23.86 94.1787 23.86C94.4347 23.86 94.6987 23.812 94.9707 23.716V21.556ZM104.277 19.156C104.493 19.156 104.677 19.232 104.829 19.384C104.981 19.536 105.057 19.72 105.057 19.936C105.057 20.152 104.981 20.336 104.829 20.488C104.677 20.64 104.493 20.716 104.277 20.716C104.069 20.716 103.889 20.64 103.737 20.488C103.585 20.336 103.509 20.152 103.509 19.936C103.509 19.72 103.585 19.536 103.737 19.384C103.889 19.232 104.069 19.156 104.277 19.156ZM106.113 19.156C106.321 19.156 106.501 19.232 106.653 19.384C106.805 19.536 106.881 19.72 106.881 19.936C106.881 20.152 106.805 20.336 106.653 20.488C106.501 20.64 106.321 20.716 106.113 20.716C105.897 20.716 105.713 20.64 105.561 20.488C105.409 20.336 105.333 20.152 105.333 19.936C105.333 19.72 105.409 19.536 105.561 19.384C105.713 19.232 105.897 19.156 106.113 19.156ZM110.241 19.48V23.68C110.241 24.016 110.137 24.3 109.929 24.532C109.673 24.844 109.345 25 108.945 25H102.225C101.705 25 101.257 24.832 100.881 24.496C100.377 24.072 100.125 23.52 100.125 22.84V20.944L100.869 20.344H101.589V22.84C101.589 23.12 101.685 23.348 101.877 23.524C102.061 23.692 102.273 23.776 102.513 23.776H108.477C108.677 23.776 108.777 23.676 108.777 23.476V19.48H110.241ZM113.366 16.408V23.476C113.366 23.556 113.39 23.62 113.438 23.668C113.486 23.74 113.562 23.776 113.666 23.776H113.978V25H113.198C112.87 25 112.582 24.884 112.334 24.652C112.046 24.388 111.902 24.064 111.902 23.68V16.408H113.366ZM115.566 21.592C115.838 20.808 116.334 20.212 117.054 19.804C117.59 19.5 118.17 19.348 118.794 19.348C119.418 19.348 119.99 19.516 120.51 19.852C121.158 20.244 121.622 20.824 121.902 21.592L121.758 21.928C121.438 22.072 121.102 22.32 120.75 22.672C120.414 23.04 120.194 23.408 120.09 23.776H122.022V25H119.382C119.158 25 118.954 24.896 118.77 24.688H118.71C118.526 24.896 118.314 25 118.074 25H113.898V23.776H117.378C117.282 23.448 117.078 23.1 116.766 22.732C116.422 22.348 116.066 22.08 115.698 21.928L115.566 21.592ZM120.366 21.496C120.174 21.16 119.914 20.912 119.586 20.752C119.338 20.632 119.062 20.572 118.758 20.572C118.438 20.572 118.134 20.64 117.846 20.776C117.526 20.936 117.278 21.176 117.102 21.496C117.374 21.616 117.662 21.856 117.966 22.216C118.302 22.592 118.55 23 118.71 23.44H118.758C118.91 22.992 119.17 22.564 119.538 22.156C119.834 21.828 120.11 21.608 120.366 21.496ZM126.593 16.84C126.809 16.84 126.993 16.916 127.145 17.068C127.297 17.22 127.373 17.404 127.373 17.62C127.373 17.828 127.297 18.008 127.145 18.16C126.993 18.312 126.809 18.388 126.593 18.388C126.385 18.388 126.205 18.312 126.053 18.16C125.901 18.008 125.825 17.828 125.825 17.62C125.825 17.404 125.901 17.22 126.053 17.068C126.205 16.916 126.385 16.84 126.593 16.84ZM124.349 23.776C124.165 23.544 124.021 23.268 123.917 22.948C123.829 22.644 123.785 22.34 123.785 22.036C123.785 21.332 123.989 20.744 124.397 20.272C124.917 19.648 125.649 19.336 126.593 19.336C127.265 19.336 127.825 19.516 128.273 19.876C128.761 20.292 129.005 20.852 129.005 21.556V23.68C129.005 24.008 128.897 24.3 128.681 24.556C128.425 24.852 128.101 25 127.709 25H121.937V23.776H124.349ZM127.541 21.556C127.541 21.228 127.429 20.964 127.205 20.764C127.029 20.628 126.825 20.56 126.593 20.56C126.073 20.56 125.697 20.764 125.465 21.172C125.313 21.428 125.237 21.752 125.237 22.144C125.237 22.68 125.405 23.1 125.741 23.404C126.013 23.652 126.369 23.776 126.809 23.776H127.241C127.441 23.776 127.541 23.676 127.541 23.476V21.556ZM131.34 19.408C131.612 19.36 131.928 19.336 132.288 19.336C133.208 19.336 133.952 19.632 134.52 20.224C135.024 20.76 135.276 21.424 135.276 22.216V23.68C135.276 24.056 135.14 24.372 134.868 24.628C134.62 24.876 134.324 25 133.98 25H130.128V23.776H133.512C133.712 23.776 133.812 23.676 133.812 23.476V22.36C133.812 21.808 133.644 21.364 133.308 21.028C132.996 20.716 132.544 20.548 131.952 20.524C131.68 20.524 131.476 20.54 131.34 20.572V19.408Z" fill="black"/>
<path fill-rule="evenodd" clip-rule="evenodd" d="M152 13C150.143 13 148.363 13.7375 147.05 15.0503C145.737 16.363 145 18.1435 145 20C145 21.8565 145.737 23.637 147.05 24.9497C148.363 26.2625 150.143 27 152 27C153.857 27 155.637 26.2625 156.95 24.9497C158.263 23.637 159 21.8565 159 20C159 18.1435 158.263 16.363 156.95 15.0503C155.637 13.7375 153.857 13 152 13ZM148 19.5V20.5H156V19.5H148Z" fill="#FF3B30"/>
<rect x="188" width="172" height="40" rx="4" fill="#34C759" fill-opacity="0.12"/>
<path d="M268.062 16.408V23.476C268.062 23.556 268.086 23.62 268.134 23.668C268.182 23.74 268.258 23.776 268.362 23.776H268.674V25H267.894C267.566 25 267.278 24.884 267.03 24.652C266.742 24.388 266.598 24.064 266.598 23.68V16.408H268.062ZM270.741 21.556C270.741 20.796 271.005 20.22 271.533 19.828C271.949 19.508 272.517 19.348 273.237 19.348C273.941 19.348 274.537 19.556 275.025 19.972C275.641 20.5 275.949 21.248 275.949 22.216C275.949 23.128 275.705 23.884 275.217 24.484C274.745 25.068 274.133 25.36 273.381 25.36C272.717 25.36 272.193 25.112 271.809 24.616C271.553 24.872 271.241 25 270.873 25H268.581V23.776H270.429C270.517 23.776 270.593 23.744 270.657 23.68C270.713 23.624 270.741 23.556 270.741 23.476V21.556ZM272.193 23.644C272.489 23.964 272.829 24.124 273.213 24.124C273.589 24.124 273.897 23.96 274.137 23.632C274.377 23.296 274.497 22.864 274.497 22.336C274.497 21.76 274.365 21.308 274.101 20.98C273.861 20.7 273.549 20.56 273.165 20.56C272.877 20.56 272.649 20.652 272.481 20.836C272.289 21.012 272.193 21.252 272.193 21.556V23.644ZM278.796 16.408V23.476C278.796 23.556 278.82 23.62 278.868 23.668C278.916 23.74 278.992 23.776 279.096 23.776H279.408V25H278.628C278.3 25 278.012 24.884 277.764 24.652C277.476 24.388 277.332 24.064 277.332 23.68V16.408H278.796ZM281.463 23.776C281.271 23.312 281.175 22.792 281.175 22.216C281.175 21.272 281.467 20.54 282.051 20.02C282.539 19.58 283.163 19.356 283.923 19.348C284.603 19.348 285.159 19.508 285.591 19.828C286.119 20.228 286.383 20.804 286.383 21.556V23.476C286.383 23.548 286.403 23.616 286.443 23.68C286.507 23.744 286.579 23.776 286.659 23.776H286.767V25H286.239C285.879 25 285.571 24.872 285.315 24.616C284.923 25.112 284.403 25.36 283.755 25.36C283.059 25.36 282.467 25.104 281.979 24.592H281.955L281.619 25H279.327V23.776H281.463ZM284.919 21.556C284.919 21.26 284.827 21.02 284.643 20.836C284.475 20.652 284.235 20.56 283.923 20.56C283.531 20.56 283.215 20.712 282.975 21.016C282.743 21.32 282.627 21.728 282.627 22.24C282.627 22.8 282.747 23.256 282.987 23.608C283.227 23.96 283.535 24.136 283.911 24.136C284.255 24.136 284.591 23.972 284.919 23.644V21.556ZM287.839 16.84C288.055 16.84 288.239 16.916 288.391 17.068C288.543 17.22 288.619 17.404 288.619 17.62C288.619 17.828 288.543 18.008 288.391 18.16C288.239 18.312 288.055 18.388 287.839 18.388C287.623 18.388 287.439 18.312 287.287 18.16C287.135 18.008 287.059 17.828 287.059 17.62C287.059 17.404 287.135 17.22 287.287 17.068C287.439 16.916 287.623 16.84 287.839 16.84ZM289.663 16.84C289.879 16.84 290.063 16.916 290.215 17.068C290.367 17.22 290.443 17.404 290.443 17.62C290.443 17.828 290.367 18.008 290.215 18.16C290.063 18.312 289.879 18.388 289.663 18.388C289.455 18.388 289.275 18.312 289.123 18.16C288.971 18.008 288.895 17.828 288.895 17.62C288.895 17.404 288.971 17.22 289.123 17.068C289.275 16.916 289.455 16.84 289.663 16.84ZM290.287 19.48V23.68C290.287 23.992 290.183 24.28 289.975 24.544C289.711 24.848 289.383 25 288.991 25H286.675V23.776H288.523C288.611 23.776 288.687 23.744 288.751 23.68C288.807 23.624 288.835 23.556 288.835 23.476V19.48H290.287ZM295.765 22.912V24.58C295.765 25.34 295.953 25.872 296.329 26.176C296.713 26.488 297.369 26.644 298.297 26.644C299.105 26.644 299.689 26.54 300.049 26.332C300.489 26.084 300.741 25.64 300.805 25H300.061L299.437 24.232V23.776H302.749V25H302.293C302.229 26 301.829 26.752 301.093 27.256C300.517 27.664 299.785 27.868 298.897 27.868H297.709C296.701 27.868 295.897 27.608 295.297 27.088C294.633 26.544 294.301 25.752 294.301 24.712V23.5L295.045 22.912H295.765ZM304.59 16.84C304.806 16.84 304.99 16.916 305.142 17.068C305.294 17.22 305.37 17.404 305.37 17.62C305.37 17.828 305.294 18.008 305.142 18.16C304.99 18.312 304.806 18.388 304.59 18.388C304.382 18.388 304.202 18.312 304.05 18.16C303.898 18.008 303.822 17.828 303.822 17.62C303.822 17.404 303.898 17.22 304.05 17.068C304.202 16.916 304.382 16.84 304.59 16.84ZM305.322 19.48V23.68C305.322 23.992 305.218 24.28 305.01 24.544C304.746 24.848 304.418 25 304.026 25H301.71V23.776H303.558C303.646 23.776 303.722 23.744 303.786 23.68C303.842 23.624 303.87 23.556 303.87 23.476V19.48H305.322ZM308.444 16.408V23.476C308.444 23.556 308.468 23.62 308.516 23.668C308.564 23.74 308.64 23.776 308.744 23.776H309.056V25H308.276C307.948 25 307.66 24.884 307.412 24.652C307.124 24.388 306.98 24.064 306.98 23.68V16.408H308.444ZM310.56 19.684C311.32 19.452 312.012 19.336 312.636 19.336C313.604 19.336 314.384 19.64 314.976 20.248C315.512 20.792 315.78 21.48 315.78 22.312V23.596V23.776H316.176V25H315.924L315.528 24.508H315.504C315.232 24.836 314.892 25 314.484 25H308.964V23.776H314.016C314.216 23.776 314.316 23.676 314.316 23.476V22.396C314.316 21.852 314.132 21.416 313.764 21.088C313.404 20.752 312.928 20.584 312.336 20.584C311.944 20.584 311.352 20.672 310.56 20.848V19.684ZM312.24 25.876C312.456 25.876 312.64 25.952 312.792 26.104C312.944 26.256 313.02 26.44 313.02 26.656C313.02 26.872 312.944 27.056 312.792 27.208C312.64 27.36 312.456 27.436 312.24 27.436C312.032 27.436 311.852 27.36 311.7 27.208C311.548 27.056 311.472 26.872 311.472 26.656C311.472 26.44 311.548 26.256 311.7 26.104C311.852 25.952 312.032 25.876 312.24 25.876ZM318.237 21.556C318.237 20.796 318.501 20.22 319.029 19.828C319.445 19.508 320.013 19.348 320.733 19.348C321.437 19.348 322.033 19.556 322.521 19.972C323.137 20.5 323.445 21.248 323.445 22.216C323.445 23.128 323.201 23.884 322.713 24.484C322.241 25.068 321.629 25.36 320.877 25.36C320.213 25.36 319.689 25.112 319.305 24.616C319.049 24.872 318.737 25 318.369 25H316.077V23.776H317.925C318.013 23.776 318.089 23.744 318.153 23.68C318.209 23.624 318.237 23.556 318.237 23.476V21.556ZM319.689 23.644C319.985 23.964 320.325 24.124 320.709 24.124C321.085 24.124 321.393 23.96 321.633 23.632C321.873 23.296 321.993 22.864 321.993 22.336C321.993 21.76 321.861 21.308 321.597 20.98C321.357 20.7 321.045 20.56 320.661 20.56C320.373 20.56 320.145 20.652 319.977 20.836C319.785 21.012 319.689 21.252 319.689 21.556V23.644Z" fill="black"/>
<path d="M339.067 23.0667L343.767 18.3667L342.833 17.4334L339.067 21.2L337.167 19.3L336.233 20.2334L339.067 23.0667ZM340 26.6667C339.078 26.6667 338.211 26.4916 337.4 26.1414C336.589 25.7912 335.883 25.3163 335.283 24.7167C334.683 24.1172 334.208 23.4116 333.859 22.6C333.509 21.7885 333.334 20.9218 333.333 20C333.333 19.0783 333.508 18.2116 333.859 17.4C334.209 16.5885 334.684 15.8829 335.283 15.2834C335.882 14.6838 336.588 14.2089 337.4 13.8587C338.212 13.5085 339.079 13.3334 340 13.3334C340.921 13.3334 341.788 13.5085 342.6 13.8587C343.412 14.2089 344.118 14.6838 344.717 15.2834C345.316 15.8829 345.791 16.5885 346.142 17.4C346.493 18.2116 346.668 19.0783 346.667 20C346.665 20.9218 346.49 21.7885 346.141 22.6C345.792 23.4116 345.318 24.1172 344.717 24.7167C344.116 25.3163 343.41 25.7914 342.6 26.142C341.79 26.4927 340.923 26.6676 340 26.6667Z" fill="#34C759"/>
</svg>
