<svg className="w-[100%] h-auto" width="360" height="40" viewBox="0 0 360 40" fill="none" xmlns="http://www.w3.org/2000/svg">
<rect width="172" height="40" rx="4" fill="#FF3B30" fill-opacity="0.12"/>
<path d="M62.8016 19.156V23.476C62.8016 23.572 62.8296 23.644 62.8856 23.692C62.9336 23.748 62.9976 23.776 63.0776 23.776H63.4136V25H62.6576C62.2896 25 61.9576 24.852 61.6616 24.556C61.2056 24.932 60.6976 25.12 60.1376 25.12C59.5056 25.12 58.9616 24.92 58.5056 24.52C57.8976 23.952 57.5936 23.192 57.5936 22.24C57.5936 21.368 57.8736 20.644 58.4336 20.068C58.9456 19.548 59.5736 19.288 60.3176 19.288C60.7336 19.288 61.1496 19.376 61.5656 19.552L62.0816 19.156H62.8016ZM61.3376 20.704C61.0576 20.6 60.7896 20.548 60.5336 20.548C60.1016 20.548 59.7456 20.708 59.4656 21.028C59.1856 21.34 59.0456 21.748 59.0456 22.252C59.0456 22.756 59.1696 23.16 59.4176 23.464C59.6736 23.768 60.0136 23.92 60.4376 23.92C60.7256 23.92 61.0256 23.856 61.3376 23.728V20.704ZM66.9432 16.84C67.1592 16.84 67.3432 16.916 67.4952 17.068C67.6472 17.22 67.7232 17.404 67.7232 17.62C67.7232 17.828 67.6472 18.008 67.4952 18.16C67.3432 18.312 67.1592 18.388 66.9432 18.388C66.7352 18.388 66.5552 18.312 66.4032 18.16C66.2512 18.008 66.1752 17.828 66.1752 17.62C66.1752 17.404 66.2512 17.22 66.4032 17.068C66.5552 16.916 66.7352 16.84 66.9432 16.84ZM68.7672 16.84C68.9832 16.84 69.1672 16.916 69.3192 17.068C69.4712 17.22 69.5472 17.404 69.5472 17.62C69.5472 17.828 69.4712 18.008 69.3192 18.16C69.1672 18.312 68.9832 18.388 68.7672 18.388C68.5512 18.388 68.3672 18.316 68.2152 18.172C68.0712 18.02 67.9992 17.836 67.9992 17.62C67.9992 17.404 68.0712 17.22 68.2152 17.068C68.3672 16.916 68.5512 16.84 68.7672 16.84ZM65.7192 23.776C65.3592 23.296 65.1792 22.716 65.1792 22.036C65.1792 21.42 65.3352 20.888 65.6472 20.44C66.1512 19.704 66.8792 19.336 67.8312 19.336C68.5512 19.336 69.1552 19.56 69.6432 20.008C70.2112 20.528 70.4952 21.204 70.4952 22.036C70.4952 22.692 70.3152 23.272 69.9552 23.776H70.7832V25H68.9832C68.4632 25 68.0872 24.948 67.8552 24.844H67.7952C67.5712 24.948 67.1952 25 66.6672 25H63.3312V23.776H65.7192ZM67.8312 23.764C68.1912 23.724 68.4792 23.56 68.6952 23.272C68.9192 22.976 69.0312 22.6 69.0312 22.144C69.0312 21.664 68.9232 21.28 68.7072 20.992C68.4912 20.704 68.1992 20.56 67.8312 20.56C67.4712 20.56 67.1792 20.704 66.9552 20.992C66.7392 21.28 66.6312 21.664 66.6312 22.144C66.6312 22.6 66.7392 22.976 66.9552 23.272C67.1792 23.56 67.4712 23.724 67.8312 23.764ZM74.3143 19.48V23.596V23.776H74.9263V25H74.5063L74.0623 24.508H74.0383C73.7663 24.836 73.4263 25 73.0183 25H70.7023V23.776H72.5143C72.6263 23.776 72.7063 23.744 72.7543 23.68C72.8263 23.616 72.8623 23.536 72.8623 23.44V19.48H74.3143ZM71.7103 25.876C71.9263 25.876 72.1103 25.952 72.2623 26.104C72.4143 26.256 72.4903 26.44 72.4903 26.656C72.4903 26.872 72.4143 27.056 72.2623 27.208C72.1103 27.36 71.9263 27.436 71.7103 27.436C71.4943 27.436 71.3103 27.36 71.1583 27.208C71.0063 27.056 70.9303 26.872 70.9303 26.656C70.9303 26.44 71.0063 26.256 71.1583 26.104C71.3103 25.952 71.4943 25.876 71.7103 25.876ZM73.5343 25.876C73.7503 25.876 73.9343 25.952 74.0863 26.104C74.2383 26.256 74.3143 26.44 74.3143 26.656C74.3143 26.872 74.2383 27.056 74.0863 27.208C73.9343 27.36 73.7503 27.436 73.5343 27.436C73.3263 27.436 73.1463 27.36 72.9943 27.208C72.8423 27.056 72.7663 26.872 72.7663 26.656C72.7663 26.44 72.8423 26.256 72.9943 26.104C73.1463 25.952 73.3263 25.876 73.5343 25.876ZM78.583 16.84C78.799 16.84 78.983 16.916 79.135 17.068C79.287 17.22 79.363 17.404 79.363 17.62C79.363 17.828 79.287 18.008 79.135 18.16C78.983 18.312 78.799 18.388 78.583 18.388C78.375 18.388 78.195 18.312 78.043 18.16C77.891 18.008 77.815 17.828 77.815 17.62C77.815 17.404 77.891 17.22 78.043 17.068C78.195 16.916 78.375 16.84 78.583 16.84ZM80.407 16.84C80.623 16.84 80.807 16.916 80.959 17.068C81.111 17.22 81.187 17.404 81.187 17.62C81.187 17.828 81.111 18.008 80.959 18.16C80.807 18.312 80.623 18.388 80.407 18.388C80.199 18.388 80.019 18.312 79.867 18.16C79.715 18.008 79.639 17.828 79.639 17.62C79.639 17.404 79.715 17.22 79.867 17.068C80.019 16.916 80.199 16.84 80.407 16.84ZM77.251 23.776C77.067 23.544 76.923 23.268 76.819 22.948C76.731 22.644 76.687 22.34 76.687 22.036C76.687 21.332 76.891 20.744 77.299 20.272C77.819 19.648 78.551 19.336 79.495 19.336C80.167 19.336 80.727 19.516 81.175 19.876C81.663 20.292 81.907 20.852 81.907 21.556V23.68C81.907 24.008 81.799 24.3 81.583 24.556C81.327 24.852 81.003 25 80.611 25H74.839V23.776H77.251ZM80.443 21.556C80.443 21.228 80.331 20.964 80.107 20.764C79.931 20.628 79.727 20.56 79.495 20.56C78.975 20.56 78.599 20.764 78.367 21.172C78.215 21.428 78.139 21.752 78.139 22.144C78.139 22.68 78.307 23.1 78.643 23.404C78.915 23.652 79.271 23.776 79.711 23.776H80.143C80.343 23.776 80.443 23.676 80.443 23.476V21.556ZM84.2425 19.408C84.5145 19.36 84.8305 19.336 85.1905 19.336C86.1105 19.336 86.8545 19.632 87.4225 20.224C87.9265 20.76 88.1785 21.424 88.1785 22.216V23.68C88.1785 24.056 88.0425 24.372 87.7705 24.628C87.5225 24.876 87.2265 25 86.8825 25H83.0305V23.776H86.4145C86.6145 23.776 86.7145 23.676 86.7145 23.476V22.36C86.7145 21.808 86.5465 21.364 86.2105 21.028C85.8985 20.716 85.4465 20.548 84.8545 20.524C84.5825 20.524 84.3785 20.54 84.2425 20.572V19.408ZM95.2935 19.48V23.776H95.9055V25H95.2815C95.2175 25.96 94.8375 26.696 94.1415 27.208C93.5655 27.632 92.8575 27.844 92.0175 27.844C91.8735 27.844 91.7175 27.84 91.5495 27.832L90.9615 27.1V26.584C91.2175 26.624 91.4655 26.644 91.7055 26.644C93.1215 26.644 93.8295 25.956 93.8295 24.58V19.48H95.2935ZM99.4393 19.48V23.596V23.776H100.051V25H99.6313L99.1873 24.508H99.1633C98.8913 24.836 98.5513 25 98.1433 25H95.8273V23.776H97.6393C97.7513 23.776 97.8313 23.744 97.8793 23.68C97.9513 23.616 97.9873 23.536 97.9873 23.44V19.48H99.4393ZM96.8353 25.876C97.0513 25.876 97.2353 25.952 97.3873 26.104C97.5393 26.256 97.6153 26.44 97.6153 26.656C97.6153 26.872 97.5393 27.056 97.3873 27.208C97.2353 27.36 97.0513 27.436 96.8353 27.436C96.6193 27.436 96.4353 27.36 96.2833 27.208C96.1313 27.056 96.0553 26.872 96.0553 26.656C96.0553 26.44 96.1313 26.256 96.2833 26.104C96.4353 25.952 96.6193 25.876 96.8353 25.876ZM98.6593 25.876C98.8753 25.876 99.0593 25.952 99.2113 26.104C99.3633 26.256 99.4393 26.44 99.4393 26.656C99.4393 26.872 99.3633 27.056 99.2113 27.208C99.0593 27.36 98.8753 27.436 98.6593 27.436C98.4513 27.436 98.2713 27.36 98.1193 27.208C97.9673 27.056 97.8913 26.872 97.8913 26.656C97.8913 26.44 97.9673 26.256 98.1193 26.104C98.2713 25.952 98.4513 25.876 98.6593 25.876ZM104.56 16.84C104.768 16.84 104.948 16.916 105.1 17.068C105.252 17.22 105.328 17.404 105.328 17.62C105.328 17.828 105.252 18.008 105.1 18.16C104.948 18.312 104.768 18.388 104.56 18.388C104.344 18.388 104.16 18.312 104.008 18.16C103.856 18.008 103.78 17.828 103.78 17.62C103.78 17.404 103.856 17.22 104.008 17.068C104.16 16.916 104.344 16.84 104.56 16.84ZM102.376 23.776C102.232 23.608 102.104 23.38 101.992 23.092C101.872 22.756 101.812 22.404 101.812 22.036C101.812 21.124 102.136 20.424 102.784 19.936C103.312 19.536 103.976 19.336 104.776 19.336C105.2 19.336 105.64 19.404 106.096 19.54V20.692C105.64 20.588 105.248 20.536 104.92 20.536C103.824 20.536 103.276 21.084 103.276 22.18C103.276 22.532 103.36 22.844 103.528 23.116C103.808 23.556 104.216 23.776 104.752 23.776H107.08V24.256L106.48 25H99.964V23.776H102.376ZM115.641 19.156V23.476C115.641 23.572 115.669 23.644 115.725 23.692C115.773 23.748 115.837 23.776 115.917 23.776H116.253V25H115.497C115.129 25 114.797 24.852 114.501 24.556C114.045 24.932 113.537 25.12 112.977 25.12C112.345 25.12 111.801 24.92 111.345 24.52C110.737 23.952 110.433 23.192 110.433 22.24C110.433 21.368 110.713 20.644 111.273 20.068C111.785 19.548 112.413 19.288 113.157 19.288C113.573 19.288 113.989 19.376 114.405 19.552L114.921 19.156H115.641ZM114.177 20.704C113.897 20.6 113.629 20.548 113.373 20.548C112.941 20.548 112.585 20.708 112.305 21.028C112.025 21.34 111.885 21.748 111.885 22.252C111.885 22.756 112.009 23.16 112.257 23.464C112.513 23.768 112.853 23.92 113.277 23.92C113.565 23.92 113.865 23.856 114.177 23.728V20.704ZM117.755 19.684C118.515 19.452 119.207 19.336 119.831 19.336C120.799 19.336 121.579 19.64 122.171 20.248C122.707 20.792 122.975 21.48 122.975 22.312V23.596V23.776H123.371V25H123.119L122.723 24.508H122.699C122.427 24.836 122.087 25 121.679 25H116.159V23.776H121.211C121.411 23.776 121.511 23.676 121.511 23.476V22.396C121.511 21.852 121.327 21.416 120.959 21.088C120.599 20.752 120.123 20.584 119.531 20.584C119.139 20.584 118.547 20.672 117.755 20.848V19.684ZM119.435 25.876C119.651 25.876 119.835 25.952 119.987 26.104C120.139 26.256 120.215 26.44 120.215 26.656C120.215 26.872 120.139 27.056 119.987 27.208C119.835 27.36 119.651 27.436 119.435 27.436C119.227 27.436 119.047 27.36 118.895 27.208C118.743 27.056 118.667 26.872 118.667 26.656C118.667 26.44 118.743 26.256 118.895 26.104C119.047 25.952 119.227 25.876 119.435 25.876ZM126.896 19.48V23.596V23.776H127.508V25H127.088L126.644 24.508H126.62C126.348 24.836 126.008 25 125.6 25H123.284V23.776H125.096C125.208 23.776 125.288 23.744 125.336 23.68C125.408 23.616 125.444 23.536 125.444 23.44V19.48H126.896ZM124.292 25.876C124.508 25.876 124.692 25.952 124.844 26.104C124.996 26.256 125.072 26.44 125.072 26.656C125.072 26.872 124.996 27.056 124.844 27.208C124.692 27.36 124.508 27.436 124.292 27.436C124.076 27.436 123.892 27.36 123.74 27.208C123.588 27.056 123.512 26.872 123.512 26.656C123.512 26.44 123.588 26.256 123.74 26.104C123.892 25.952 124.076 25.876 124.292 25.876ZM126.116 25.876C126.332 25.876 126.516 25.952 126.668 26.104C126.82 26.256 126.896 26.44 126.896 26.656C126.896 26.872 126.82 27.056 126.668 27.208C126.516 27.36 126.332 27.436 126.116 27.436C125.908 27.436 125.728 27.36 125.576 27.208C125.424 27.056 125.348 26.872 125.348 26.656C125.348 26.44 125.424 26.256 125.576 26.104C125.728 25.952 125.908 25.876 126.116 25.876ZM128.585 16.84C128.801 16.84 128.985 16.916 129.137 17.068C129.289 17.22 129.365 17.404 129.365 17.62C129.365 17.828 129.289 18.008 129.137 18.16C128.985 18.312 128.801 18.388 128.585 18.388C128.369 18.388 128.185 18.312 128.033 18.16C127.881 18.008 127.805 17.828 127.805 17.62C127.805 17.404 127.881 17.22 128.033 17.068C128.185 16.916 128.369 16.84 128.585 16.84ZM130.409 16.84C130.625 16.84 130.809 16.916 130.961 17.068C131.113 17.22 131.189 17.404 131.189 17.62C131.189 17.828 131.113 18.008 130.961 18.16C130.809 18.312 130.625 18.388 130.409 18.388C130.201 18.388 130.021 18.312 129.869 18.16C129.717 18.008 129.641 17.828 129.641 17.62C129.641 17.404 129.717 17.22 129.869 17.068C130.021 16.916 130.201 16.84 130.409 16.84ZM131.033 19.48V23.596V23.776H131.645V25H131.225L130.781 24.508H130.757C130.485 24.836 130.145 25 129.737 25H127.421V23.776H129.233C129.345 23.776 129.425 23.744 129.473 23.68C129.545 23.616 129.581 23.536 129.581 23.44V19.48H131.033ZM134.438 16.84C134.654 16.84 134.838 16.916 134.99 17.068C135.142 17.22 135.218 17.404 135.218 17.62C135.218 17.828 135.142 18.008 134.99 18.16C134.838 18.312 134.654 18.388 134.438 18.388C134.23 18.388 134.05 18.312 133.898 18.16C133.746 18.008 133.67 17.828 133.67 17.62C133.67 17.404 133.746 17.22 133.898 17.068C134.05 16.916 134.23 16.84 134.438 16.84ZM135.17 19.48V23.68C135.17 23.992 135.066 24.28 134.858 24.544C134.594 24.848 134.266 25 133.874 25H131.558V23.776H133.406C133.494 23.776 133.57 23.744 133.634 23.68C133.69 23.624 133.718 23.556 133.718 23.476V19.48H135.17Z" fill="black"/>
<path fill-rule="evenodd" clip-rule="evenodd" d="M152 13C150.143 13 148.363 13.7375 147.05 15.0503C145.737 16.363 145 18.1435 145 20C145 21.8565 145.737 23.637 147.05 24.9497C148.363 26.2625 150.143 27 152 27C153.857 27 155.637 26.2625 156.95 24.9497C158.263 23.637 159 21.8565 159 20C159 18.1435 158.263 16.363 156.95 15.0503C155.637 13.7375 153.857 13 152 13ZM148 19.5V20.5H156V19.5H148Z" fill="#FF3B30"/>
<rect x="188" width="172" height="40" rx="4" fill="#34C759" fill-opacity="0.12"/>
<path d="M236.891 16.408V23.776H237.491V25H236.879C236.823 25.88 236.495 26.58 235.895 27.1C235.279 27.612 234.475 27.868 233.483 27.868H232.295C231.215 27.868 230.367 27.572 229.751 26.98C229.175 26.42 228.887 25.664 228.887 24.712V22.564L229.631 21.964H230.351V24.58C230.351 25.34 230.543 25.872 230.927 26.176C231.311 26.488 231.967 26.644 232.895 26.644C233.799 26.644 234.435 26.504 234.803 26.224C235.219 25.904 235.427 25.356 235.427 24.58V16.408H236.891ZM243.133 16.24V17.596L240.625 19.132C241.681 19.5 242.513 20.124 243.121 21.004C243.665 21.788 243.937 22.656 243.937 23.608C243.937 23.624 243.937 23.652 243.937 23.692C243.937 23.732 243.937 23.76 243.937 23.776H244.321V25H244.093L243.685 24.508H243.661C243.381 24.836 243.041 25 242.641 25H237.409V23.776H242.173C242.381 23.776 242.485 23.672 242.485 23.464C242.429 22.784 242.185 22.16 241.753 21.592C241.081 20.752 240.149 20.272 238.957 20.152C238.901 20.152 238.873 20.12 238.873 20.056V18.7L243.133 16.24ZM252.245 15.4C252.445 15.4 252.613 15.472 252.749 15.616C252.893 15.752 252.965 15.92 252.965 16.12C252.965 16.32 252.893 16.488 252.749 16.624C252.613 16.76 252.445 16.828 252.245 16.828C252.045 16.828 251.877 16.76 251.741 16.624C251.605 16.488 251.537 16.32 251.537 16.12C251.537 15.92 251.605 15.752 251.741 15.616C251.877 15.472 252.045 15.4 252.245 15.4ZM251.333 16.84C251.549 16.84 251.733 16.916 251.885 17.068C252.037 17.22 252.113 17.404 252.113 17.62C252.113 17.828 252.037 18.008 251.885 18.16C251.733 18.312 251.549 18.388 251.333 18.388C251.125 18.388 250.945 18.312 250.793 18.16C250.641 18.008 250.565 17.828 250.565 17.62C250.565 17.404 250.641 17.22 250.793 17.068C250.945 16.916 251.125 16.84 251.333 16.84ZM253.157 16.84C253.373 16.84 253.557 16.916 253.709 17.068C253.861 17.22 253.937 17.404 253.937 17.62C253.937 17.828 253.861 18.008 253.709 18.16C253.557 18.312 253.373 18.388 253.157 18.388C252.941 18.388 252.757 18.312 252.605 18.16C252.453 18.008 252.377 17.828 252.377 17.62C252.377 17.404 252.453 17.22 252.605 17.068C252.757 16.916 252.941 16.84 253.157 16.84ZM256.973 19.48V23.68C256.973 24.04 256.845 24.352 256.589 24.616C256.341 24.872 256.037 25 255.677 25H253.157L252.713 24.508H252.677C252.413 24.836 252.077 25 251.669 25H249.149L248.693 24.508H248.657C248.393 24.836 248.057 25 247.649 25H244.241V23.776H247.181C247.381 23.776 247.481 23.676 247.481 23.476V20.86H248.945V23.26C248.945 23.492 248.941 23.664 248.933 23.776H251.201C251.401 23.776 251.501 23.676 251.501 23.476V20.164H252.965V23.368C252.965 23.416 252.961 23.488 252.953 23.584C252.953 23.672 252.953 23.736 252.953 23.776H255.209C255.409 23.776 255.509 23.676 255.509 23.476V19.48H256.973ZM264.708 19.336C264.924 19.336 265.108 19.412 265.26 19.564C265.412 19.716 265.488 19.9 265.488 20.116C265.488 20.332 265.412 20.516 265.26 20.668C265.108 20.82 264.924 20.896 264.708 20.896C264.5 20.896 264.32 20.82 264.168 20.668C264.016 20.516 263.94 20.332 263.94 20.116C263.94 19.9 264.016 19.716 264.168 19.564C264.32 19.412 264.5 19.336 264.708 19.336ZM268.788 19.48V23.776H269.388V25H268.776C268.712 25.944 268.356 26.664 267.708 27.16C267.1 27.632 266.324 27.868 265.38 27.868H264.192C263.168 27.868 262.352 27.604 261.744 27.076C261.104 26.516 260.784 25.728 260.784 24.712V22.564L261.528 21.964H262.248V24.58C262.248 25.34 262.436 25.872 262.812 26.176C263.196 26.488 263.856 26.644 264.792 26.644C265.696 26.644 266.332 26.504 266.7 26.224C267.116 25.904 267.324 25.356 267.324 24.58V19.48H268.788ZM271.514 21.556C271.514 20.796 271.778 20.22 272.306 19.828C272.722 19.508 273.29 19.348 274.01 19.348C274.714 19.348 275.31 19.556 275.798 19.972C276.414 20.5 276.722 21.248 276.722 22.216C276.722 23.128 276.478 23.884 275.99 24.484C275.518 25.068 274.906 25.36 274.154 25.36C273.49 25.36 272.966 25.112 272.582 24.616C272.326 24.872 272.014 25 271.646 25H269.354V23.776H271.202C271.29 23.776 271.366 23.744 271.43 23.68C271.486 23.624 271.514 23.556 271.514 23.476V21.556ZM272.966 23.644C273.262 23.964 273.602 24.124 273.986 24.124C274.362 24.124 274.67 23.96 274.91 23.632C275.15 23.296 275.27 22.864 275.27 22.336C275.27 21.76 275.138 21.308 274.874 20.98C274.634 20.7 274.322 20.56 273.938 20.56C273.65 20.56 273.422 20.652 273.254 20.836C273.062 21.012 272.966 21.252 272.966 21.556V23.644ZM283.668 19.48V23.776H284.28V25H283.656C283.592 25.96 283.212 26.696 282.516 27.208C281.94 27.632 281.232 27.844 280.392 27.844C280.248 27.844 280.092 27.84 279.924 27.832L279.336 27.1V26.584C279.592 26.624 279.84 26.644 280.08 26.644C281.496 26.644 282.204 25.956 282.204 24.58V19.48H283.668ZM286.29 15.4C286.482 15.4 286.646 15.472 286.782 15.616C286.926 15.752 286.998 15.916 286.998 16.108C286.998 16.308 286.93 16.48 286.794 16.624C286.658 16.76 286.49 16.828 286.29 16.828C286.082 16.828 285.91 16.76 285.774 16.624C285.638 16.488 285.57 16.316 285.57 16.108C285.57 15.908 285.638 15.74 285.774 15.604C285.918 15.468 286.09 15.4 286.29 15.4ZM285.378 16.84C285.586 16.84 285.766 16.916 285.918 17.068C286.07 17.22 286.146 17.404 286.146 17.62C286.146 17.828 286.07 18.008 285.918 18.16C285.766 18.312 285.586 18.388 285.378 18.388C285.162 18.388 284.978 18.312 284.826 18.16C284.674 18.008 284.598 17.828 284.598 17.62C284.598 17.404 284.674 17.22 284.826 17.068C284.978 16.916 285.162 16.84 285.378 16.84ZM287.19 16.84C287.406 16.84 287.59 16.916 287.742 17.068C287.894 17.22 287.97 17.404 287.97 17.62C287.97 17.828 287.894 18.008 287.742 18.16C287.59 18.312 287.406 18.388 287.19 18.388C286.982 18.388 286.802 18.312 286.65 18.16C286.498 18.008 286.422 17.828 286.422 17.62C286.422 17.404 286.498 17.22 286.65 17.068C286.802 16.916 286.982 16.84 287.19 16.84ZM287.814 19.48V23.596V23.776H288.426V25H288.006L287.562 24.508H287.538C287.266 24.836 286.926 25 286.518 25H284.202V23.776H286.014C286.126 23.776 286.206 23.744 286.254 23.68C286.326 23.616 286.362 23.536 286.362 23.44V19.48H287.814ZM294.051 16.24V17.596L291.543 19.12C292.575 19.496 293.403 20.112 294.027 20.968C294.587 21.752 294.867 22.608 294.867 23.536C294.867 23.968 294.743 24.32 294.495 24.592C294.255 24.864 293.943 25 293.559 25H288.327V23.776H293.091C293.299 23.776 293.403 23.672 293.403 23.464C293.339 22.712 293.063 22.056 292.575 21.496C291.919 20.72 291.019 20.272 289.875 20.152C289.819 20.152 289.791 20.12 289.791 20.056V18.688L294.051 16.24ZM297.827 16.408V24.7L297.083 25.3H296.363V16.408H297.827ZM311.799 19.48V23.68C311.799 24.016 311.695 24.3 311.487 24.532C311.231 24.844 310.903 25 310.503 25H303.783C303.263 25 302.815 24.832 302.439 24.496C301.935 24.072 301.683 23.52 301.683 22.84V20.944L302.427 20.344H303.147V22.84C303.147 23.12 303.243 23.348 303.435 23.524C303.619 23.692 303.831 23.776 304.071 23.776H310.035C310.235 23.776 310.335 23.676 310.335 23.476V19.48H311.799ZM306.747 25.876C306.963 25.876 307.147 25.952 307.299 26.104C307.451 26.256 307.527 26.44 307.527 26.656C307.527 26.872 307.451 27.056 307.299 27.208C307.147 27.36 306.963 27.436 306.747 27.436C306.531 27.436 306.347 27.36 306.195 27.208C306.043 27.056 305.967 26.872 305.967 26.656C305.967 26.44 306.043 26.256 306.195 26.104C306.347 25.952 306.531 25.876 306.747 25.876ZM315.989 19.48V23.776H316.601V25H315.977C315.913 25.96 315.533 26.696 314.837 27.208C314.261 27.632 313.553 27.844 312.713 27.844C312.569 27.844 312.413 27.84 312.245 27.832L311.657 27.1V26.584C311.913 26.624 312.161 26.644 312.401 26.644C313.817 26.644 314.525 25.956 314.525 24.58V19.48H315.989ZM318.119 19.684C318.911 19.452 319.603 19.336 320.195 19.336C321.163 19.336 321.943 19.64 322.535 20.248C323.071 20.8 323.339 21.488 323.339 22.312V23.68C323.339 24.008 323.227 24.304 323.003 24.568C322.739 24.856 322.419 25 322.043 25H316.523V23.776H321.575C321.775 23.776 321.875 23.676 321.875 23.476V22.396C321.875 21.836 321.691 21.396 321.323 21.076C320.963 20.756 320.463 20.596 319.823 20.596C319.455 20.596 318.887 20.68 318.119 20.848V19.684ZM319.799 25.876C320.015 25.876 320.199 25.952 320.351 26.104C320.503 26.256 320.579 26.44 320.579 26.656C320.579 26.872 320.503 27.056 320.351 27.208C320.199 27.36 320.015 27.436 319.799 27.436C319.591 27.436 319.411 27.36 319.259 27.208C319.107 27.056 319.031 26.872 319.031 26.656C319.031 26.44 319.107 26.256 319.259 26.104C319.411 25.952 319.591 25.876 319.799 25.876Z" fill="black"/>
<path d="M339.067 23.0667L343.767 18.3667L342.833 17.4334L339.067 21.2L337.167 19.3L336.233 20.2334L339.067 23.0667ZM340 26.6667C339.078 26.6667 338.211 26.4916 337.4 26.1414C336.589 25.7912 335.883 25.3163 335.283 24.7167C334.683 24.1172 334.208 23.4116 333.859 22.6C333.509 21.7885 333.334 20.9218 333.333 20C333.333 19.0783 333.508 18.2116 333.859 17.4C334.209 16.5885 334.684 15.8829 335.283 15.2834C335.882 14.6838 336.588 14.2089 337.4 13.8587C338.212 13.5085 339.079 13.3334 340 13.3334C340.921 13.3334 341.788 13.5085 342.6 13.8587C343.412 14.2089 344.118 14.6838 344.717 15.2834C345.316 15.8829 345.791 16.5885 346.142 17.4C346.493 18.2116 346.668 19.0783 346.667 20C346.665 20.9218 346.49 21.7885 346.141 22.6C345.792 23.4116 345.318 24.1172 344.717 24.7167C344.116 25.3163 343.41 25.7914 342.6 26.142C341.79 26.4927 340.923 26.6676 340 26.6667Z" fill="#34C759"/>
</svg>
