<svg className="w-[100%] h-auto" width="360" height="40" viewBox="0 0 360 40" fill="none" xmlns="http://www.w3.org/2000/svg">
<rect width="172" height="40" rx="4" fill="#FF3B30" fill-opacity="0.12"/>
<path d="M48.6453 19.156V22.9C48.6453 23.588 48.4093 24.136 47.9373 24.544C47.4973 24.92 46.8933 25.108 46.1253 25.108C45.2773 25.108 44.6133 24.836 44.1333 24.292C43.6693 23.804 43.4373 23.144 43.4373 22.312C43.4373 21.408 43.7293 20.664 44.3133 20.08C44.8333 19.552 45.4773 19.288 46.2453 19.288C46.6533 19.288 47.0413 19.38 47.4093 19.564L47.9133 19.156H48.6453ZM47.1813 20.704C46.9013 20.592 46.6373 20.536 46.3893 20.536C45.9413 20.536 45.5773 20.7 45.2973 21.028C45.0253 21.356 44.8893 21.784 44.8893 22.312C44.8893 22.808 44.9973 23.196 45.2133 23.476C45.4373 23.748 45.7453 23.884 46.1373 23.884C46.4893 23.884 46.7533 23.788 46.9293 23.596C47.0973 23.404 47.1813 23.168 47.1813 22.888V20.704ZM50.9847 19.408C51.2567 19.36 51.5727 19.336 51.9327 19.336C52.8527 19.336 53.5967 19.632 54.1647 20.224C54.6687 20.76 54.9207 21.424 54.9207 22.216V23.68C54.9207 24.056 54.7847 24.372 54.5127 24.628C54.2647 24.876 53.9687 25 53.6247 25H49.7727V23.776H53.1567C53.3567 23.776 53.4567 23.676 53.4567 23.476V22.36C53.4567 21.808 53.2887 21.364 52.9527 21.028C52.6407 20.716 52.1887 20.548 51.5967 20.524C51.3247 20.524 51.1207 20.54 50.9847 20.572V19.408ZM57.9365 16.408V23.476C57.9365 23.556 57.9605 23.62 58.0085 23.668C58.0565 23.74 58.1325 23.776 58.2365 23.776H58.5485V25H57.7685C57.4405 25 57.1525 24.884 56.9045 24.652C56.6165 24.388 56.4725 24.064 56.4725 23.68V16.408H57.9365ZM62.0799 19.48V23.596V23.776H62.6919V25H62.2719L61.8279 24.508H61.8039C61.5319 24.836 61.1919 25 60.7839 25H58.4679V23.776H60.2799C60.3919 23.776 60.4719 23.744 60.5199 23.68C60.5919 23.616 60.6279 23.536 60.6279 23.44V19.48H62.0799ZM59.4759 25.876C59.6919 25.876 59.8759 25.952 60.0279 26.104C60.1799 26.256 60.2559 26.44 60.2559 26.656C60.2559 26.872 60.1799 27.056 60.0279 27.208C59.8759 27.36 59.6919 27.436 59.4759 27.436C59.2599 27.436 59.0759 27.36 58.9239 27.208C58.7719 27.056 58.6959 26.872 58.6959 26.656C58.6959 26.44 58.7719 26.256 58.9239 26.104C59.0759 25.952 59.2599 25.876 59.4759 25.876ZM61.2999 25.876C61.5159 25.876 61.6999 25.952 61.8519 26.104C62.0039 26.256 62.0799 26.44 62.0799 26.656C62.0799 26.872 62.0039 27.056 61.8519 27.208C61.6999 27.36 61.5159 27.436 61.2999 27.436C61.0919 27.436 60.9119 27.36 60.7599 27.208C60.6079 27.056 60.5319 26.872 60.5319 26.656C60.5319 26.44 60.6079 26.256 60.7599 26.104C60.9119 25.952 61.0919 25.876 61.2999 25.876ZM64.2726 21.592C64.5446 20.808 65.0406 20.212 65.7606 19.804C66.2966 19.5 66.8766 19.348 67.5006 19.348C68.1246 19.348 68.6966 19.516 69.2166 19.852C69.8646 20.244 70.3286 20.824 70.6086 21.592L70.4646 21.928C70.1446 22.072 69.8086 22.32 69.4566 22.672C69.1206 23.04 68.9006 23.408 68.7966 23.776H70.7286V25H68.0886C67.8646 25 67.6606 24.896 67.4766 24.688H67.4166C67.2326 24.896 67.0206 25 66.7806 25H62.6046V23.776H66.0846C65.9886 23.448 65.7846 23.1 65.4726 22.732C65.1286 22.348 64.7726 22.08 64.4046 21.928L64.2726 21.592ZM69.0726 21.496C68.8806 21.16 68.6206 20.912 68.2926 20.752C68.0446 20.632 67.7686 20.572 67.4646 20.572C67.1446 20.572 66.8406 20.64 66.5526 20.776C66.2326 20.936 65.9846 21.176 65.8086 21.496C66.0806 21.616 66.3686 21.856 66.6726 22.216C67.0086 22.592 67.2566 23 67.4166 23.44H67.4646C67.6166 22.992 67.8766 22.564 68.2446 22.156C68.5406 21.828 68.8166 21.608 69.0726 21.496ZM74.2557 16.408V23.68C74.2557 24.016 74.1477 24.304 73.9317 24.544C73.6837 24.848 73.3597 25 72.9597 25H70.6437V23.776H72.4917C72.5797 23.776 72.6557 23.744 72.7197 23.68C72.7757 23.624 72.8037 23.556 72.8037 23.476V16.408H74.2557ZM77.3779 16.408V24.7L76.6339 25.3H75.9139V16.408H77.3779ZM82.6983 22.912V24.58C82.6983 25.34 82.8863 25.872 83.2623 26.176C83.6463 26.488 84.3023 26.644 85.2303 26.644C86.0383 26.644 86.6223 26.54 86.9823 26.332C87.4223 26.084 87.6743 25.64 87.7383 25H86.9943L86.3703 24.232V23.776H89.6823V25H89.2263C89.1623 26 88.7623 26.752 88.0263 27.256C87.4503 27.664 86.7183 27.868 85.8303 27.868H84.6423C83.6343 27.868 82.8303 27.608 82.2303 27.088C81.5663 26.544 81.2343 25.752 81.2343 24.712V23.5L81.9783 22.912H82.6983ZM92.2557 16.408V23.68C92.2557 24.016 92.1477 24.304 91.9317 24.544C91.6837 24.848 91.3597 25 90.9597 25H88.6437V23.776H90.4917C90.5797 23.776 90.6557 23.744 90.7197 23.68C90.7757 23.624 90.8037 23.556 90.8037 23.476V16.408H92.2557ZM95.3779 16.408V24.7L94.6339 25.3H93.9139V16.408H95.3779ZM109.35 19.48V23.68C109.35 24.016 109.246 24.3 109.038 24.532C108.782 24.844 108.454 25 108.054 25H101.334C100.814 25 100.366 24.832 99.9902 24.496C99.4863 24.072 99.2343 23.52 99.2343 22.84V20.944L99.9783 20.344H100.698V22.84C100.698 23.12 100.794 23.348 100.986 23.524C101.17 23.692 101.382 23.776 101.622 23.776H107.586C107.786 23.776 107.886 23.676 107.886 23.476V19.48H109.35ZM104.298 25.876C104.514 25.876 104.698 25.952 104.85 26.104C105.002 26.256 105.078 26.44 105.078 26.656C105.078 26.872 105.002 27.056 104.85 27.208C104.698 27.36 104.514 27.436 104.298 27.436C104.082 27.436 103.898 27.36 103.746 27.208C103.594 27.056 103.518 26.872 103.518 26.656C103.518 26.44 103.594 26.256 103.746 26.104C103.898 25.952 104.082 25.876 104.298 25.876ZM112.476 16.408V23.476C112.476 23.556 112.5 23.62 112.548 23.668C112.596 23.74 112.672 23.776 112.776 23.776H113.088V25H112.308C111.98 25 111.692 24.884 111.444 24.652C111.156 24.388 111.012 24.064 111.012 23.68V16.408H112.476ZM115.923 19.612C116.835 19.212 117.727 19.012 118.599 19.012C119.727 19.012 120.587 19.364 121.179 20.068C121.683 20.676 121.935 21.48 121.935 22.48V23.68C121.935 24.04 121.799 24.356 121.527 24.628C121.279 24.876 120.983 25 120.639 25H117.723C117.307 25 117.011 24.956 116.835 24.868H116.787C116.611 24.956 116.315 25 115.899 25H112.995V23.776H115.155C115.019 23.584 114.919 23.38 114.855 23.164C114.775 22.932 114.735 22.672 114.735 22.384C114.735 21.904 114.855 21.48 115.095 21.112C115.295 20.816 115.571 20.592 115.923 20.44V19.612ZM120.471 22.672C120.471 21.776 120.275 21.128 119.883 20.728C119.515 20.36 118.955 20.176 118.203 20.176C117.859 20.176 117.503 20.216 117.135 20.296C117.647 20.368 118.063 20.584 118.383 20.944C118.719 21.32 118.887 21.8 118.887 22.384C118.887 22.648 118.851 22.896 118.779 23.128C118.707 23.376 118.607 23.592 118.479 23.776H120.159C120.247 23.776 120.319 23.752 120.375 23.704C120.439 23.64 120.471 23.564 120.471 23.476V22.672ZM116.799 23.632C117.079 23.6 117.291 23.476 117.435 23.26C117.579 23.052 117.659 22.776 117.675 22.432C117.675 22.048 117.587 21.756 117.411 21.556C117.243 21.364 117.039 21.268 116.799 21.268C116.479 21.268 116.239 21.412 116.079 21.7C115.967 21.908 115.911 22.152 115.911 22.432C115.927 22.752 115.999 23.016 116.127 23.224C116.287 23.464 116.511 23.6 116.799 23.632ZM125.09 16.84C125.298 16.84 125.478 16.916 125.63 17.068C125.782 17.22 125.858 17.404 125.858 17.62C125.858 17.828 125.782 18.008 125.63 18.16C125.478 18.312 125.298 18.388 125.09 18.388C124.874 18.388 124.69 18.312 124.538 18.16C124.386 18.008 124.31 17.828 124.31 17.62C124.31 17.404 124.386 17.22 124.538 17.068C124.69 16.916 124.874 16.84 125.09 16.84ZM124.286 19.408C124.558 19.36 124.874 19.336 125.234 19.336C126.154 19.336 126.898 19.632 127.466 20.224C127.97 20.76 128.222 21.424 128.222 22.216V23.368C128.222 23.552 128.218 23.688 128.21 23.776H128.522V25H128.366L127.97 24.508H127.934C127.87 24.58 127.802 24.648 127.73 24.712C127.49 24.904 127.222 25 126.926 25H123.074V23.776H126.458C126.658 23.776 126.758 23.676 126.758 23.476V22.36C126.758 21.808 126.59 21.364 126.254 21.028C125.942 20.716 125.49 20.548 124.898 20.524C124.626 20.524 124.422 20.54 124.286 20.572V19.408ZM132.053 16.408V23.68C132.053 24.016 131.945 24.304 131.729 24.544C131.481 24.848 131.157 25 130.757 25H128.441V23.776H130.289C130.377 23.776 130.453 23.744 130.517 23.68C130.573 23.624 130.601 23.556 130.601 23.476V16.408H132.053ZM135.175 16.408V24.7L134.431 25.3H133.711V16.408H135.175Z" fill="black"/>
<path fill-rule="evenodd" clip-rule="evenodd" d="M152 13C150.143 13 148.363 13.7375 147.05 15.0503C145.737 16.363 145 18.1435 145 20C145 21.8565 145.737 23.637 147.05 24.9497C148.363 26.2625 150.143 27 152 27C153.857 27 155.637 26.2625 156.95 24.9497C158.263 23.637 159 21.8565 159 20C159 18.1435 158.263 16.363 156.95 15.0503C155.637 13.7375 153.857 13 152 13ZM148 19.5V20.5H156V19.5H148Z" fill="#FF3B30"/>
<rect x="188" width="172" height="40" rx="4" fill="#34C759" fill-opacity="0.12"/>
<path d="M218.203 19.156C218.419 19.156 218.603 19.232 218.755 19.384C218.907 19.536 218.983 19.72 218.983 19.936C218.983 20.152 218.907 20.336 218.755 20.488C218.603 20.64 218.419 20.716 218.203 20.716C217.995 20.716 217.815 20.64 217.663 20.488C217.511 20.336 217.435 20.152 217.435 19.936C217.435 19.72 217.511 19.536 217.663 19.384C217.815 19.232 217.995 19.156 218.203 19.156ZM220.039 19.156C220.247 19.156 220.427 19.232 220.579 19.384C220.731 19.536 220.807 19.72 220.807 19.936C220.807 20.152 220.731 20.336 220.579 20.488C220.427 20.64 220.247 20.716 220.039 20.716C219.823 20.716 219.639 20.64 219.487 20.488C219.335 20.336 219.259 20.152 219.259 19.936C219.259 19.72 219.335 19.536 219.487 19.384C219.639 19.232 219.823 19.156 220.039 19.156ZM224.167 19.48V23.596C224.167 23.676 224.163 23.736 224.155 23.776H224.779V25H224.371L223.915 24.508H223.879C223.631 24.836 223.295 25 222.871 25H216.151C215.639 25 215.195 24.836 214.819 24.508C214.307 24.084 214.051 23.528 214.051 22.84V20.944L214.795 20.344H215.515V22.84C215.515 23.12 215.611 23.348 215.803 23.524C215.987 23.692 216.199 23.776 216.439 23.776H222.367C222.471 23.776 222.559 23.74 222.631 23.668C222.679 23.604 222.703 23.528 222.703 23.44V19.48H224.167ZM227.574 16.84C227.79 16.84 227.974 16.916 228.126 17.068C228.278 17.22 228.354 17.404 228.354 17.62C228.354 17.828 228.278 18.008 228.126 18.16C227.974 18.312 227.79 18.388 227.574 18.388C227.366 18.388 227.186 18.312 227.034 18.16C226.882 18.008 226.806 17.828 226.806 17.62C226.806 17.404 226.882 17.22 227.034 17.068C227.186 16.916 227.366 16.84 227.574 16.84ZM228.306 19.48V23.596V23.776H228.918V25H228.498L228.054 24.508H228.03C227.758 24.836 227.418 25 227.01 25H224.694V23.776H226.506C226.618 23.776 226.698 23.744 226.746 23.68C226.818 23.616 226.854 23.536 226.854 23.44V19.48H228.306ZM234.543 16.24V17.596L232.035 19.12C233.067 19.496 233.895 20.112 234.519 20.968C235.079 21.752 235.359 22.608 235.359 23.536C235.359 23.968 235.235 24.32 234.987 24.592C234.747 24.864 234.435 25 234.051 25H228.819V23.776H233.583C233.791 23.776 233.895 23.672 233.895 23.464C233.831 22.712 233.555 22.056 233.067 21.496C232.411 20.72 231.511 20.272 230.367 20.152C230.311 20.152 230.283 20.12 230.283 20.056V18.688L234.543 16.24ZM240.522 16.408V23.476C240.522 23.556 240.546 23.62 240.594 23.668C240.642 23.74 240.718 23.776 240.822 23.776H241.134V25H240.354C240.026 25 239.738 24.884 239.49 24.652C239.202 24.388 239.058 24.064 239.058 23.68V16.408H240.522ZM243.202 21.556C243.202 20.796 243.466 20.22 243.994 19.828C244.41 19.508 244.978 19.348 245.698 19.348C246.402 19.348 246.998 19.556 247.486 19.972C248.102 20.5 248.41 21.248 248.41 22.216C248.41 23.128 248.166 23.884 247.678 24.484C247.206 25.068 246.594 25.36 245.842 25.36C245.178 25.36 244.654 25.112 244.27 24.616C244.014 24.872 243.702 25 243.334 25H241.042V23.776H242.89C242.978 23.776 243.054 23.744 243.118 23.68C243.174 23.624 243.202 23.556 243.202 23.476V21.556ZM244.654 23.644C244.95 23.964 245.29 24.124 245.674 24.124C246.05 24.124 246.358 23.96 246.598 23.632C246.838 23.296 246.958 22.864 246.958 22.336C246.958 21.76 246.826 21.308 246.562 20.98C246.322 20.7 246.01 20.56 245.626 20.56C245.338 20.56 245.11 20.652 244.942 20.836C244.75 21.012 244.654 21.252 244.654 21.556V23.644ZM255.872 19.336C256.088 19.336 256.272 19.412 256.424 19.564C256.576 19.716 256.652 19.9 256.652 20.116C256.652 20.332 256.576 20.516 256.424 20.668C256.272 20.82 256.088 20.896 255.872 20.896C255.664 20.896 255.484 20.82 255.332 20.668C255.18 20.516 255.104 20.332 255.104 20.116C255.104 19.9 255.18 19.716 255.332 19.564C255.484 19.412 255.664 19.336 255.872 19.336ZM259.952 19.48V23.776H260.552V25H259.94C259.876 25.944 259.52 26.664 258.872 27.16C258.264 27.632 257.488 27.868 256.544 27.868H255.356C254.332 27.868 253.516 27.604 252.908 27.076C252.268 26.516 251.948 25.728 251.948 24.712V22.564L252.692 21.964H253.412V24.58C253.412 25.34 253.6 25.872 253.976 26.176C254.36 26.488 255.02 26.644 255.956 26.644C256.86 26.644 257.496 26.504 257.864 26.224C258.28 25.904 258.488 25.356 258.488 24.58V19.48H259.952ZM264.142 19.48V23.68C264.142 23.992 264.038 24.28 263.83 24.544C263.566 24.848 263.238 25 262.846 25H260.53V23.776H262.378C262.466 23.776 262.542 23.744 262.606 23.68C262.662 23.624 262.69 23.556 262.69 23.476V19.48H264.142ZM261.514 25.876C261.73 25.876 261.914 25.952 262.066 26.104C262.218 26.256 262.294 26.44 262.294 26.656C262.294 26.872 262.218 27.056 262.066 27.208C261.914 27.36 261.73 27.436 261.514 27.436C261.306 27.436 261.126 27.36 260.974 27.208C260.822 27.056 260.746 26.872 260.746 26.656C260.746 26.44 260.822 26.256 260.974 26.104C261.126 25.952 261.306 25.876 261.514 25.876ZM263.35 25.876C263.566 25.876 263.746 25.952 263.89 26.104C264.042 26.256 264.118 26.44 264.118 26.656C264.118 26.872 264.042 27.056 263.89 27.208C263.746 27.36 263.566 27.436 263.35 27.436C263.134 27.436 262.95 27.36 262.798 27.208C262.646 27.056 262.57 26.872 262.57 26.656C262.57 26.44 262.646 26.256 262.798 26.104C262.95 25.952 263.134 25.876 263.35 25.876ZM267.276 16.408V24.7L266.532 25.3H265.812V16.408H267.276ZM272.597 16.408V23.476C272.597 23.556 272.621 23.62 272.669 23.668C272.717 23.74 272.793 23.776 272.897 23.776H273.209V25H272.429C272.101 25 271.813 24.884 271.565 24.652C271.277 24.388 271.133 24.064 271.133 23.68V16.408H272.597ZM276.044 19.612C276.908 19.22 277.784 19.024 278.672 19.024C279.816 19.024 280.68 19.368 281.264 20.056C281.768 20.656 282.02 21.464 282.02 22.48V23.44C282.02 23.472 282.016 23.532 282.008 23.62C282.008 23.692 282.008 23.744 282.008 23.776H282.404V25H282.164L281.756 24.508H281.732C281.652 24.596 281.552 24.688 281.432 24.784C281.224 24.928 280.988 25 280.724 25H277.724C277.388 25 277.132 24.956 276.956 24.868H276.908C276.732 24.956 276.436 25 276.02 25H273.116V23.776H275.276C275.148 23.616 275.044 23.408 274.964 23.152C274.892 22.912 274.856 22.656 274.856 22.384C274.856 21.872 274.988 21.432 275.252 21.064C275.46 20.784 275.724 20.576 276.044 20.44V19.612ZM280.556 22.672C280.556 21.784 280.36 21.14 279.968 20.74C279.6 20.372 279.044 20.188 278.3 20.188C277.972 20.188 277.624 20.224 277.256 20.296C277.832 20.368 278.284 20.624 278.612 21.064C278.876 21.432 279.008 21.872 279.008 22.384C279.008 22.64 278.976 22.884 278.912 23.116C278.832 23.388 278.728 23.608 278.6 23.776H280.244C280.348 23.776 280.424 23.744 280.472 23.68C280.528 23.624 280.556 23.556 280.556 23.476V22.672ZM276.92 23.632C277.184 23.608 277.396 23.488 277.556 23.272C277.716 23.048 277.796 22.768 277.796 22.432C277.796 22.048 277.704 21.752 277.52 21.544C277.36 21.36 277.16 21.268 276.92 21.268C276.688 21.268 276.488 21.352 276.32 21.52C276.128 21.736 276.032 22.04 276.032 22.432C276.04 22.776 276.124 23.056 276.284 23.272C276.444 23.488 276.656 23.608 276.92 23.632ZM284.464 21.556C284.464 20.796 284.728 20.22 285.256 19.828C285.672 19.508 286.24 19.348 286.96 19.348C287.664 19.348 288.26 19.556 288.748 19.972C289.364 20.5 289.672 21.248 289.672 22.216C289.672 23.128 289.428 23.884 288.94 24.484C288.468 25.068 287.856 25.36 287.104 25.36C286.44 25.36 285.916 25.112 285.532 24.616C285.276 24.872 284.964 25 284.596 25H282.304V23.776H284.152C284.24 23.776 284.316 23.744 284.38 23.68C284.436 23.624 284.464 23.556 284.464 23.476V21.556ZM285.916 23.644C286.212 23.964 286.552 24.124 286.936 24.124C287.312 24.124 287.62 23.96 287.86 23.632C288.1 23.296 288.22 22.864 288.22 22.336C288.22 21.76 288.088 21.308 287.824 20.98C287.584 20.7 287.272 20.56 286.888 20.56C286.6 20.56 286.372 20.652 286.204 20.836C286.012 21.012 285.916 21.252 285.916 21.556V23.644ZM291.919 19.408C292.191 19.36 292.507 19.336 292.867 19.336C293.787 19.336 294.531 19.632 295.099 20.224C295.603 20.76 295.855 21.424 295.855 22.216V23.368C295.855 23.552 295.851 23.688 295.843 23.776H296.155V25H295.999L295.603 24.508H295.567C295.503 24.58 295.435 24.648 295.363 24.712C295.123 24.904 294.855 25 294.559 25H290.707V23.776H294.091C294.291 23.776 294.391 23.676 294.391 23.476V22.36C294.391 21.808 294.223 21.364 293.887 21.028C293.575 20.716 293.123 20.548 292.531 20.524C292.259 20.524 292.055 20.54 291.919 20.572V19.408ZM299.853 16.84C300.069 16.84 300.253 16.916 300.405 17.068C300.557 17.22 300.633 17.404 300.633 17.62C300.633 17.828 300.557 18.008 300.405 18.16C300.253 18.312 300.069 18.388 299.853 18.388C299.645 18.388 299.465 18.312 299.313 18.16C299.161 18.008 299.085 17.828 299.085 17.62C299.085 17.404 299.161 17.22 299.313 17.068C299.465 16.916 299.645 16.84 299.853 16.84ZM297.657 19.684C298.417 19.452 299.109 19.336 299.733 19.336C300.701 19.336 301.481 19.64 302.073 20.248C302.609 20.792 302.877 21.48 302.877 22.312V23.596V23.776H303.273V25H303.021L302.625 24.508H302.601C302.329 24.836 301.989 25 301.581 25H296.061V23.776H301.113C301.313 23.776 301.413 23.676 301.413 23.476V22.396C301.413 21.852 301.229 21.416 300.861 21.088C300.501 20.752 300.025 20.584 299.433 20.584C299.041 20.584 298.449 20.672 297.657 20.848V19.684ZM304.351 16.84C304.567 16.84 304.751 16.916 304.903 17.068C305.055 17.22 305.131 17.404 305.131 17.62C305.131 17.828 305.055 18.008 304.903 18.16C304.751 18.312 304.567 18.388 304.351 18.388C304.135 18.388 303.951 18.312 303.799 18.16C303.647 18.008 303.571 17.828 303.571 17.62C303.571 17.404 303.647 17.22 303.799 17.068C303.951 16.916 304.135 16.84 304.351 16.84ZM306.175 16.84C306.391 16.84 306.575 16.916 306.727 17.068C306.879 17.22 306.955 17.404 306.955 17.62C306.955 17.828 306.879 18.008 306.727 18.16C306.575 18.312 306.391 18.388 306.175 18.388C305.967 18.388 305.787 18.312 305.635 18.16C305.483 18.008 305.407 17.828 305.407 17.62C305.407 17.404 305.483 17.22 305.635 17.068C305.787 16.916 305.967 16.84 306.175 16.84ZM306.799 19.48V23.596V23.776H307.411V25H306.991L306.547 24.508H306.523C306.251 24.836 305.911 25 305.503 25H303.187V23.776H304.999C305.111 23.776 305.191 23.744 305.239 23.68C305.311 23.616 305.347 23.536 305.347 23.44V19.48H306.799ZM320.055 19.48V23.68C320.055 24.04 319.927 24.352 319.671 24.616C319.423 24.872 319.119 25 318.759 25H316.239L315.795 24.508H315.759C315.495 24.836 315.159 25 314.751 25H312.231L311.775 24.508H311.739C311.475 24.836 311.139 25 310.731 25H307.323V23.776H310.263C310.463 23.776 310.563 23.676 310.563 23.476V20.86H312.027V23.26C312.027 23.492 312.023 23.664 312.015 23.776H314.283C314.483 23.776 314.583 23.676 314.583 23.476V20.164H316.047V23.368C316.047 23.416 316.043 23.488 316.035 23.584C316.035 23.672 316.035 23.736 316.035 23.776H318.291C318.491 23.776 318.591 23.676 318.591 23.476V19.48H320.055ZM323.175 16.408V24.7L322.431 25.3H321.711V16.408H323.175Z" fill="black"/>
<path d="M339.067 23.0667L343.767 18.3667L342.833 17.4334L339.067 21.2L337.167 19.3L336.233 20.2334L339.067 23.0667ZM340 26.6667C339.078 26.6667 338.211 26.4916 337.4 26.1414C336.589 25.7912 335.883 25.3163 335.283 24.7167C334.683 24.1172 334.208 23.4116 333.859 22.6C333.509 21.7885 333.334 20.9218 333.333 20C333.333 19.0783 333.508 18.2116 333.859 17.4C334.209 16.5885 334.684 15.8829 335.283 15.2834C335.882 14.6838 336.588 14.2089 337.4 13.8587C338.212 13.5085 339.079 13.3334 340 13.3334C340.921 13.3334 341.788 13.5085 342.6 13.8587C343.412 14.2089 344.118 14.6838 344.717 15.2834C345.316 15.8829 345.791 16.5885 346.142 17.4C346.493 18.2116 346.668 19.0783 346.667 20C346.665 20.9218 346.49 21.7885 346.141 22.6C345.792 23.4116 345.318 24.1172 344.717 24.7167C344.116 25.3163 343.41 25.7914 342.6 26.142C341.79 26.4927 340.923 26.6676 340 26.6667Z" fill="#34C759"/>
</svg>
