<svg className="w-[100%] h-auto" width="360" height="40" viewBox="0 0 360 40" fill="none" xmlns="http://www.w3.org/2000/svg">
<rect width="172" height="40" rx="4" fill="#FF3B30" fill-opacity="0.12"/>
<path d="M32.1386 21.592C32.4106 20.808 32.9066 20.212 33.6266 19.804C34.1626 19.5 34.7426 19.348 35.3666 19.348C35.9906 19.348 36.5626 19.516 37.0826 19.852C37.7386 20.252 38.2026 20.832 38.4746 21.592L38.3426 21.928C38.0066 22.08 37.6666 22.328 37.3226 22.672C36.9866 23.04 36.7666 23.408 36.6626 23.776H38.5946V25H35.9546C35.7306 25 35.5266 24.896 35.3426 24.688H35.2826C35.1146 24.872 34.8786 24.984 34.5746 25.024C34.5266 25.032 34.4826 25.04 34.4426 25.048C33.9546 25.128 33.6146 25.32 33.4226 25.624C33.2706 25.856 33.1946 26.168 33.1946 26.56C33.1946 27.728 33.9666 28.312 35.5106 28.312C35.9586 28.312 36.4266 28.244 36.9146 28.108V28.612L36.2786 29.392C36.0146 29.472 35.6466 29.52 35.1746 29.536C34.2226 29.536 33.4386 29.308 32.8226 28.852C32.0946 28.324 31.7306 27.544 31.7306 26.512C31.7306 25.856 31.8866 25.324 32.1986 24.916C32.5826 24.38 33.1786 24.036 33.9866 23.884C33.9066 23.532 33.7106 23.172 33.3986 22.804C33.0706 22.412 32.6946 22.12 32.2706 21.928L32.1386 21.592ZM36.9386 21.496C36.7466 21.16 36.4866 20.912 36.1586 20.752C35.9106 20.632 35.6346 20.572 35.3306 20.572C35.0106 20.572 34.7066 20.64 34.4186 20.776C34.0986 20.936 33.8506 21.176 33.6746 21.496C33.9466 21.616 34.2346 21.856 34.5386 22.216C34.8906 22.592 35.1386 23 35.2826 23.44H35.3306C35.4826 22.992 35.7426 22.564 36.1106 22.156C36.4066 21.828 36.6826 21.608 36.9386 21.496ZM42.1229 19.48V23.596V23.776H42.7349V25H42.3149L41.8709 24.508H41.8469C41.5749 24.836 41.2349 25 40.8269 25H38.5109V23.776H40.3229C40.4349 23.776 40.5149 23.744 40.5629 23.68C40.6349 23.616 40.6709 23.536 40.6709 23.44V19.48H42.1229ZM39.5189 25.876C39.7349 25.876 39.9189 25.952 40.0709 26.104C40.2229 26.256 40.2989 26.44 40.2989 26.656C40.2989 26.872 40.2229 27.056 40.0709 27.208C39.9189 27.36 39.7349 27.436 39.5189 27.436C39.3029 27.436 39.1189 27.36 38.9669 27.208C38.8149 27.056 38.7389 26.872 38.7389 26.656C38.7389 26.44 38.8149 26.256 38.9669 26.104C39.1189 25.952 39.3029 25.876 39.5189 25.876ZM41.3429 25.876C41.5589 25.876 41.7429 25.952 41.8949 26.104C42.0469 26.256 42.1229 26.44 42.1229 26.656C42.1229 26.872 42.0469 27.056 41.8949 27.208C41.7429 27.36 41.5589 27.436 41.3429 27.436C41.1349 27.436 40.9549 27.36 40.8029 27.208C40.6509 27.056 40.5749 26.872 40.5749 26.656C40.5749 26.44 40.6509 26.256 40.8029 26.104C40.9549 25.952 41.1349 25.876 41.3429 25.876ZM44.7836 23.776C44.5916 23.312 44.4956 22.792 44.4956 22.216C44.4956 21.272 44.7876 20.54 45.3716 20.02C45.8596 19.58 46.4836 19.356 47.2436 19.348C47.9236 19.348 48.4796 19.508 48.9116 19.828C49.4396 20.228 49.7036 20.804 49.7036 21.556V23.476C49.7036 23.548 49.7236 23.616 49.7636 23.68C49.8276 23.744 49.8996 23.776 49.9796 23.776H50.0876V25H49.5596C49.1996 25 48.8916 24.872 48.6356 24.616C48.2436 25.112 47.7236 25.36 47.0756 25.36C46.3796 25.36 45.7876 25.104 45.2996 24.592H45.2756L44.9396 25H42.6476V23.776H44.7836ZM48.2396 21.556C48.2396 21.26 48.1476 21.02 47.9636 20.836C47.7956 20.652 47.5556 20.56 47.2436 20.56C46.8516 20.56 46.5356 20.712 46.2956 21.016C46.0636 21.32 45.9476 21.728 45.9476 22.24C45.9476 22.8 46.0676 23.256 46.3076 23.608C46.5476 23.96 46.8556 24.136 47.2316 24.136C47.5756 24.136 47.9116 23.972 48.2396 23.644V21.556ZM51.591 19.684C52.351 19.452 53.043 19.336 53.667 19.336C54.635 19.336 55.415 19.64 56.007 20.248C56.543 20.792 56.811 21.48 56.811 22.312V23.596V23.776H57.207V25H56.955L56.559 24.508H56.535C56.263 24.836 55.923 25 55.515 25H49.995V23.776H55.047C55.247 23.776 55.347 23.676 55.347 23.476V22.396C55.347 21.852 55.163 21.416 54.795 21.088C54.435 20.752 53.959 20.584 53.367 20.584C52.975 20.584 52.383 20.672 51.591 20.848V19.684ZM53.271 25.876C53.487 25.876 53.671 25.952 53.823 26.104C53.975 26.256 54.051 26.44 54.051 26.656C54.051 26.872 53.975 27.056 53.823 27.208C53.671 27.36 53.487 27.436 53.271 27.436C53.063 27.436 52.883 27.36 52.731 27.208C52.579 27.056 52.503 26.872 52.503 26.656C52.503 26.44 52.579 26.256 52.731 26.104C52.883 25.952 53.063 25.876 53.271 25.876ZM60.7323 16.408V23.68C60.7323 24.016 60.6243 24.304 60.4083 24.544C60.1603 24.848 59.8363 25 59.4363 25H57.1202V23.776H58.9683C59.0563 23.776 59.1323 23.744 59.1963 23.68C59.2523 23.624 59.2803 23.556 59.2803 23.476V16.408H60.7323ZM63.8545 16.408V24.7L63.1105 25.3H62.3905V16.408H63.8545ZM71.5868 19.336C71.8028 19.336 71.9868 19.412 72.1388 19.564C72.2908 19.716 72.3668 19.9 72.3668 20.116C72.3668 20.332 72.2908 20.516 72.1388 20.668C71.9868 20.82 71.8028 20.896 71.5868 20.896C71.3788 20.896 71.1988 20.82 71.0468 20.668C70.8948 20.516 70.8188 20.332 70.8188 20.116C70.8188 19.9 70.8948 19.716 71.0468 19.564C71.1988 19.412 71.3788 19.336 71.5868 19.336ZM75.6668 19.48V23.776H76.2668V25H75.6548C75.5908 25.944 75.2348 26.664 74.5868 27.16C73.9788 27.632 73.2028 27.868 72.2588 27.868H71.0708C70.0468 27.868 69.2308 27.604 68.6228 27.076C67.9828 26.516 67.6628 25.728 67.6628 24.712V22.564L68.4068 21.964H69.1268V24.58C69.1268 25.34 69.3148 25.872 69.6908 26.176C70.0748 26.488 70.7348 26.644 71.6708 26.644C72.5748 26.644 73.2108 26.504 73.5788 26.224C73.9948 25.904 74.2028 25.356 74.2028 24.58V19.48H75.6668ZM78.3933 21.556C78.3933 20.796 78.6573 20.22 79.1853 19.828C79.6013 19.508 80.1693 19.348 80.8893 19.348C81.5933 19.348 82.1893 19.556 82.6773 19.972C83.2933 20.5 83.6013 21.248 83.6013 22.216C83.6013 23.128 83.3573 23.884 82.8693 24.484C82.3973 25.068 81.7853 25.36 81.0333 25.36C80.3693 25.36 79.8453 25.112 79.4613 24.616C79.2053 24.872 78.8933 25 78.5253 25H76.2332V23.776H78.0813C78.1693 23.776 78.2453 23.744 78.3093 23.68C78.3653 23.624 78.3933 23.556 78.3933 23.476V21.556ZM79.8453 23.644C80.1413 23.964 80.4813 24.124 80.8653 24.124C81.2413 24.124 81.5493 23.96 81.7893 23.632C82.0293 23.296 82.1493 22.864 82.1493 22.336C82.1493 21.76 82.0173 21.308 81.7533 20.98C81.5133 20.7 81.2013 20.56 80.8173 20.56C80.5293 20.56 80.3013 20.652 80.1333 20.836C79.9413 21.012 79.8453 21.252 79.8453 21.556V23.644ZM97.3154 16.408V23.596C97.3154 23.676 97.3114 23.736 97.3034 23.776H97.9154V25H97.4594L97.0634 24.508H97.0274C96.7794 24.836 96.4434 25 96.0194 25H89.2994C88.7714 25 88.3074 24.82 87.9074 24.46C87.4354 24.028 87.1994 23.488 87.1994 22.84V20.944L87.9434 20.344H88.6634V22.84C88.6634 23.08 88.7394 23.288 88.8914 23.464C89.0834 23.672 89.3154 23.776 89.5874 23.776H95.5514C95.6554 23.776 95.7314 23.744 95.7794 23.68C95.8274 23.632 95.8514 23.564 95.8514 23.476V16.408H97.3154ZM91.3754 20.344C91.2794 20.176 91.2034 19.988 91.1474 19.78C91.1154 19.66 91.0994 19.528 91.0994 19.384C91.1154 18.928 91.2674 18.572 91.5554 18.316C91.8434 18.06 92.2354 17.932 92.7314 17.932C92.9634 17.932 93.1754 17.956 93.3674 18.004V18.688C93.1994 18.64 93.0354 18.616 92.8754 18.616C92.3314 18.616 92.0434 18.888 92.0114 19.432C92.0114 19.608 92.0474 19.776 92.1194 19.936C92.2394 20.208 92.4714 20.344 92.8154 20.344H94.0154V20.656L93.6674 21.088H90.4874V20.344H91.3754ZM98.9952 16.84C99.2112 16.84 99.3952 16.916 99.5472 17.068C99.6992 17.22 99.7752 17.404 99.7752 17.62C99.7752 17.828 99.6992 18.008 99.5472 18.16C99.3952 18.312 99.2112 18.388 98.9952 18.388C98.7792 18.388 98.5952 18.312 98.4432 18.16C98.2912 18.008 98.2152 17.828 98.2152 17.62C98.2152 17.404 98.2912 17.22 98.4432 17.068C98.5952 16.916 98.7792 16.84 98.9952 16.84ZM100.819 16.84C101.035 16.84 101.219 16.916 101.371 17.068C101.523 17.22 101.599 17.404 101.599 17.62C101.599 17.828 101.523 18.008 101.371 18.16C101.219 18.312 101.035 18.388 100.819 18.388C100.611 18.388 100.431 18.312 100.279 18.16C100.127 18.008 100.051 17.828 100.051 17.62C100.051 17.404 100.127 17.22 100.279 17.068C100.431 16.916 100.611 16.84 100.819 16.84ZM101.443 19.48V23.596V23.776H102.055V25H101.635L101.191 24.508H101.167C100.895 24.836 100.555 25 100.147 25H97.8312V23.776H99.6432C99.7552 23.776 99.8352 23.744 99.8832 23.68C99.9552 23.616 99.9912 23.536 99.9912 23.44V19.48H101.443ZM105.58 19.48V23.68C105.58 23.992 105.476 24.28 105.268 24.544C105.004 24.848 104.676 25 104.284 25H101.968V23.776H103.816C103.904 23.776 103.98 23.744 104.044 23.68C104.1 23.624 104.128 23.556 104.128 23.476V19.48H105.58ZM102.952 25.876C103.168 25.876 103.352 25.952 103.504 26.104C103.656 26.256 103.732 26.44 103.732 26.656C103.732 26.872 103.656 27.056 103.504 27.208C103.352 27.36 103.168 27.436 102.952 27.436C102.744 27.436 102.564 27.36 102.412 27.208C102.26 27.056 102.184 26.872 102.184 26.656C102.184 26.44 102.26 26.256 102.412 26.104C102.564 25.952 102.744 25.876 102.952 25.876ZM104.788 25.876C105.004 25.876 105.184 25.952 105.328 26.104C105.48 26.256 105.556 26.44 105.556 26.656C105.556 26.872 105.48 27.056 105.328 27.208C105.184 27.36 105.004 27.436 104.788 27.436C104.572 27.436 104.388 27.36 104.236 27.208C104.084 27.056 104.008 26.872 104.008 26.656C104.008 26.44 104.084 26.256 104.236 26.104C104.388 25.952 104.572 25.876 104.788 25.876ZM109.11 17.86C108.982 17.652 108.918 17.424 108.918 17.176C108.918 16.832 109.018 16.56 109.218 16.36C109.426 16.152 109.698 16.048 110.034 16.048C110.242 16.048 110.446 16.084 110.646 16.156V16.78C110.47 16.732 110.318 16.708 110.19 16.708C109.854 16.708 109.686 16.9 109.686 17.284C109.686 17.428 109.726 17.556 109.806 17.668C109.902 17.796 110.046 17.86 110.238 17.86H111.042V18.16L110.766 18.508H108.642V17.86H109.11ZM110.814 24.952C110.47 25.048 110.134 25.096 109.806 25.096C108.958 25.096 108.27 24.768 107.742 24.112C107.31 23.56 107.094 22.908 107.094 22.156C107.094 21.332 107.338 20.664 107.826 20.152C108.33 19.608 109.014 19.336 109.878 19.336C110.518 19.336 111.054 19.5 111.486 19.828C112.03 20.22 112.302 20.796 112.302 21.556V24.712C112.302 25.744 111.974 26.536 111.318 27.088C110.942 27.408 110.474 27.632 109.914 27.76C109.634 27.824 109.322 27.856 108.978 27.856C108.89 27.856 108.75 27.848 108.558 27.832L107.97 27.1V26.584C108.226 26.624 108.478 26.644 108.726 26.644C110.014 26.644 110.71 26.08 110.814 24.952ZM110.838 21.556C110.838 21.212 110.722 20.948 110.49 20.764C110.33 20.628 110.126 20.56 109.878 20.56C109.462 20.56 109.134 20.704 108.894 20.992C108.662 21.28 108.546 21.676 108.546 22.18C108.546 22.7 108.678 23.112 108.942 23.416C109.214 23.712 109.582 23.86 110.046 23.86C110.302 23.86 110.566 23.812 110.838 23.716V21.556ZM117.149 19.48V24.712C117.149 25.704 116.845 26.472 116.237 27.016C115.845 27.376 115.341 27.628 114.725 27.772C114.437 27.828 114.137 27.856 113.825 27.856C113.721 27.856 113.581 27.848 113.405 27.832L112.817 27.1V26.584C113.073 26.624 113.321 26.644 113.561 26.644C114.977 26.644 115.685 25.956 115.685 24.58V19.48H117.149ZM122.28 23.776C121.944 23.312 121.776 22.744 121.776 22.072C121.784 21.208 122.076 20.52 122.652 20.008C123.148 19.568 123.768 19.344 124.512 19.336C125.232 19.336 125.816 19.52 126.264 19.888C126.744 20.288 126.984 20.844 126.984 21.556V23.476C126.984 23.564 127.012 23.636 127.068 23.692C127.116 23.748 127.176 23.776 127.248 23.776H127.368V25H126.84C126.616 25 126.428 24.96 126.276 24.88C126.124 24.808 125.98 24.7 125.844 24.556C125.668 24.7 125.472 24.8 125.256 24.856C124.968 24.952 124.616 25 124.2 25H122.616C122.416 25 122.316 25.1 122.316 25.3V28.888L121.572 29.476H120.852V25.096C120.852 24.752 120.968 24.452 121.2 24.196C121.464 23.916 121.756 23.776 122.076 23.776H122.28ZM125.52 21.556C125.52 21.268 125.432 21.032 125.256 20.848C125.08 20.656 124.844 20.56 124.548 20.56C124.148 20.56 123.828 20.708 123.588 21.004C123.348 21.292 123.228 21.676 123.228 22.156C123.228 22.676 123.356 23.084 123.612 23.38C123.868 23.668 124.224 23.812 124.68 23.812C124.984 23.812 125.264 23.756 125.52 23.644V21.556ZM128.444 16.84C128.66 16.84 128.844 16.916 128.996 17.068C129.148 17.22 129.224 17.404 129.224 17.62C129.224 17.828 129.148 18.008 128.996 18.16C128.844 18.312 128.66 18.388 128.444 18.388C128.228 18.388 128.044 18.312 127.892 18.16C127.74 18.008 127.664 17.828 127.664 17.62C127.664 17.404 127.74 17.22 127.892 17.068C128.044 16.916 128.228 16.84 128.444 16.84ZM130.268 16.84C130.484 16.84 130.668 16.916 130.82 17.068C130.972 17.22 131.048 17.404 131.048 17.62C131.048 17.828 130.972 18.008 130.82 18.16C130.668 18.312 130.484 18.388 130.268 18.388C130.06 18.388 129.88 18.312 129.728 18.16C129.576 18.008 129.5 17.828 129.5 17.62C129.5 17.404 129.576 17.22 129.728 17.068C129.88 16.916 130.06 16.84 130.268 16.84ZM130.892 19.48V23.596V23.776H131.504V25H131.084L130.64 24.508H130.616C130.344 24.836 130.004 25 129.596 25H127.28V23.776H129.092C129.204 23.776 129.284 23.744 129.332 23.68C129.404 23.616 129.44 23.536 129.44 23.44V19.48H130.892ZM132.569 16.84C132.785 16.84 132.969 16.916 133.121 17.068C133.273 17.22 133.349 17.404 133.349 17.62C133.349 17.828 133.273 18.008 133.121 18.16C132.969 18.312 132.785 18.388 132.569 18.388C132.353 18.388 132.169 18.312 132.017 18.16C131.865 18.008 131.789 17.828 131.789 17.62C131.789 17.404 131.865 17.22 132.017 17.068C132.169 16.916 132.353 16.84 132.569 16.84ZM134.393 16.84C134.609 16.84 134.793 16.916 134.945 17.068C135.097 17.22 135.173 17.404 135.173 17.62C135.173 17.828 135.097 18.008 134.945 18.16C134.793 18.312 134.609 18.388 134.393 18.388C134.185 18.388 134.005 18.312 133.853 18.16C133.701 18.008 133.625 17.828 133.625 17.62C133.625 17.404 133.701 17.22 133.853 17.068C134.005 16.916 134.185 16.84 134.393 16.84ZM135.017 19.48V23.68C135.017 23.992 134.913 24.28 134.705 24.544C134.441 24.848 134.113 25 133.721 25H131.405V23.776H133.253C133.341 23.776 133.417 23.744 133.481 23.68C133.537 23.624 133.565 23.556 133.565 23.476V19.48H135.017Z" fill="black"/>
<path fill-rule="evenodd" clip-rule="evenodd" d="M152 13C150.143 13 148.363 13.7375 147.05 15.0503C145.737 16.363 145 18.1435 145 20C145 21.8565 145.737 23.637 147.05 24.9497C148.363 26.2625 150.143 27 152 27C153.857 27 155.637 26.2625 156.95 24.9497C158.263 23.637 159 21.8565 159 20C159 18.1435 158.263 16.363 156.95 15.0503C155.637 13.7375 153.857 13 152 13ZM148 19.5V20.5H156V19.5H148Z" fill="#FF3B30"/>
<rect x="188" width="172" height="40" rx="4" fill="#34C759" fill-opacity="0.12"/>
<path d="M238.778 19.156V23.476C238.778 23.572 238.806 23.644 238.862 23.692C238.91 23.748 238.974 23.776 239.054 23.776H239.39V25H238.634C238.266 25 237.934 24.852 237.638 24.556C237.182 24.932 236.674 25.12 236.114 25.12C235.482 25.12 234.938 24.92 234.482 24.52C233.874 23.952 233.57 23.192 233.57 22.24C233.57 21.368 233.85 20.644 234.41 20.068C234.922 19.548 235.55 19.288 236.294 19.288C236.71 19.288 237.126 19.376 237.542 19.552L238.058 19.156H238.778ZM237.314 20.704C237.034 20.6 236.766 20.548 236.51 20.548C236.078 20.548 235.722 20.708 235.442 21.028C235.162 21.34 235.022 21.748 235.022 22.252C235.022 22.756 235.146 23.16 235.394 23.464C235.65 23.768 235.99 23.92 236.414 23.92C236.702 23.92 237.002 23.856 237.314 23.728V20.704ZM242.92 19.48V23.596V23.776H243.532V25H243.112L242.668 24.508H242.644C242.372 24.836 242.032 25 241.624 25H239.308V23.776H241.12C241.232 23.776 241.312 23.744 241.36 23.68C241.432 23.616 241.468 23.536 241.468 23.44V19.48H242.92ZM240.316 25.876C240.532 25.876 240.716 25.952 240.868 26.104C241.02 26.256 241.096 26.44 241.096 26.656C241.096 26.872 241.02 27.056 240.868 27.208C240.716 27.36 240.532 27.436 240.316 27.436C240.1 27.436 239.916 27.36 239.764 27.208C239.612 27.056 239.536 26.872 239.536 26.656C239.536 26.44 239.612 26.256 239.764 26.104C239.916 25.952 240.1 25.876 240.316 25.876ZM242.14 25.876C242.356 25.876 242.54 25.952 242.692 26.104C242.844 26.256 242.92 26.44 242.92 26.656C242.92 26.872 242.844 27.056 242.692 27.208C242.54 27.36 242.356 27.436 242.14 27.436C241.932 27.436 241.752 27.36 241.6 27.208C241.448 27.056 241.372 26.872 241.372 26.656C241.372 26.44 241.448 26.256 241.6 26.104C241.752 25.952 241.932 25.876 242.14 25.876ZM245.58 23.776C245.388 23.312 245.292 22.792 245.292 22.216C245.292 21.272 245.584 20.54 246.168 20.02C246.656 19.58 247.28 19.356 248.04 19.348C248.72 19.348 249.276 19.508 249.708 19.828C250.236 20.228 250.5 20.804 250.5 21.556V23.476C250.5 23.548 250.52 23.616 250.56 23.68C250.624 23.744 250.696 23.776 250.776 23.776H250.884V25H250.356C249.996 25 249.688 24.872 249.432 24.616C249.04 25.112 248.52 25.36 247.872 25.36C247.176 25.36 246.584 25.104 246.096 24.592H246.072L245.736 25H243.444V23.776H245.58ZM249.036 21.556C249.036 21.26 248.944 21.02 248.76 20.836C248.592 20.652 248.352 20.56 248.04 20.56C247.648 20.56 247.332 20.712 247.092 21.016C246.86 21.32 246.744 21.728 246.744 22.24C246.744 22.8 246.864 23.256 247.104 23.608C247.344 23.96 247.652 24.136 248.028 24.136C248.372 24.136 248.708 23.972 249.036 23.644V21.556ZM252.388 19.684C253.148 19.452 253.84 19.336 254.464 19.336C255.432 19.336 256.212 19.64 256.804 20.248C257.34 20.792 257.608 21.48 257.608 22.312V23.596V23.776H258.004V25H257.752L257.356 24.508H257.332C257.06 24.836 256.72 25 256.312 25H250.792V23.776H255.844C256.044 23.776 256.144 23.676 256.144 23.476V22.396C256.144 21.852 255.96 21.416 255.592 21.088C255.232 20.752 254.756 20.584 254.164 20.584C253.772 20.584 253.18 20.672 252.388 20.848V19.684ZM260.065 21.556C260.065 20.796 260.329 20.22 260.857 19.828C261.273 19.508 261.841 19.348 262.561 19.348C263.265 19.348 263.861 19.556 264.349 19.972C264.965 20.5 265.273 21.248 265.273 22.216C265.273 23.128 265.029 23.884 264.541 24.484C264.069 25.068 263.457 25.36 262.705 25.36C262.041 25.36 261.517 25.112 261.133 24.616C260.877 24.872 260.565 25 260.197 25H257.905V23.776H259.753C259.841 23.776 259.917 23.744 259.981 23.68C260.037 23.624 260.065 23.556 260.065 23.476V21.556ZM261.517 23.644C261.813 23.964 262.153 24.124 262.537 24.124C262.913 24.124 263.221 23.96 263.461 23.632C263.701 23.296 263.821 22.864 263.821 22.336C263.821 21.76 263.689 21.308 263.425 20.98C263.185 20.7 262.873 20.56 262.489 20.56C262.201 20.56 261.973 20.652 261.805 20.836C261.613 21.012 261.517 21.252 261.517 21.556V23.644ZM278.987 16.408V23.596C278.987 23.676 278.983 23.736 278.975 23.776H279.587V25H279.131L278.735 24.508H278.699C278.451 24.836 278.115 25 277.691 25H270.971C270.443 25 269.979 24.82 269.579 24.46C269.107 24.028 268.871 23.488 268.871 22.84V20.944L269.615 20.344H270.335V22.84C270.335 23.08 270.411 23.288 270.563 23.464C270.755 23.672 270.987 23.776 271.259 23.776H277.223C277.327 23.776 277.403 23.744 277.451 23.68C277.499 23.632 277.523 23.564 277.523 23.476V16.408H278.987ZM273.047 20.344C272.951 20.176 272.875 19.988 272.819 19.78C272.787 19.66 272.771 19.528 272.771 19.384C272.787 18.928 272.939 18.572 273.227 18.316C273.515 18.06 273.907 17.932 274.403 17.932C274.635 17.932 274.847 17.956 275.039 18.004V18.688C274.871 18.64 274.707 18.616 274.547 18.616C274.003 18.616 273.715 18.888 273.683 19.432C273.683 19.608 273.719 19.776 273.791 19.936C273.911 20.208 274.143 20.344 274.487 20.344H275.687V20.656L275.339 21.088H272.159V20.344H273.047ZM280.667 16.84C280.883 16.84 281.067 16.916 281.219 17.068C281.371 17.22 281.447 17.404 281.447 17.62C281.447 17.828 281.371 18.008 281.219 18.16C281.067 18.312 280.883 18.388 280.667 18.388C280.451 18.388 280.267 18.312 280.115 18.16C279.963 18.008 279.887 17.828 279.887 17.62C279.887 17.404 279.963 17.22 280.115 17.068C280.267 16.916 280.451 16.84 280.667 16.84ZM282.491 16.84C282.707 16.84 282.891 16.916 283.043 17.068C283.195 17.22 283.271 17.404 283.271 17.62C283.271 17.828 283.195 18.008 283.043 18.16C282.891 18.312 282.707 18.388 282.491 18.388C282.283 18.388 282.103 18.312 281.951 18.16C281.799 18.008 281.723 17.828 281.723 17.62C281.723 17.404 281.799 17.22 281.951 17.068C282.103 16.916 282.283 16.84 282.491 16.84ZM283.115 19.48V23.596V23.776H283.727V25H283.307L282.863 24.508H282.839C282.567 24.836 282.227 25 281.819 25H279.503V23.776H281.315C281.427 23.776 281.507 23.744 281.555 23.68C281.627 23.616 281.663 23.536 281.663 23.44V19.48H283.115ZM287.252 19.48V23.596V23.776H287.864V25H287.444L287 24.508H286.976C286.704 24.836 286.364 25 285.956 25H283.64V23.776H285.452C285.564 23.776 285.644 23.744 285.692 23.68C285.764 23.616 285.8 23.536 285.8 23.44V19.48H287.252ZM284.648 25.876C284.864 25.876 285.048 25.952 285.2 26.104C285.352 26.256 285.428 26.44 285.428 26.656C285.428 26.872 285.352 27.056 285.2 27.208C285.048 27.36 284.864 27.436 284.648 27.436C284.432 27.436 284.248 27.36 284.096 27.208C283.944 27.056 283.868 26.872 283.868 26.656C283.868 26.44 283.944 26.256 284.096 26.104C284.248 25.952 284.432 25.876 284.648 25.876ZM286.472 25.876C286.688 25.876 286.872 25.952 287.024 26.104C287.176 26.256 287.252 26.44 287.252 26.656C287.252 26.872 287.176 27.056 287.024 27.208C286.872 27.36 286.688 27.436 286.472 27.436C286.264 27.436 286.084 27.36 285.932 27.208C285.78 27.056 285.704 26.872 285.704 26.656C285.704 26.44 285.78 26.256 285.932 26.104C286.084 25.952 286.264 25.876 286.472 25.876ZM291.377 21.496C292.449 20.048 293.773 19.324 295.349 19.324C296.309 19.324 297.101 19.624 297.725 20.224C298.293 20.776 298.577 21.464 298.577 22.288V23.68C298.577 24.04 298.453 24.344 298.205 24.592C297.957 24.864 297.649 25 297.281 25H287.764V23.776H289.925V19.48H291.377V21.496ZM297.113 22.36C297.113 21.864 296.953 21.464 296.633 21.16C296.249 20.776 295.745 20.584 295.121 20.584C294.505 20.584 293.905 20.788 293.321 21.196C292.537 21.74 291.889 22.6 291.377 23.776H296.813C297.013 23.776 297.113 23.676 297.113 23.476V22.36ZM302.622 25C301.742 25 301.05 24.7 300.546 24.1C300.122 23.588 299.91 22.956 299.91 22.204C299.91 21.308 300.162 20.608 300.666 20.104C301.194 19.592 301.87 19.336 302.694 19.336C303.294 19.336 303.814 19.484 304.254 19.78C304.83 20.196 305.118 20.788 305.118 21.556V23.776H305.502V25H305.106C305.05 25.864 304.746 26.54 304.194 27.028C303.81 27.372 303.35 27.608 302.814 27.736C302.438 27.824 302.07 27.868 301.71 27.868C301.59 27.868 301.418 27.86 301.194 27.844H301.158L300.546 27.088V26.56C300.874 26.616 301.182 26.644 301.47 26.644C302.782 26.644 303.498 26.096 303.618 25H302.622ZM303.654 21.556C303.654 21.236 303.55 20.984 303.342 20.8C303.158 20.64 302.942 20.56 302.694 20.56C302.286 20.56 301.962 20.704 301.722 20.992C301.482 21.28 301.362 21.676 301.362 22.18C301.362 22.668 301.494 23.056 301.758 23.344C302.022 23.632 302.382 23.776 302.838 23.776H303.654V21.556ZM309.025 21.496C310.097 20.048 311.421 19.324 312.997 19.324C313.957 19.324 314.749 19.624 315.373 20.224C315.941 20.768 316.225 21.456 316.225 22.288V23.392C316.225 23.44 316.221 23.508 316.213 23.596C316.213 23.676 316.213 23.736 316.213 23.776H316.609V25H316.369L315.973 24.508H315.937C315.673 24.836 315.333 25 314.917 25H305.413V23.776H307.573L307.561 19.48H309.025V21.496ZM314.761 22.36C314.753 21.784 314.533 21.328 314.101 20.992C313.733 20.72 313.289 20.584 312.769 20.584C311.969 20.584 311.229 20.916 310.549 21.58C309.925 22.1 309.417 22.832 309.025 23.776H314.461C314.661 23.776 314.761 23.676 314.761 23.476V22.36ZM320.315 16.84C320.531 16.84 320.715 16.916 320.867 17.068C321.019 17.22 321.095 17.404 321.095 17.62C321.095 17.828 321.019 18.008 320.867 18.16C320.715 18.312 320.531 18.388 320.315 18.388C320.107 18.388 319.927 18.312 319.775 18.16C319.623 18.008 319.547 17.828 319.547 17.62C319.547 17.404 319.623 17.22 319.775 17.068C319.927 16.916 320.107 16.84 320.315 16.84ZM318.119 19.684C318.911 19.452 319.603 19.336 320.195 19.336C321.163 19.336 321.943 19.64 322.535 20.248C323.071 20.8 323.339 21.488 323.339 22.312V23.68C323.339 24.008 323.227 24.304 323.003 24.568C322.739 24.856 322.419 25 322.043 25H316.523V23.776H321.575C321.775 23.776 321.875 23.676 321.875 23.476V22.396C321.875 21.836 321.691 21.396 321.323 21.076C320.963 20.756 320.463 20.596 319.823 20.596C319.455 20.596 318.887 20.68 318.119 20.848V19.684Z" fill="black"/>
<path d="M339.067 23.0667L343.767 18.3667L342.833 17.4334L339.067 21.2L337.167 19.3L336.233 20.2334L339.067 23.0667ZM340 26.6667C339.078 26.6667 338.211 26.4916 337.4 26.1414C336.589 25.7912 335.883 25.3163 335.283 24.7167C334.683 24.1172 334.208 23.4116 333.859 22.6C333.509 21.7885 333.334 20.9218 333.333 20C333.333 19.0783 333.508 18.2116 333.859 17.4C334.209 16.5885 334.684 15.8829 335.283 15.2834C335.882 14.6838 336.588 14.2089 337.4 13.8587C338.212 13.5085 339.079 13.3334 340 13.3334C340.921 13.3334 341.788 13.5085 342.6 13.8587C343.412 14.2089 344.118 14.6838 344.717 15.2834C345.316 15.8829 345.791 16.5885 346.142 17.4C346.493 18.2116 346.668 19.0783 346.667 20C346.665 20.9218 346.49 21.7885 346.141 22.6C345.792 23.4116 345.318 24.1172 344.717 24.7167C344.116 25.3163 343.41 25.7914 342.6 26.142C341.79 26.4927 340.923 26.6676 340 26.6667Z" fill="#34C759"/>
</svg>
