<svg className="w-[100%] h-auto"  width="360" height="40" viewBox="0 0 360 40" fill="none" xmlns="http://www.w3.org/2000/svg">
<rect width="172" height="40" rx="4" fill="#FF3B30" fill-opacity="0.12"/>
<path d="M18.3364 19.48V24.712C18.3364 25.704 18.0324 26.472 17.4244 27.016C17.0324 27.376 16.5284 27.628 15.9124 27.772C15.6244 27.828 15.3244 27.856 15.0124 27.856C14.9084 27.856 14.7684 27.848 14.5924 27.832L14.0044 27.1V26.584C14.2604 26.624 14.5084 26.644 14.7484 26.644C16.1644 26.644 16.8724 25.956 16.8724 24.58V19.48H18.3364ZM20.8561 19.408C21.1281 19.36 21.4441 19.336 21.8041 19.336C22.7241 19.336 23.4681 19.632 24.0361 20.224C24.5401 20.76 24.7921 21.424 24.7921 22.216V23.368C24.7921 23.552 24.7881 23.688 24.7801 23.776H25.0921V25H24.9361L24.5401 24.508H24.5041C24.4401 24.58 24.3721 24.648 24.3001 24.712C24.0601 24.904 23.7921 25 23.4961 25H19.6441V23.776H23.0281C23.2281 23.776 23.3281 23.676 23.3281 23.476V22.36C23.3281 21.808 23.1601 21.364 22.8241 21.028C22.5121 20.716 22.0601 20.548 21.4681 20.524C21.1961 20.524 20.9921 20.54 20.8561 20.572V19.408ZM28.6229 21.496C29.6949 20.048 31.0189 19.324 32.5949 19.324C33.5549 19.324 34.3469 19.624 34.9709 20.224C35.5389 20.768 35.8229 21.456 35.8229 22.288V23.392C35.8229 23.44 35.8189 23.508 35.8109 23.596C35.8109 23.676 35.8109 23.736 35.8109 23.776H36.2069V25H35.9669L35.5709 24.508H35.5349C35.2709 24.836 34.9309 25 34.5149 25H25.0109V23.776H27.1709L27.1589 19.48H28.6229V21.496ZM34.3589 22.36C34.3509 21.784 34.1309 21.328 33.6989 20.992C33.3309 20.72 32.8869 20.584 32.3669 20.584C31.5669 20.584 30.8269 20.916 30.1469 21.58C29.5229 22.1 29.0149 22.832 28.6229 23.776H34.0589C34.2589 23.776 34.3589 23.676 34.3589 23.476V22.36ZM38.2563 23.776C38.0643 23.312 37.9683 22.792 37.9683 22.216C37.9683 21.272 38.2603 20.54 38.8443 20.02C39.3323 19.58 39.9563 19.356 40.7163 19.348C41.3963 19.348 41.9523 19.508 42.3843 19.828C42.9123 20.228 43.1763 20.804 43.1763 21.556V23.476C43.1763 23.548 43.1963 23.616 43.2363 23.68C43.3003 23.744 43.3723 23.776 43.4523 23.776H43.5603V25H43.0323C42.6723 25 42.3643 24.872 42.1083 24.616C41.7163 25.112 41.1963 25.36 40.5483 25.36C39.8523 25.36 39.2603 25.104 38.7723 24.592H38.7483L38.4123 25H36.1202V23.776H38.2563ZM41.7123 21.556C41.7123 21.26 41.6203 21.02 41.4363 20.836C41.2683 20.652 41.0283 20.56 40.7163 20.56C40.3243 20.56 40.0083 20.712 39.7683 21.016C39.5363 21.32 39.4203 21.728 39.4203 22.24C39.4203 22.8 39.5403 23.256 39.7803 23.608C40.0203 23.96 40.3283 24.136 40.7043 24.136C41.0483 24.136 41.3843 23.972 41.7123 23.644V21.556ZM47.0916 16.408V23.68C47.0916 24.016 46.9836 24.304 46.7676 24.544C46.5196 24.848 46.1956 25 45.7956 25H43.4796V23.776H45.3276C45.4156 23.776 45.4916 23.744 45.5556 23.68C45.6116 23.624 45.6396 23.556 45.6396 23.476V16.408H47.0916ZM50.2139 16.408V24.7L49.4699 25.3H48.7499V16.408H50.2139ZM56.5062 16.84C56.7222 16.84 56.9062 16.916 57.0582 17.068C57.2102 17.22 57.2862 17.404 57.2862 17.62C57.2862 17.828 57.2102 18.008 57.0582 18.16C56.9062 18.312 56.7222 18.388 56.5062 18.388C56.2902 18.388 56.1062 18.312 55.9542 18.16C55.8022 18.008 55.7262 17.828 55.7262 17.62C55.7262 17.404 55.8022 17.22 55.9542 17.068C56.1062 16.916 56.2902 16.84 56.5062 16.84ZM58.3302 16.84C58.5462 16.84 58.7302 16.916 58.8822 17.068C59.0342 17.22 59.1102 17.404 59.1102 17.62C59.1102 17.828 59.0342 18.008 58.8822 18.16C58.7302 18.312 58.5462 18.388 58.3302 18.388C58.1222 18.388 57.9422 18.312 57.7902 18.16C57.6382 18.008 57.5622 17.828 57.5622 17.62C57.5622 17.404 57.6382 17.22 57.7902 17.068C57.9422 16.916 58.1222 16.84 58.3302 16.84ZM59.1102 19.156V23.476C59.1102 23.572 59.1382 23.644 59.1942 23.692C59.2422 23.748 59.3062 23.776 59.3862 23.776H59.7222V25H58.9662C58.5982 25 58.2662 24.852 57.9702 24.556C57.5142 24.932 57.0062 25.12 56.4462 25.12C55.8142 25.12 55.2702 24.92 54.8142 24.52C54.2062 23.952 53.9022 23.192 53.9022 22.24C53.9022 21.368 54.1822 20.644 54.7422 20.068C55.2542 19.548 55.8822 19.288 56.6262 19.288C57.0422 19.288 57.4582 19.376 57.8742 19.552L58.3902 19.156H59.1102ZM57.6462 20.704C57.3662 20.6 57.0982 20.548 56.8422 20.548C56.4102 20.548 56.0542 20.708 55.7742 21.028C55.4942 21.34 55.3542 21.748 55.3542 22.252C55.3542 22.756 55.4782 23.16 55.7262 23.464C55.9822 23.768 56.3222 23.92 56.7462 23.92C57.0342 23.92 57.3342 23.856 57.6462 23.728V20.704ZM61.7758 23.776C61.5838 23.312 61.4878 22.792 61.4878 22.216C61.4878 21.272 61.7798 20.54 62.3638 20.02C62.8518 19.58 63.4758 19.356 64.2358 19.348C64.9158 19.348 65.4718 19.508 65.9038 19.828C66.4318 20.228 66.6958 20.804 66.6958 21.556V23.476C66.6958 23.548 66.7158 23.616 66.7558 23.68C66.8198 23.744 66.8918 23.776 66.9718 23.776H67.0798V25H66.5518C66.1918 25 65.8838 24.872 65.6278 24.616C65.2358 25.112 64.7158 25.36 64.0678 25.36C63.3718 25.36 62.7798 25.104 62.2918 24.592H62.2678L61.9318 25H59.6398V23.776H61.7758ZM65.2318 21.556C65.2318 21.26 65.1398 21.02 64.9558 20.836C64.7878 20.652 64.5478 20.56 64.2358 20.56C63.8438 20.56 63.5278 20.712 63.2878 21.016C63.0558 21.32 62.9398 21.728 62.9398 22.24C62.9398 22.8 63.0598 23.256 63.2998 23.608C63.5398 23.96 63.8478 24.136 64.2238 24.136C64.5678 24.136 64.9038 23.972 65.2318 23.644V21.556ZM70.6112 19.48V23.68C70.6112 23.992 70.5072 24.28 70.2992 24.544C70.0352 24.848 69.7072 25 69.3152 25H66.9992V23.776H68.8472C68.9352 23.776 69.0112 23.744 69.0752 23.68C69.1312 23.624 69.1592 23.556 69.1592 23.476V19.48H70.6112ZM67.9832 25.876C68.1992 25.876 68.3832 25.952 68.5352 26.104C68.6872 26.256 68.7632 26.44 68.7632 26.656C68.7632 26.872 68.6872 27.056 68.5352 27.208C68.3832 27.36 68.1992 27.436 67.9832 27.436C67.7752 27.436 67.5952 27.36 67.4432 27.208C67.2912 27.056 67.2152 26.872 67.2152 26.656C67.2152 26.44 67.2912 26.256 67.4432 26.104C67.5952 25.952 67.7752 25.876 67.9832 25.876ZM69.8192 25.876C70.0352 25.876 70.2152 25.952 70.3592 26.104C70.5112 26.256 70.5872 26.44 70.5872 26.656C70.5872 26.872 70.5112 27.056 70.3592 27.208C70.2152 27.36 70.0352 27.436 69.8192 27.436C69.6032 27.436 69.4192 27.36 69.2672 27.208C69.1152 27.056 69.0392 26.872 69.0392 26.656C69.0392 26.44 69.1152 26.256 69.2672 26.104C69.4192 25.952 69.6032 25.876 69.8192 25.876ZM73.1451 19.408C73.4171 19.36 73.7331 19.336 74.0931 19.336C75.0131 19.336 75.7571 19.632 76.3251 20.224C76.8291 20.76 77.0811 21.424 77.0811 22.216V23.368C77.0811 23.552 77.0771 23.688 77.0691 23.776H77.3811V25H77.2251L76.8291 24.508H76.7931C76.7291 24.58 76.6611 24.648 76.5891 24.712C76.3491 24.904 76.0811 25 75.7851 25H71.9331V23.776H75.3171C75.5171 23.776 75.6171 23.676 75.6171 23.476V22.36C75.6171 21.808 75.4491 21.364 75.1131 21.028C74.8011 20.716 74.3491 20.548 73.7571 20.524C73.4851 20.524 73.2811 20.54 73.1451 20.572V19.408ZM81.0439 16.84C81.2599 16.84 81.4439 16.916 81.5959 17.068C81.7479 17.22 81.8239 17.404 81.8239 17.62C81.8239 17.828 81.7479 18.008 81.5959 18.16C81.4439 18.312 81.2599 18.388 81.0439 18.388C80.8359 18.388 80.6559 18.312 80.5039 18.16C80.3519 18.008 80.2759 17.828 80.2759 17.62C80.2759 17.404 80.3519 17.22 80.5039 17.068C80.6559 16.916 80.8359 16.84 81.0439 16.84ZM82.8679 16.84C83.0839 16.84 83.2679 16.916 83.4199 17.068C83.5719 17.22 83.6479 17.404 83.6479 17.62C83.6479 17.828 83.5719 18.008 83.4199 18.16C83.2679 18.312 83.0839 18.388 82.8679 18.388C82.6599 18.388 82.4799 18.312 82.3279 18.16C82.1759 18.008 82.0999 17.828 82.0999 17.62C82.0999 17.404 82.1759 17.22 82.3279 17.068C82.4799 16.916 82.6599 16.84 82.8679 16.84ZM79.7119 23.776C79.5279 23.544 79.3839 23.268 79.2799 22.948C79.1919 22.644 79.1479 22.34 79.1479 22.036C79.1479 21.332 79.3519 20.744 79.7599 20.272C80.2799 19.648 81.0119 19.336 81.9559 19.336C82.6279 19.336 83.1879 19.516 83.6359 19.876C84.1239 20.292 84.3679 20.852 84.3679 21.556V23.68C84.3679 24.008 84.2599 24.3 84.0439 24.556C83.7879 24.852 83.4639 25 83.0719 25H77.2999V23.776H79.7119ZM82.9039 21.556C82.9039 21.228 82.7919 20.964 82.5679 20.764C82.3919 20.628 82.1879 20.56 81.9559 20.56C81.4359 20.56 81.0599 20.764 80.8279 21.172C80.6759 21.428 80.5999 21.752 80.5999 22.144C80.5999 22.68 80.7679 23.1 81.1039 23.404C81.3759 23.652 81.7319 23.776 82.1719 23.776H82.6039C82.8039 23.776 82.9039 23.676 82.9039 23.476V21.556ZM92.2066 19.156C92.4226 19.156 92.6066 19.232 92.7586 19.384C92.9106 19.536 92.9866 19.72 92.9866 19.936C92.9866 20.152 92.9106 20.336 92.7586 20.488C92.6066 20.64 92.4226 20.716 92.2066 20.716C91.9986 20.716 91.8186 20.64 91.6666 20.488C91.5146 20.336 91.4386 20.152 91.4386 19.936C91.4386 19.72 91.5146 19.536 91.6666 19.384C91.8186 19.232 91.9986 19.156 92.2066 19.156ZM94.0426 19.156C94.2506 19.156 94.4306 19.232 94.5826 19.384C94.7346 19.536 94.8106 19.72 94.8106 19.936C94.8106 20.152 94.7346 20.336 94.5826 20.488C94.4306 20.64 94.2506 20.716 94.0426 20.716C93.8266 20.716 93.6426 20.64 93.4906 20.488C93.3386 20.336 93.2626 20.152 93.2626 19.936C93.2626 19.72 93.3386 19.536 93.4906 19.384C93.6426 19.232 93.8266 19.156 94.0426 19.156ZM98.1706 19.48V23.68C98.1706 24.016 98.0666 24.3 97.8586 24.532C97.6026 24.844 97.2746 25 96.8746 25H90.1546C89.6346 25 89.1866 24.832 88.8106 24.496C88.3066 24.072 88.0546 23.52 88.0546 22.84V20.944L88.7986 20.344H89.5186V22.84C89.5186 23.12 89.6146 23.348 89.8066 23.524C89.9906 23.692 90.2026 23.776 90.4426 23.776H96.4066C96.6066 23.776 96.7066 23.676 96.7066 23.476V19.48H98.1706ZM101.296 16.408V23.476C101.296 23.556 101.32 23.62 101.368 23.668C101.416 23.74 101.492 23.776 101.596 23.776H101.908V25H101.128C100.8 25 100.512 24.884 100.264 24.652C99.9759 24.388 99.8319 24.064 99.8319 23.68V16.408H101.296ZM103.975 21.556C103.975 20.796 104.239 20.22 104.767 19.828C105.183 19.508 105.751 19.348 106.471 19.348C107.175 19.348 107.771 19.556 108.259 19.972C108.875 20.5 109.183 21.248 109.183 22.216C109.183 23.128 108.939 23.884 108.451 24.484C107.979 25.068 107.367 25.36 106.615 25.36C105.951 25.36 105.427 25.112 105.043 24.616C104.787 24.872 104.475 25 104.107 25H101.815V23.776H103.663C103.751 23.776 103.827 23.744 103.891 23.68C103.947 23.624 103.975 23.556 103.975 23.476V21.556ZM105.427 23.644C105.723 23.964 106.063 24.124 106.447 24.124C106.823 24.124 107.131 23.96 107.371 23.632C107.611 23.296 107.731 22.864 107.731 22.336C107.731 21.76 107.599 21.308 107.335 20.98C107.095 20.7 106.783 20.56 106.399 20.56C106.111 20.56 105.883 20.652 105.715 20.836C105.523 21.012 105.427 21.252 105.427 21.556V23.644ZM113.122 25C112.242 25 111.55 24.7 111.046 24.1C110.622 23.588 110.41 22.956 110.41 22.204C110.41 21.308 110.662 20.608 111.166 20.104C111.694 19.592 112.37 19.336 113.194 19.336C113.794 19.336 114.314 19.484 114.754 19.78C115.33 20.196 115.618 20.788 115.618 21.556V23.776H116.002V25H115.606C115.55 25.864 115.246 26.54 114.694 27.028C114.31 27.372 113.85 27.608 113.314 27.736C112.938 27.824 112.57 27.868 112.21 27.868C112.09 27.868 111.918 27.86 111.694 27.844H111.658L111.046 27.088V26.56C111.374 26.616 111.682 26.644 111.97 26.644C113.282 26.644 113.998 26.096 114.118 25H113.122ZM114.154 21.556C114.154 21.236 114.05 20.984 113.842 20.8C113.658 20.64 113.442 20.56 113.194 20.56C112.786 20.56 112.462 20.704 112.222 20.992C111.982 21.28 111.862 21.676 111.862 22.18C111.862 22.668 111.994 23.056 112.258 23.344C112.522 23.632 112.882 23.776 113.338 23.776H114.154V21.556ZM119.525 16.408V23.596V23.776H120.137V25H119.729L119.273 24.508H119.249C118.977 24.836 118.637 25 118.229 25H115.913V23.776H117.761C117.857 23.776 117.937 23.744 118.001 23.68C118.049 23.6 118.073 23.532 118.073 23.476V16.408H119.525ZM121.718 21.592C121.99 20.808 122.486 20.212 123.206 19.804C123.742 19.5 124.322 19.348 124.946 19.348C125.57 19.348 126.142 19.516 126.662 19.852C127.31 20.244 127.774 20.824 128.054 21.592L127.91 21.928C127.59 22.072 127.254 22.32 126.902 22.672C126.566 23.04 126.346 23.408 126.242 23.776H128.174V25H125.534C125.31 25 125.106 24.896 124.922 24.688H124.862C124.678 24.896 124.466 25 124.226 25H120.05V23.776H123.53C123.434 23.448 123.23 23.1 122.918 22.732C122.574 22.348 122.218 22.08 121.85 21.928L121.718 21.592ZM126.518 21.496C126.326 21.16 126.066 20.912 125.738 20.752C125.49 20.632 125.214 20.572 124.91 20.572C124.59 20.572 124.286 20.64 123.998 20.776C123.678 20.936 123.43 21.176 123.254 21.496C123.526 21.616 123.814 21.856 124.118 22.216C124.454 22.592 124.702 23 124.862 23.44H124.91C125.062 22.992 125.322 22.564 125.69 22.156C125.986 21.828 126.262 21.608 126.518 21.496ZM130.237 21.556C130.237 20.796 130.501 20.22 131.029 19.828C131.445 19.508 132.013 19.348 132.733 19.348C133.437 19.348 134.033 19.556 134.521 19.972C135.137 20.5 135.445 21.248 135.445 22.216C135.445 23.128 135.201 23.884 134.713 24.484C134.241 25.068 133.629 25.36 132.877 25.36C132.213 25.36 131.689 25.112 131.305 24.616C131.049 24.872 130.737 25 130.369 25H128.077V23.776H129.925C130.013 23.776 130.089 23.744 130.153 23.68C130.209 23.624 130.237 23.556 130.237 23.476V21.556ZM131.689 23.644C131.985 23.964 132.325 24.124 132.709 24.124C133.085 24.124 133.393 23.96 133.633 23.632C133.873 23.296 133.993 22.864 133.993 22.336C133.993 21.76 133.861 21.308 133.597 20.98C133.357 20.7 133.045 20.56 132.661 20.56C132.373 20.56 132.145 20.652 131.977 20.836C131.785 21.012 131.689 21.252 131.689 21.556V23.644Z" fill="black"/>
<path fill-rule="evenodd" clip-rule="evenodd" d="M152 13C150.143 13 148.363 13.7375 147.05 15.0503C145.737 16.363 145 18.1435 145 20C145 21.8565 145.737 23.637 147.05 24.9497C148.363 26.2625 150.143 27 152 27C153.857 27 155.637 26.2625 156.95 24.9497C158.263 23.637 159 21.8565 159 20C159 18.1435 158.263 16.363 156.95 15.0503C155.637 13.7375 153.857 13 152 13ZM148 19.5V20.5H156V19.5H148Z" fill="#FF3B30"/>
<rect x="188" width="172" height="40" rx="4" fill="#34C759" fill-opacity="0.12"/>
<path d="M203.036 19.156V22.9C203.036 23.588 202.8 24.136 202.328 24.544C201.888 24.92 201.284 25.108 200.516 25.108C199.668 25.108 199.004 24.836 198.524 24.292C198.06 23.804 197.828 23.144 197.828 22.312C197.828 21.408 198.12 20.664 198.704 20.08C199.224 19.552 199.868 19.288 200.636 19.288C201.044 19.288 201.432 19.38 201.8 19.564L202.304 19.156H203.036ZM201.572 20.704C201.292 20.592 201.028 20.536 200.78 20.536C200.332 20.536 199.968 20.7 199.688 21.028C199.416 21.356 199.28 21.784 199.28 22.312C199.28 22.808 199.388 23.196 199.604 23.476C199.828 23.748 200.136 23.884 200.528 23.884C200.88 23.884 201.144 23.788 201.32 23.596C201.488 23.404 201.572 23.168 201.572 22.888V20.704ZM207.333 19.48V24.712C207.333 25.704 207.029 26.472 206.421 27.016C206.029 27.376 205.525 27.628 204.909 27.772C204.621 27.828 204.321 27.856 204.009 27.856C203.905 27.856 203.765 27.848 203.589 27.832L203.001 27.1V26.584C203.257 26.624 203.505 26.644 203.745 26.644C205.161 26.644 205.869 25.956 205.869 24.58V19.48H207.333ZM211.544 25C210.664 25 209.972 24.7 209.468 24.1C209.044 23.588 208.832 22.956 208.832 22.204C208.832 21.308 209.084 20.608 209.588 20.104C210.116 19.592 210.792 19.336 211.616 19.336C212.216 19.336 212.736 19.484 213.176 19.78C213.752 20.196 214.04 20.788 214.04 21.556V23.776H214.424V25H214.028C213.972 25.864 213.668 26.54 213.116 27.028C212.732 27.372 212.272 27.608 211.736 27.736C211.36 27.824 210.992 27.868 210.632 27.868C210.512 27.868 210.34 27.86 210.116 27.844H210.08L209.468 27.088V26.56C209.796 26.616 210.104 26.644 210.392 26.644C211.704 26.644 212.42 26.096 212.54 25H211.544ZM212.576 21.556C212.576 21.236 212.472 20.984 212.264 20.8C212.08 20.64 211.864 20.56 211.616 20.56C211.208 20.56 210.884 20.704 210.644 20.992C210.404 21.28 210.284 21.676 210.284 22.18C210.284 22.668 210.416 23.056 210.68 23.344C210.944 23.632 211.304 23.776 211.76 23.776H212.576V21.556ZM217.947 16.408V21.496C219.035 20.048 220.363 19.324 221.931 19.324C222.891 19.324 223.679 19.628 224.295 20.236C224.863 20.78 225.147 21.464 225.147 22.288V23.428C225.147 23.46 225.143 23.52 225.135 23.608C225.135 23.688 225.135 23.744 225.135 23.776H225.531V25H225.291L224.895 24.508H224.859C224.595 24.836 224.259 25 223.851 25H214.335V23.776H216.495V16.408H217.947ZM223.683 22.36C223.675 21.752 223.439 21.288 222.975 20.968C222.623 20.712 222.195 20.584 221.691 20.584C221.099 20.584 220.527 20.768 219.975 21.136C219.167 21.672 218.491 22.552 217.947 23.776H223.383C223.583 23.776 223.683 23.676 223.683 23.476V22.36ZM226.608 16.84C226.824 16.84 227.008 16.916 227.16 17.068C227.312 17.22 227.388 17.404 227.388 17.62C227.388 17.828 227.312 18.008 227.16 18.16C227.008 18.312 226.824 18.388 226.608 18.388C226.392 18.388 226.208 18.312 226.056 18.16C225.904 18.008 225.828 17.828 225.828 17.62C225.828 17.404 225.904 17.22 226.056 17.068C226.208 16.916 226.392 16.84 226.608 16.84ZM228.432 16.84C228.648 16.84 228.832 16.916 228.984 17.068C229.136 17.22 229.212 17.404 229.212 17.62C229.212 17.828 229.136 18.008 228.984 18.16C228.832 18.312 228.648 18.388 228.432 18.388C228.224 18.388 228.044 18.312 227.892 18.16C227.74 18.008 227.664 17.828 227.664 17.62C227.664 17.404 227.74 17.22 227.892 17.068C228.044 16.916 228.224 16.84 228.432 16.84ZM229.056 19.48V23.596V23.776H229.668V25H229.248L228.804 24.508H228.78C228.508 24.836 228.168 25 227.76 25H225.444V23.776H227.256C227.368 23.776 227.448 23.744 227.496 23.68C227.568 23.616 227.604 23.536 227.604 23.44V19.48H229.056ZM231.729 21.556C231.729 20.796 231.993 20.22 232.521 19.828C232.937 19.508 233.505 19.348 234.225 19.348C234.929 19.348 235.525 19.556 236.013 19.972C236.629 20.5 236.937 21.248 236.937 22.216C236.937 23.128 236.693 23.884 236.205 24.484C235.733 25.068 235.121 25.36 234.369 25.36C233.705 25.36 233.181 25.112 232.797 24.616C232.541 24.872 232.229 25 231.861 25H229.569V23.776H231.417C231.505 23.776 231.581 23.744 231.645 23.68C231.701 23.624 231.729 23.556 231.729 23.476V21.556ZM233.181 23.644C233.477 23.964 233.817 24.124 234.201 24.124C234.577 24.124 234.885 23.96 235.125 23.632C235.365 23.296 235.485 22.864 235.485 22.336C235.485 21.76 235.353 21.308 235.089 20.98C234.849 20.7 234.537 20.56 234.153 20.56C233.865 20.56 233.637 20.652 233.469 20.836C233.277 21.012 233.181 21.252 233.181 21.556V23.644ZM244.675 19.156C244.891 19.156 245.075 19.232 245.227 19.384C245.379 19.536 245.455 19.72 245.455 19.936C245.455 20.152 245.379 20.336 245.227 20.488C245.075 20.64 244.891 20.716 244.675 20.716C244.467 20.716 244.287 20.64 244.135 20.488C243.983 20.336 243.907 20.152 243.907 19.936C243.907 19.72 243.983 19.536 244.135 19.384C244.287 19.232 244.467 19.156 244.675 19.156ZM246.511 19.156C246.719 19.156 246.899 19.232 247.051 19.384C247.203 19.536 247.279 19.72 247.279 19.936C247.279 20.152 247.203 20.336 247.051 20.488C246.899 20.64 246.719 20.716 246.511 20.716C246.295 20.716 246.111 20.64 245.959 20.488C245.807 20.336 245.731 20.152 245.731 19.936C245.731 19.72 245.807 19.536 245.959 19.384C246.111 19.232 246.295 19.156 246.511 19.156ZM250.639 19.48V23.68C250.639 24.016 250.535 24.3 250.327 24.532C250.071 24.844 249.743 25 249.343 25H242.623C242.103 25 241.655 24.832 241.279 24.496C240.775 24.072 240.523 23.52 240.523 22.84V20.944L241.267 20.344H241.987V22.84C241.987 23.12 242.083 23.348 242.275 23.524C242.459 23.692 242.671 23.776 242.911 23.776H248.875C249.075 23.776 249.175 23.676 249.175 23.476V19.48H250.639ZM253.765 16.408V23.476C253.765 23.556 253.789 23.62 253.837 23.668C253.885 23.74 253.961 23.776 254.065 23.776H254.377V25H253.597C253.269 25 252.981 24.884 252.733 24.652C252.445 24.388 252.301 24.064 252.301 23.68V16.408H253.765ZM257.908 19.48V23.596V23.776H258.52V25H258.1L257.656 24.508H257.632C257.36 24.836 257.02 25 256.612 25H254.296V23.776H256.108C256.22 23.776 256.3 23.744 256.348 23.68C256.42 23.616 256.456 23.536 256.456 23.44V19.48H257.908ZM255.304 25.876C255.52 25.876 255.704 25.952 255.856 26.104C256.008 26.256 256.084 26.44 256.084 26.656C256.084 26.872 256.008 27.056 255.856 27.208C255.704 27.36 255.52 27.436 255.304 27.436C255.088 27.436 254.904 27.36 254.752 27.208C254.6 27.056 254.524 26.872 254.524 26.656C254.524 26.44 254.6 26.256 254.752 26.104C254.904 25.952 255.088 25.876 255.304 25.876ZM257.128 25.876C257.344 25.876 257.528 25.952 257.68 26.104C257.832 26.256 257.908 26.44 257.908 26.656C257.908 26.872 257.832 27.056 257.68 27.208C257.528 27.36 257.344 27.436 257.128 27.436C256.92 27.436 256.74 27.36 256.588 27.208C256.436 27.056 256.36 26.872 256.36 26.656C256.36 26.44 256.436 26.256 256.588 26.104C256.74 25.952 256.92 25.876 257.128 25.876ZM261.313 16.84C261.529 16.84 261.713 16.916 261.865 17.068C262.017 17.22 262.093 17.404 262.093 17.62C262.093 17.828 262.017 18.008 261.865 18.16C261.713 18.312 261.529 18.388 261.313 18.388C261.105 18.388 260.925 18.312 260.773 18.16C260.621 18.008 260.545 17.828 260.545 17.62C260.545 17.404 260.621 17.22 260.773 17.068C260.925 16.916 261.105 16.84 261.313 16.84ZM262.045 19.48V23.596V23.776H262.657V25H262.237L261.793 24.508H261.769C261.497 24.836 261.157 25 260.749 25H258.433V23.776H260.245C260.357 23.776 260.437 23.744 260.485 23.68C260.557 23.616 260.593 23.536 260.593 23.44V19.48H262.045ZM266.181 16.84C266.397 16.84 266.581 16.916 266.733 17.068C266.885 17.22 266.961 17.404 266.961 17.62C266.961 17.828 266.885 18.008 266.733 18.16C266.581 18.312 266.397 18.388 266.181 18.388C265.973 18.388 265.793 18.312 265.641 18.16C265.489 18.008 265.413 17.828 265.413 17.62C265.413 17.404 265.489 17.22 265.641 17.068C265.793 16.916 265.973 16.84 266.181 16.84ZM268.005 16.84C268.221 16.84 268.405 16.916 268.557 17.068C268.709 17.22 268.785 17.404 268.785 17.62C268.785 17.828 268.709 18.008 268.557 18.16C268.405 18.312 268.221 18.388 268.005 18.388C267.789 18.388 267.605 18.316 267.453 18.172C267.309 18.02 267.237 17.836 267.237 17.62C267.237 17.404 267.309 17.22 267.453 17.068C267.605 16.916 267.789 16.84 268.005 16.84ZM264.957 23.776C264.597 23.296 264.417 22.716 264.417 22.036C264.417 21.42 264.573 20.888 264.885 20.44C265.389 19.704 266.117 19.336 267.069 19.336C267.789 19.336 268.393 19.56 268.881 20.008C269.449 20.528 269.733 21.204 269.733 22.036C269.733 22.692 269.553 23.272 269.193 23.776H270.021V25H268.221C267.701 25 267.325 24.948 267.093 24.844H267.033C266.809 24.948 266.433 25 265.905 25H262.569V23.776H264.957ZM267.069 23.764C267.429 23.724 267.717 23.56 267.933 23.272C268.157 22.976 268.269 22.6 268.269 22.144C268.269 21.664 268.161 21.28 267.945 20.992C267.729 20.704 267.437 20.56 267.069 20.56C266.709 20.56 266.417 20.704 266.193 20.992C265.977 21.28 265.869 21.664 265.869 22.144C265.869 22.6 265.977 22.976 266.193 23.272C266.417 23.56 266.709 23.724 267.069 23.764ZM271.093 16.84C271.309 16.84 271.493 16.916 271.645 17.068C271.797 17.22 271.873 17.404 271.873 17.62C271.873 17.828 271.797 18.008 271.645 18.16C271.493 18.312 271.309 18.388 271.093 18.388C270.877 18.388 270.693 18.312 270.541 18.16C270.389 18.008 270.313 17.828 270.313 17.62C270.313 17.404 270.389 17.22 270.541 17.068C270.693 16.916 270.877 16.84 271.093 16.84ZM272.917 16.84C273.133 16.84 273.317 16.916 273.469 17.068C273.621 17.22 273.697 17.404 273.697 17.62C273.697 17.828 273.621 18.008 273.469 18.16C273.317 18.312 273.133 18.388 272.917 18.388C272.709 18.388 272.529 18.312 272.377 18.16C272.225 18.008 272.149 17.828 272.149 17.62C272.149 17.404 272.225 17.22 272.377 17.068C272.529 16.916 272.709 16.84 272.917 16.84ZM273.541 19.48V23.68C273.541 23.992 273.437 24.28 273.229 24.544C272.965 24.848 272.637 25 272.245 25H269.929V23.776H271.777C271.865 23.776 271.941 23.744 272.005 23.68C272.061 23.624 272.089 23.556 272.089 23.476V19.48H273.541ZM278.915 24.952C278.571 25.048 278.235 25.096 277.907 25.096C277.059 25.096 276.371 24.768 275.843 24.112C275.411 23.56 275.195 22.908 275.195 22.156C275.195 21.332 275.439 20.664 275.927 20.152C276.431 19.608 277.115 19.336 277.979 19.336C278.619 19.336 279.155 19.5 279.587 19.828C280.131 20.22 280.403 20.796 280.403 21.556V24.712C280.403 25.744 280.075 26.536 279.419 27.088C279.043 27.408 278.575 27.632 278.015 27.76C277.735 27.824 277.423 27.856 277.079 27.856C276.991 27.856 276.851 27.848 276.659 27.832L276.071 27.1V26.584C276.327 26.624 276.579 26.644 276.827 26.644C278.115 26.644 278.811 26.08 278.915 24.952ZM278.939 21.556C278.939 21.212 278.823 20.948 278.591 20.764C278.431 20.628 278.227 20.56 277.979 20.56C277.563 20.56 277.235 20.704 276.995 20.992C276.763 21.28 276.647 21.676 276.647 22.18C276.647 22.7 276.779 23.112 277.043 23.416C277.315 23.712 277.683 23.86 278.147 23.86C278.403 23.86 278.667 23.812 278.939 23.716V21.556ZM288.246 19.156C288.462 19.156 288.646 19.232 288.798 19.384C288.95 19.536 289.026 19.72 289.026 19.936C289.026 20.152 288.95 20.336 288.798 20.488C288.646 20.64 288.462 20.716 288.246 20.716C288.038 20.716 287.858 20.64 287.706 20.488C287.554 20.336 287.478 20.152 287.478 19.936C287.478 19.72 287.554 19.536 287.706 19.384C287.858 19.232 288.038 19.156 288.246 19.156ZM290.082 19.156C290.29 19.156 290.47 19.232 290.622 19.384C290.774 19.536 290.85 19.72 290.85 19.936C290.85 20.152 290.774 20.336 290.622 20.488C290.47 20.64 290.29 20.716 290.082 20.716C289.866 20.716 289.682 20.64 289.53 20.488C289.378 20.336 289.302 20.152 289.302 19.936C289.302 19.72 289.378 19.536 289.53 19.384C289.682 19.232 289.866 19.156 290.082 19.156ZM294.21 19.48V23.68C294.21 24.016 294.106 24.3 293.898 24.532C293.642 24.844 293.314 25 292.914 25H286.194C285.674 25 285.226 24.832 284.85 24.496C284.346 24.072 284.094 23.52 284.094 22.84V20.944L284.838 20.344H285.558V22.84C285.558 23.12 285.654 23.348 285.846 23.524C286.03 23.692 286.242 23.776 286.482 23.776H292.446C292.646 23.776 292.746 23.676 292.746 23.476V19.48H294.21ZM297.335 16.408V23.476C297.335 23.556 297.359 23.62 297.407 23.668C297.455 23.74 297.531 23.776 297.635 23.776H297.947V25H297.167C296.839 25 296.551 24.884 296.303 24.652C296.015 24.388 295.871 24.064 295.871 23.68V16.408H297.335ZM299.954 15.4C300.146 15.4 300.31 15.472 300.446 15.616C300.59 15.752 300.662 15.916 300.662 16.108C300.662 16.308 300.594 16.48 300.458 16.624C300.322 16.76 300.154 16.828 299.954 16.828C299.746 16.828 299.574 16.76 299.438 16.624C299.302 16.488 299.234 16.316 299.234 16.108C299.234 15.908 299.302 15.74 299.438 15.604C299.582 15.468 299.754 15.4 299.954 15.4ZM299.042 16.84C299.25 16.84 299.43 16.916 299.582 17.068C299.734 17.22 299.81 17.404 299.81 17.62C299.81 17.828 299.734 18.008 299.582 18.16C299.43 18.312 299.25 18.388 299.042 18.388C298.826 18.388 298.642 18.312 298.49 18.16C298.338 18.008 298.262 17.828 298.262 17.62C298.262 17.404 298.338 17.22 298.49 17.068C298.642 16.916 298.826 16.84 299.042 16.84ZM300.854 16.84C301.07 16.84 301.254 16.916 301.406 17.068C301.558 17.22 301.634 17.404 301.634 17.62C301.634 17.828 301.558 18.008 301.406 18.16C301.254 18.312 301.07 18.388 300.854 18.388C300.646 18.388 300.466 18.312 300.314 18.16C300.162 18.008 300.086 17.828 300.086 17.62C300.086 17.404 300.162 17.22 300.314 17.068C300.466 16.916 300.646 16.84 300.854 16.84ZM301.478 19.48V23.596V23.776H302.09V25H301.67L301.226 24.508H301.202C300.93 24.836 300.59 25 300.182 25H297.866V23.776H299.678C299.79 23.776 299.87 23.744 299.918 23.68C299.99 23.616 300.026 23.536 300.026 23.44V19.48H301.478ZM305.615 19.48V23.68C305.615 23.992 305.511 24.28 305.303 24.544C305.039 24.848 304.711 25 304.319 25H302.003V23.776H303.851C303.939 23.776 304.015 23.744 304.079 23.68C304.135 23.624 304.163 23.556 304.163 23.476V19.48H305.615ZM302.987 25.876C303.203 25.876 303.387 25.952 303.539 26.104C303.691 26.256 303.767 26.44 303.767 26.656C303.767 26.872 303.691 27.056 303.539 27.208C303.387 27.36 303.203 27.436 302.987 27.436C302.779 27.436 302.599 27.36 302.447 27.208C302.295 27.056 302.219 26.872 302.219 26.656C302.219 26.44 302.295 26.256 302.447 26.104C302.599 25.952 302.779 25.876 302.987 25.876ZM304.823 25.876C305.039 25.876 305.219 25.952 305.363 26.104C305.515 26.256 305.591 26.44 305.591 26.656C305.591 26.872 305.515 27.056 305.363 27.208C305.219 27.36 305.039 27.436 304.823 27.436C304.607 27.436 304.423 27.36 304.271 27.208C304.119 27.056 304.043 26.872 304.043 26.656C304.043 26.44 304.119 26.256 304.271 26.104C304.423 25.952 304.607 25.876 304.823 25.876ZM308.149 19.408C308.421 19.36 308.737 19.336 309.097 19.336C310.017 19.336 310.761 19.632 311.329 20.224C311.833 20.76 312.085 21.424 312.085 22.216V23.368C312.085 23.552 312.081 23.688 312.073 23.776H312.385V25H312.229L311.833 24.508H311.797C311.733 24.58 311.665 24.648 311.593 24.712C311.353 24.904 311.085 25 310.789 25H306.937V23.776H310.321C310.521 23.776 310.621 23.676 310.621 23.476V22.36C310.621 21.808 310.453 21.364 310.117 21.028C309.805 20.716 309.353 20.548 308.761 20.524C308.489 20.524 308.285 20.54 308.149 20.572V19.408ZM313.888 19.684C314.648 19.452 315.34 19.336 315.964 19.336C316.932 19.336 317.712 19.64 318.304 20.248C318.84 20.792 319.108 21.48 319.108 22.312V23.596V23.776H319.504V25H319.252L318.856 24.508H318.832C318.56 24.836 318.22 25 317.812 25H312.292V23.776H317.344C317.544 23.776 317.644 23.676 317.644 23.476V22.396C317.644 21.852 317.46 21.416 317.092 21.088C316.732 20.752 316.256 20.584 315.664 20.584C315.272 20.584 314.68 20.672 313.888 20.848V19.684ZM320.569 16.84C320.785 16.84 320.969 16.916 321.121 17.068C321.273 17.22 321.349 17.404 321.349 17.62C321.349 17.828 321.273 18.008 321.121 18.16C320.969 18.312 320.785 18.388 320.569 18.388C320.353 18.388 320.169 18.312 320.017 18.16C319.865 18.008 319.789 17.828 319.789 17.62C319.789 17.404 319.865 17.22 320.017 17.068C320.169 16.916 320.353 16.84 320.569 16.84ZM322.393 16.84C322.609 16.84 322.793 16.916 322.945 17.068C323.097 17.22 323.173 17.404 323.173 17.62C323.173 17.828 323.097 18.008 322.945 18.16C322.793 18.312 322.609 18.388 322.393 18.388C322.185 18.388 322.005 18.312 321.853 18.16C321.701 18.008 321.625 17.828 321.625 17.62C321.625 17.404 321.701 17.22 321.853 17.068C322.005 16.916 322.185 16.84 322.393 16.84ZM323.017 19.48V23.68C323.017 23.992 322.913 24.28 322.705 24.544C322.441 24.848 322.113 25 321.721 25H319.405V23.776H321.253C321.341 23.776 321.417 23.744 321.481 23.68C321.537 23.624 321.565 23.556 321.565 23.476V19.48H323.017Z" fill="black"/>
<path d="M339.067 23.0667L343.767 18.3667L342.833 17.4334L339.067 21.2L337.167 19.3L336.233 20.2334L339.067 23.0667ZM340 26.6667C339.078 26.6667 338.211 26.4916 337.4 26.1414C336.589 25.7912 335.883 25.3163 335.283 24.7167C334.683 24.1172 334.208 23.4116 333.859 22.6C333.509 21.7885 333.334 20.9218 333.333 20C333.333 19.0783 333.508 18.2116 333.859 17.4C334.209 16.5885 334.684 15.8829 335.283 15.2834C335.882 14.6838 336.588 14.2089 337.4 13.8587C338.212 13.5085 339.079 13.3334 340 13.3334C340.921 13.3334 341.788 13.5085 342.6 13.8587C343.412 14.2089 344.118 14.6838 344.717 15.2834C345.316 15.8829 345.791 16.5885 346.142 17.4C346.493 18.2116 346.668 19.0783 346.667 20C346.665 20.9218 346.49 21.7885 346.141 22.6C345.792 23.4116 345.318 24.1172 344.717 24.7167C344.116 25.3163 343.41 25.7914 342.6 26.142C341.79 26.4927 340.923 26.6676 340 26.6667Z" fill="#34C759"/>
</svg>
