<svg className="w-[100%] h-auto" width="360" height="40" viewBox="0 0 360 40" fill="none" xmlns="http://www.w3.org/2000/svg">
<rect width="172" height="40" rx="4" fill="#FF3B30" fill-opacity="0.12"/>
<path d="M47.6405 16.84C47.8565 16.84 48.0405 16.916 48.1925 17.068C48.3445 17.22 48.4205 17.404 48.4205 17.62C48.4205 17.828 48.3445 18.008 48.1925 18.16C48.0405 18.312 47.8565 18.388 47.6405 18.388C47.4325 18.388 47.2525 18.312 47.1005 18.16C46.9485 18.008 46.8725 17.828 46.8725 17.62C46.8725 17.404 46.9485 17.22 47.1005 17.068C47.2525 16.916 47.4325 16.84 47.6405 16.84ZM49.4765 16.84C49.6925 16.84 49.8725 16.916 50.0165 17.068C50.1685 17.22 50.2445 17.404 50.2445 17.62C50.2445 17.836 50.1685 18.02 50.0165 18.172C49.8725 18.316 49.6925 18.388 49.4765 18.388C49.2605 18.388 49.0765 18.312 48.9245 18.16C48.7725 18.008 48.6965 17.828 48.6965 17.62C48.6965 17.404 48.7725 17.22 48.9245 17.068C49.0765 16.916 49.2605 16.84 49.4765 16.84ZM49.4765 24.952C49.1565 25.04 48.8405 25.084 48.5285 25.084C47.6565 25.084 46.9565 24.768 46.4285 24.136C45.9805 23.592 45.7565 22.932 45.7565 22.156C45.7565 21.268 46.0445 20.564 46.6205 20.044C47.1165 19.572 47.7605 19.336 48.5525 19.336C49.1685 19.336 49.6805 19.484 50.0885 19.78C50.6805 20.18 50.9765 20.772 50.9765 21.556V24.712C50.9765 25.712 50.6565 26.484 50.0165 27.028C49.4085 27.588 48.5925 27.868 47.5685 27.868H46.3805C45.3405 27.868 44.5165 27.592 43.9085 27.04C43.2845 26.496 42.9725 25.72 42.9725 24.712V23.38L43.7165 22.78H44.4365V24.58C44.4365 25.332 44.6245 25.86 45.0005 26.164C45.3845 26.476 46.0405 26.632 46.9685 26.632C47.7925 26.632 48.3805 26.528 48.7325 26.32C49.1645 26.064 49.4125 25.608 49.4765 24.952ZM49.5125 21.556C49.5125 21.268 49.4205 21.024 49.2365 20.824C49.0445 20.648 48.8125 20.56 48.5405 20.56C48.1405 20.56 47.8205 20.7 47.5805 20.98C47.3325 21.268 47.2085 21.668 47.2085 22.18C47.2085 22.692 47.3445 23.1 47.6165 23.404C47.8885 23.708 48.2525 23.86 48.7085 23.86C48.9645 23.86 49.2325 23.812 49.5125 23.716V21.556ZM55.8247 19.48V23.776H56.4367V25H55.8127C55.7487 25.96 55.3687 26.696 54.6727 27.208C54.0967 27.632 53.3887 27.844 52.5487 27.844C52.4047 27.844 52.2487 27.84 52.0807 27.832L51.4927 27.1V26.584C51.7487 26.624 51.9967 26.644 52.2367 26.644C53.6527 26.644 54.3607 25.956 54.3607 24.58V19.48H55.8247ZM60.8825 16.84C61.0905 16.84 61.2705 16.916 61.4225 17.068C61.5745 17.22 61.6505 17.404 61.6505 17.62C61.6505 17.828 61.5745 18.008 61.4225 18.16C61.2705 18.312 61.0905 18.388 60.8825 18.388C60.6665 18.388 60.4825 18.312 60.3305 18.16C60.1785 18.008 60.1025 17.828 60.1025 17.62C60.1025 17.404 60.1785 17.22 60.3305 17.068C60.4825 16.916 60.6665 16.84 60.8825 16.84ZM58.7465 23.776C58.3865 23.296 58.2065 22.716 58.2065 22.036C58.2065 21.42 58.3625 20.888 58.6745 20.44C59.1785 19.704 59.9065 19.336 60.8585 19.336C61.5785 19.336 62.1825 19.56 62.6705 20.008C63.2385 20.528 63.5225 21.204 63.5225 22.036C63.5225 22.692 63.3425 23.272 62.9825 23.776H63.8105V25H62.0105C61.4905 25 61.1145 24.948 60.8825 24.844H60.8225C60.5985 24.948 60.2225 25 59.6945 25H56.3585V23.776H58.7465ZM60.8585 23.764C61.2185 23.724 61.5065 23.56 61.7225 23.272C61.9465 22.976 62.0585 22.6 62.0585 22.144C62.0585 21.664 61.9505 21.28 61.7345 20.992C61.5185 20.704 61.2265 20.56 60.8585 20.56C60.4985 20.56 60.2065 20.704 59.9825 20.992C59.7665 21.28 59.6585 21.664 59.6585 22.144C59.6585 22.6 59.7665 22.976 59.9825 23.272C60.2065 23.56 60.4985 23.724 60.8585 23.764ZM67.3416 16.408V23.68C67.3416 24.016 67.2336 24.304 67.0176 24.544C66.7696 24.848 66.4456 25 66.0456 25H63.7296V23.776H65.5776C65.6656 23.776 65.7416 23.744 65.8056 23.68C65.8616 23.624 65.8896 23.556 65.8896 23.476V16.408H67.3416ZM70.4639 16.408V24.7L69.7199 25.3H68.9999V16.408H70.4639ZM82.3362 16.408V23.776H82.9362V25H82.3242C82.2682 25.88 81.9402 26.58 81.3402 27.1C80.7242 27.612 79.9202 27.868 78.9282 27.868H77.7402C76.6602 27.868 75.8122 27.572 75.1962 26.98C74.6202 26.42 74.3322 25.664 74.3322 24.712V22.564L75.0762 21.964H75.7962V24.58C75.7962 25.34 75.9882 25.872 76.3722 26.176C76.7562 26.488 77.4122 26.644 78.3402 26.644C79.2442 26.644 79.8802 26.504 80.2482 26.224C80.6642 25.904 80.8722 25.356 80.8722 24.58V16.408H82.3362ZM86.4666 19.48V23.596V23.776H87.0786V25H86.6586L86.2146 24.508H86.1906C85.9186 24.836 85.5786 25 85.1706 25H82.8546V23.776H84.6666C84.7786 23.776 84.8586 23.744 84.9066 23.68C84.9786 23.616 85.0146 23.536 85.0146 23.44V19.48H86.4666ZM83.8626 25.876C84.0786 25.876 84.2626 25.952 84.4146 26.104C84.5666 26.256 84.6426 26.44 84.6426 26.656C84.6426 26.872 84.5666 27.056 84.4146 27.208C84.2626 27.36 84.0786 27.436 83.8626 27.436C83.6466 27.436 83.4626 27.36 83.3106 27.208C83.1586 27.056 83.0826 26.872 83.0826 26.656C83.0826 26.44 83.1586 26.256 83.3106 26.104C83.4626 25.952 83.6466 25.876 83.8626 25.876ZM85.6866 25.876C85.9026 25.876 86.0866 25.952 86.2386 26.104C86.3906 26.256 86.4666 26.44 86.4666 26.656C86.4666 26.872 86.3906 27.056 86.2386 27.208C86.0866 27.36 85.9026 27.436 85.6866 27.436C85.4786 27.436 85.2986 27.36 85.1466 27.208C84.9946 27.056 84.9186 26.872 84.9186 26.656C84.9186 26.44 84.9946 26.256 85.1466 26.104C85.2986 25.952 85.4786 25.876 85.6866 25.876ZM90.7713 16.84C90.9873 16.84 91.1713 16.916 91.3233 17.068C91.4753 17.22 91.5513 17.404 91.5513 17.62C91.5513 17.828 91.4753 18.008 91.3233 18.16C91.1713 18.312 90.9873 18.388 90.7713 18.388C90.5633 18.388 90.3833 18.312 90.2313 18.16C90.0793 18.008 90.0033 17.828 90.0033 17.62C90.0033 17.404 90.0793 17.22 90.2313 17.068C90.3833 16.916 90.5633 16.84 90.7713 16.84ZM88.5753 19.684C89.3353 19.452 90.0273 19.336 90.6513 19.336C91.6193 19.336 92.3993 19.64 92.9913 20.248C93.5273 20.792 93.7953 21.48 93.7953 22.312V23.596V23.776H94.1913V25H93.9393L93.5433 24.508H93.5193C93.2473 24.836 92.9073 25 92.4993 25H86.9793V23.776H92.0313C92.2313 23.776 92.3313 23.676 92.3313 23.476V22.396C92.3313 21.852 92.1473 21.416 91.7793 21.088C91.4193 20.752 90.9433 20.584 90.3513 20.584C89.9593 20.584 89.3673 20.672 88.5753 20.848V19.684ZM95.2686 16.84C95.4846 16.84 95.6686 16.916 95.8206 17.068C95.9726 17.22 96.0486 17.404 96.0486 17.62C96.0486 17.828 95.9726 18.008 95.8206 18.16C95.6686 18.312 95.4846 18.388 95.2686 18.388C95.0526 18.388 94.8686 18.312 94.7166 18.16C94.5646 18.008 94.4886 17.828 94.4886 17.62C94.4886 17.404 94.5646 17.22 94.7166 17.068C94.8686 16.916 95.0526 16.84 95.2686 16.84ZM97.0926 16.84C97.3086 16.84 97.4926 16.916 97.6446 17.068C97.7966 17.22 97.8726 17.404 97.8726 17.62C97.8726 17.828 97.7966 18.008 97.6446 18.16C97.4926 18.312 97.3086 18.388 97.0926 18.388C96.8846 18.388 96.7046 18.312 96.5526 18.16C96.4006 18.008 96.3246 17.828 96.3246 17.62C96.3246 17.404 96.4006 17.22 96.5526 17.068C96.7046 16.916 96.8846 16.84 97.0926 16.84ZM97.7166 19.48V23.596V23.776H98.3286V25H97.9086L97.4646 24.508H97.4406C97.1686 24.836 96.8286 25 96.4206 25H94.1046V23.776H95.9166C96.0286 23.776 96.1086 23.744 96.1566 23.68C96.2286 23.616 96.2646 23.536 96.2646 23.44V19.48H97.7166ZM99.3933 16.84C99.6093 16.84 99.7933 16.916 99.9453 17.068C100.097 17.22 100.173 17.404 100.173 17.62C100.173 17.828 100.097 18.008 99.9453 18.16C99.7933 18.312 99.6093 18.388 99.3933 18.388C99.1773 18.388 98.9933 18.312 98.8413 18.16C98.6893 18.008 98.6133 17.828 98.6133 17.62C98.6133 17.404 98.6893 17.22 98.8413 17.068C98.9933 16.916 99.1773 16.84 99.3933 16.84ZM101.217 16.84C101.433 16.84 101.617 16.916 101.769 17.068C101.921 17.22 101.997 17.404 101.997 17.62C101.997 17.828 101.921 18.008 101.769 18.16C101.617 18.312 101.433 18.388 101.217 18.388C101.009 18.388 100.829 18.312 100.677 18.16C100.525 18.008 100.449 17.828 100.449 17.62C100.449 17.404 100.525 17.22 100.677 17.068C100.829 16.916 101.009 16.84 101.217 16.84ZM101.841 19.48V23.68C101.841 23.992 101.737 24.28 101.529 24.544C101.265 24.848 100.937 25 100.545 25H98.2293V23.776H100.077C100.165 23.776 100.241 23.744 100.305 23.68C100.361 23.624 100.389 23.556 100.389 23.476V19.48H101.841ZM115.971 19.48V23.596C115.971 23.676 115.967 23.736 115.959 23.776H116.583V25H116.175L115.719 24.508H115.683C115.435 24.836 115.099 25 114.675 25H107.955C107.443 25 106.999 24.836 106.623 24.508C106.111 24.084 105.855 23.528 105.855 22.84V20.944L106.599 20.344H107.319V22.84C107.319 23.12 107.415 23.348 107.607 23.524C107.791 23.692 108.003 23.776 108.243 23.776H114.171C114.275 23.776 114.363 23.74 114.435 23.668C114.483 23.604 114.507 23.528 114.507 23.44V19.48H115.971ZM110.919 25.876C111.135 25.876 111.319 25.952 111.471 26.104C111.623 26.256 111.699 26.44 111.699 26.656C111.699 26.872 111.623 27.056 111.471 27.208C111.319 27.36 111.135 27.436 110.919 27.436C110.703 27.436 110.519 27.36 110.367 27.208C110.215 27.056 110.139 26.872 110.139 26.656C110.139 26.44 110.215 26.256 110.367 26.104C110.519 25.952 110.703 25.876 110.919 25.876ZM118.167 21.592C118.439 20.808 118.935 20.212 119.655 19.804C120.191 19.5 120.771 19.348 121.395 19.348C122.019 19.348 122.591 19.516 123.111 19.852C123.759 20.244 124.223 20.824 124.503 21.592L124.359 21.928C124.039 22.072 123.703 22.32 123.351 22.672C123.015 23.04 122.795 23.408 122.691 23.776H124.623V25H121.983C121.759 25 121.555 24.896 121.371 24.688H121.311C121.127 24.896 120.915 25 120.675 25H116.499V23.776H119.979C119.883 23.448 119.679 23.1 119.367 22.732C119.023 22.348 118.667 22.08 118.299 21.928L118.167 21.592ZM122.967 21.496C122.775 21.16 122.515 20.912 122.187 20.752C121.939 20.632 121.663 20.572 121.359 20.572C121.039 20.572 120.735 20.64 120.447 20.776C120.127 20.936 119.879 21.176 119.703 21.496C119.975 21.616 120.263 21.856 120.567 22.216C120.903 22.592 121.151 23 121.311 23.44H121.359C121.511 22.992 121.771 22.564 122.139 22.156C122.435 21.828 122.711 21.608 122.967 21.496ZM128.138 21.496C129.21 20.048 130.534 19.324 132.11 19.324C133.07 19.324 133.862 19.624 134.486 20.224C135.054 20.776 135.338 21.464 135.338 22.288V23.68C135.338 24.04 135.214 24.344 134.966 24.592C134.718 24.864 134.41 25 134.042 25H124.526V23.776H126.686V19.48H128.138V21.496ZM133.874 22.36C133.874 21.864 133.714 21.464 133.394 21.16C133.01 20.776 132.506 20.584 131.882 20.584C131.266 20.584 130.666 20.788 130.082 21.196C129.298 21.74 128.65 22.6 128.138 23.776H133.574C133.774 23.776 133.874 23.676 133.874 23.476V22.36Z" fill="black"/>
<path fill-rule="evenodd" clip-rule="evenodd" d="M152 13C150.143 13 148.363 13.7375 147.05 15.0503C145.737 16.363 145 18.1435 145 20C145 21.8565 145.737 23.637 147.05 24.9497C148.363 26.2625 150.143 27 152 27C153.857 27 155.637 26.2625 156.95 24.9497C158.263 23.637 159 21.8565 159 20C159 18.1435 158.263 16.363 156.95 15.0503C155.637 13.7375 153.857 13 152 13ZM148 19.5V20.5H156V19.5H148Z" fill="#FF3B30"/>
<rect x="188" width="172" height="40" rx="4" fill="#34C759" fill-opacity="0.12"/>
<path d="M199.645 19.408C199.917 19.36 200.233 19.336 200.593 19.336C201.513 19.336 202.257 19.632 202.825 20.224C203.329 20.76 203.581 21.424 203.581 22.216V23.368C203.581 23.552 203.577 23.688 203.569 23.776H203.881V25H203.725L203.329 24.508H203.293C203.229 24.58 203.161 24.648 203.089 24.712C202.849 24.904 202.581 25 202.285 25H198.433V23.776H201.817C202.017 23.776 202.117 23.676 202.117 23.476V22.36C202.117 21.808 201.949 21.364 201.613 21.028C201.301 20.716 200.849 20.548 200.257 20.524C199.985 20.524 199.781 20.54 199.645 20.572V19.408ZM205.468 21.592C205.74 20.808 206.236 20.212 206.956 19.804C207.492 19.5 208.072 19.348 208.696 19.348C209.32 19.348 209.892 19.516 210.412 19.852C211.06 20.244 211.524 20.824 211.804 21.592L211.66 21.928C211.34 22.072 211.004 22.32 210.652 22.672C210.316 23.04 210.096 23.408 209.992 23.776H211.924V25H209.284C209.06 25 208.856 24.896 208.672 24.688H208.612C208.428 24.896 208.216 25 207.976 25H203.8V23.776H207.28C207.184 23.448 206.98 23.1 206.668 22.732C206.324 22.348 205.968 22.08 205.6 21.928L205.468 21.592ZM210.268 21.496C210.076 21.16 209.816 20.912 209.488 20.752C209.24 20.632 208.964 20.572 208.66 20.572C208.34 20.572 208.036 20.64 207.748 20.776C207.428 20.936 207.18 21.176 207.004 21.496C207.276 21.616 207.564 21.856 207.868 22.216C208.204 22.592 208.452 23 208.612 23.44H208.66C208.812 22.992 209.072 22.564 209.44 22.156C209.736 21.828 210.012 21.608 210.268 21.496ZM215.451 19.48V23.68C215.451 23.992 215.347 24.28 215.139 24.544C214.875 24.848 214.547 25 214.155 25H211.839V23.776H213.687C213.775 23.776 213.851 23.744 213.915 23.68C213.971 23.624 213.999 23.556 213.999 23.476V19.48H215.451ZM214.455 25.876C214.671 25.876 214.855 25.952 215.007 26.104C215.159 26.256 215.235 26.44 215.235 26.656C215.235 26.872 215.159 27.056 215.007 27.208C214.855 27.36 214.671 27.436 214.455 27.436C214.239 27.436 214.055 27.36 213.903 27.208C213.759 27.056 213.687 26.872 213.687 26.656C213.687 26.44 213.759 26.256 213.903 26.104C214.055 25.952 214.239 25.876 214.455 25.876ZM220.673 24.952C220.329 25.048 219.993 25.096 219.665 25.096C218.817 25.096 218.129 24.768 217.601 24.112C217.169 23.56 216.953 22.908 216.953 22.156C216.953 21.332 217.197 20.664 217.685 20.152C218.189 19.608 218.873 19.336 219.737 19.336C220.377 19.336 220.913 19.5 221.345 19.828C221.889 20.22 222.161 20.796 222.161 21.556V24.712C222.161 25.744 221.833 26.536 221.177 27.088C220.801 27.408 220.333 27.632 219.773 27.76C219.493 27.824 219.181 27.856 218.837 27.856C218.749 27.856 218.609 27.848 218.417 27.832L217.829 27.1V26.584C218.085 26.624 218.337 26.644 218.585 26.644C219.873 26.644 220.569 26.08 220.673 24.952ZM220.697 21.556C220.697 21.212 220.581 20.948 220.349 20.764C220.189 20.628 219.985 20.56 219.737 20.56C219.321 20.56 218.993 20.704 218.753 20.992C218.521 21.28 218.405 21.676 218.405 22.18C218.405 22.7 218.537 23.112 218.801 23.416C219.073 23.712 219.441 23.86 219.905 23.86C220.161 23.86 220.425 23.812 220.697 23.716V21.556ZM233.867 16.408V23.776H234.467V25H233.855C233.799 25.88 233.471 26.58 232.871 27.1C232.255 27.612 231.451 27.868 230.459 27.868H229.271C228.191 27.868 227.343 27.572 226.727 26.98C226.151 26.42 225.863 25.664 225.863 24.712V22.564L226.607 21.964H227.327V24.58C227.327 25.34 227.519 25.872 227.903 26.176C228.287 26.488 228.943 26.644 229.871 26.644C230.775 26.644 231.411 26.504 231.779 26.224C232.195 25.904 232.403 25.356 232.403 24.58V16.408H233.867ZM237.998 19.48V23.596V23.776H238.61V25H238.19L237.746 24.508H237.722C237.45 24.836 237.11 25 236.702 25H234.386V23.776H236.198C236.31 23.776 236.39 23.744 236.438 23.68C236.51 23.616 236.546 23.536 236.546 23.44V19.48H237.998ZM237.23 25.876C237.438 25.876 237.618 25.952 237.77 26.104C237.922 26.256 237.998 26.44 237.998 26.656C237.998 26.872 237.922 27.056 237.77 27.208C237.618 27.36 237.438 27.436 237.23 27.436C237.014 27.436 236.83 27.36 236.678 27.208C236.526 27.056 236.45 26.872 236.45 26.656C236.45 26.44 236.526 26.256 236.678 26.104C236.83 25.952 237.014 25.876 237.23 25.876ZM242.267 16.84C242.483 16.84 242.667 16.916 242.819 17.068C242.971 17.22 243.047 17.404 243.047 17.62C243.047 17.828 242.971 18.008 242.819 18.16C242.667 18.312 242.483 18.388 242.267 18.388C242.059 18.388 241.879 18.312 241.727 18.16C241.575 18.008 241.499 17.828 241.499 17.62C241.499 17.404 241.575 17.22 241.727 17.068C241.879 16.916 242.059 16.84 242.267 16.84ZM244.091 16.84C244.307 16.84 244.491 16.916 244.643 17.068C244.795 17.22 244.871 17.404 244.871 17.62C244.871 17.828 244.795 18.008 244.643 18.16C244.491 18.312 244.307 18.388 244.091 18.388C243.883 18.388 243.703 18.312 243.551 18.16C243.399 18.008 243.323 17.828 243.323 17.62C243.323 17.404 243.399 17.22 243.551 17.068C243.703 16.916 243.883 16.84 244.091 16.84ZM240.935 23.776C240.751 23.544 240.607 23.268 240.503 22.948C240.415 22.644 240.371 22.34 240.371 22.036C240.371 21.332 240.575 20.744 240.983 20.272C241.503 19.648 242.235 19.336 243.179 19.336C243.851 19.336 244.411 19.516 244.859 19.876C245.347 20.292 245.591 20.852 245.591 21.556V23.68C245.591 24.008 245.483 24.3 245.267 24.556C245.011 24.852 244.687 25 244.295 25H238.523V23.776H240.935ZM244.127 21.556C244.127 21.228 244.015 20.964 243.791 20.764C243.615 20.628 243.411 20.56 243.179 20.56C242.659 20.56 242.283 20.764 242.051 21.172C241.899 21.428 241.823 21.752 241.823 22.144C241.823 22.68 241.991 23.1 242.327 23.404C242.599 23.652 242.955 23.776 243.395 23.776H243.827C244.027 23.776 244.127 23.676 244.127 23.476V21.556ZM252.637 19.48V23.776H253.249V25H252.625C252.561 25.96 252.181 26.696 251.485 27.208C250.909 27.632 250.201 27.844 249.361 27.844C249.217 27.844 249.061 27.84 248.893 27.832L248.305 27.1V26.584C248.561 26.624 248.809 26.644 249.049 26.644C250.465 26.644 251.173 25.956 251.173 24.58V19.48H252.637ZM256.087 19.612C256.951 19.22 257.827 19.024 258.715 19.024C259.859 19.024 260.723 19.368 261.307 20.056C261.811 20.656 262.063 21.464 262.063 22.48V23.44C262.063 23.472 262.059 23.532 262.051 23.62C262.051 23.692 262.051 23.744 262.051 23.776H262.447V25H262.207L261.799 24.508H261.775C261.695 24.596 261.595 24.688 261.475 24.784C261.267 24.928 261.031 25 260.767 25H257.767C257.431 25 257.175 24.956 256.999 24.868H256.951C256.775 24.956 256.479 25 256.063 25H253.159V23.776H255.319C255.191 23.616 255.087 23.408 255.007 23.152C254.935 22.912 254.899 22.656 254.899 22.384C254.899 21.872 255.031 21.432 255.295 21.064C255.503 20.784 255.767 20.576 256.087 20.44V19.612ZM260.599 22.672C260.599 21.784 260.403 21.14 260.011 20.74C259.643 20.372 259.087 20.188 258.343 20.188C258.015 20.188 257.667 20.224 257.299 20.296C257.875 20.368 258.327 20.624 258.655 21.064C258.919 21.432 259.051 21.872 259.051 22.384C259.051 22.64 259.019 22.884 258.955 23.116C258.875 23.388 258.771 23.608 258.643 23.776H260.287C260.391 23.776 260.467 23.744 260.515 23.68C260.571 23.624 260.599 23.556 260.599 23.476V22.672ZM256.963 23.632C257.227 23.608 257.439 23.488 257.599 23.272C257.759 23.048 257.839 22.768 257.839 22.432C257.839 22.048 257.747 21.752 257.563 21.544C257.403 21.36 257.203 21.268 256.963 21.268C256.731 21.268 256.531 21.352 256.363 21.52C256.171 21.736 256.075 22.04 256.075 22.432C256.083 22.776 256.167 23.056 256.327 23.272C256.487 23.488 256.699 23.608 256.963 23.632ZM265.971 16.408V21.496C267.059 20.048 268.387 19.324 269.955 19.324C270.915 19.324 271.703 19.628 272.319 20.236C272.887 20.78 273.171 21.464 273.171 22.288V23.428C273.171 23.46 273.167 23.52 273.159 23.608C273.159 23.688 273.159 23.744 273.159 23.776H273.555V25H273.315L272.919 24.508H272.883C272.619 24.836 272.283 25 271.875 25H262.359V23.776H264.519V16.408H265.971ZM269.163 16.84C269.379 16.84 269.563 16.916 269.715 17.068C269.867 17.22 269.943 17.404 269.943 17.62C269.943 17.828 269.867 18.008 269.715 18.16C269.563 18.312 269.379 18.388 269.163 18.388C268.955 18.388 268.775 18.312 268.623 18.16C268.471 18.008 268.395 17.828 268.395 17.62C268.395 17.404 268.471 17.22 268.623 17.068C268.775 16.916 268.955 16.84 269.163 16.84ZM271.707 22.36C271.699 21.752 271.463 21.288 270.999 20.968C270.647 20.712 270.219 20.584 269.715 20.584C269.123 20.584 268.551 20.768 267.999 21.136C267.191 21.672 266.515 22.552 265.971 23.776H271.407C271.607 23.776 271.707 23.676 271.707 23.476V22.36ZM275.604 23.776C275.412 23.312 275.316 22.792 275.316 22.216C275.316 21.272 275.608 20.54 276.192 20.02C276.68 19.58 277.304 19.356 278.064 19.348C278.744 19.348 279.3 19.508 279.732 19.828C280.26 20.228 280.524 20.804 280.524 21.556V23.476C280.524 23.548 280.544 23.616 280.584 23.68C280.648 23.744 280.72 23.776 280.8 23.776H280.908V25H280.38C280.02 25 279.712 24.872 279.456 24.616C279.064 25.112 278.544 25.36 277.896 25.36C277.2 25.36 276.608 25.104 276.12 24.592H276.096L275.76 25H273.468V23.776H275.604ZM279.06 21.556C279.06 21.26 278.968 21.02 278.784 20.836C278.616 20.652 278.376 20.56 278.064 20.56C277.672 20.56 277.356 20.712 277.116 21.016C276.884 21.32 276.768 21.728 276.768 22.24C276.768 22.8 276.888 23.256 277.128 23.608C277.368 23.96 277.676 24.136 278.052 24.136C278.396 24.136 278.732 23.972 279.06 23.644V21.556ZM284.439 16.408V23.68C284.439 24.016 284.331 24.304 284.115 24.544C283.867 24.848 283.543 25 283.143 25H280.827V23.776H282.675C282.763 23.776 282.839 23.744 282.903 23.68C282.959 23.624 282.987 23.556 282.987 23.476V16.408H284.439ZM287.562 16.408V24.7L286.818 25.3H286.098V16.408H287.562ZM296.458 19.156V23.476C296.458 23.572 296.486 23.644 296.542 23.692C296.59 23.748 296.654 23.776 296.734 23.776H297.07V25H296.314C295.946 25 295.614 24.852 295.318 24.556C294.862 24.932 294.354 25.12 293.794 25.12C293.162 25.12 292.618 24.92 292.162 24.52C291.554 23.952 291.25 23.192 291.25 22.24C291.25 21.368 291.53 20.644 292.09 20.068C292.602 19.548 293.23 19.288 293.974 19.288C294.39 19.288 294.806 19.376 295.222 19.552L295.738 19.156H296.458ZM294.994 20.704C294.714 20.6 294.446 20.548 294.19 20.548C293.758 20.548 293.402 20.708 293.122 21.028C292.842 21.34 292.702 21.748 292.702 22.252C292.702 22.756 292.826 23.16 293.074 23.464C293.33 23.768 293.67 23.92 294.094 23.92C294.382 23.92 294.682 23.856 294.994 23.728V20.704ZM299.867 16.84C300.083 16.84 300.267 16.916 300.419 17.068C300.571 17.22 300.647 17.404 300.647 17.62C300.647 17.828 300.571 18.008 300.419 18.16C300.267 18.312 300.083 18.388 299.867 18.388C299.659 18.388 299.479 18.312 299.327 18.16C299.175 18.008 299.099 17.828 299.099 17.62C299.099 17.404 299.175 17.22 299.327 17.068C299.479 16.916 299.659 16.84 299.867 16.84ZM300.599 19.48V23.68C300.599 23.992 300.495 24.28 300.287 24.544C300.023 24.848 299.695 25 299.303 25H296.987V23.776H298.835C298.923 23.776 298.999 23.744 299.063 23.68C299.119 23.624 299.147 23.556 299.147 23.476V19.48H300.599ZM305.067 19.48V24.712C305.067 25.704 304.763 26.472 304.155 27.016C303.763 27.376 303.259 27.628 302.643 27.772C302.355 27.828 302.055 27.856 301.743 27.856C301.639 27.856 301.499 27.848 301.323 27.832L300.735 27.1V26.584C300.991 26.624 301.239 26.644 301.479 26.644C302.895 26.644 303.603 25.956 303.603 24.58V19.48H305.067ZM308.187 16.408V23.476C308.187 23.556 308.211 23.62 308.259 23.668C308.307 23.74 308.383 23.776 308.487 23.776H308.799V25H308.019C307.691 25 307.403 24.884 307.155 24.652C306.867 24.388 306.723 24.064 306.723 23.68V16.408H308.187ZM312.33 16.84C312.546 16.84 312.73 16.916 312.882 17.068C313.034 17.22 313.11 17.404 313.11 17.62C313.11 17.828 313.034 18.008 312.882 18.16C312.73 18.312 312.546 18.388 312.33 18.388C312.122 18.388 311.942 18.312 311.79 18.16C311.638 18.008 311.562 17.828 311.562 17.62C311.562 17.404 311.638 17.22 311.79 17.068C311.942 16.916 312.122 16.84 312.33 16.84ZM314.154 16.84C314.37 16.84 314.554 16.916 314.706 17.068C314.858 17.22 314.934 17.404 314.934 17.62C314.934 17.828 314.858 18.008 314.706 18.16C314.554 18.312 314.37 18.388 314.154 18.388C313.938 18.388 313.754 18.316 313.602 18.172C313.458 18.02 313.386 17.836 313.386 17.62C313.386 17.404 313.458 17.22 313.602 17.068C313.754 16.916 313.938 16.84 314.154 16.84ZM311.106 23.776C310.746 23.296 310.566 22.716 310.566 22.036C310.566 21.42 310.722 20.888 311.034 20.44C311.538 19.704 312.266 19.336 313.218 19.336C313.938 19.336 314.542 19.56 315.03 20.008C315.598 20.528 315.882 21.204 315.882 22.036C315.882 22.692 315.702 23.272 315.342 23.776H316.17V25H314.37C313.85 25 313.474 24.948 313.242 24.844H313.182C312.958 24.948 312.582 25 312.054 25H308.718V23.776H311.106ZM313.218 23.764C313.578 23.724 313.866 23.56 314.082 23.272C314.306 22.976 314.418 22.6 314.418 22.144C314.418 21.664 314.31 21.28 314.094 20.992C313.878 20.704 313.586 20.56 313.218 20.56C312.858 20.56 312.566 20.704 312.342 20.992C312.126 21.28 312.018 21.664 312.018 22.144C312.018 22.6 312.126 22.976 312.342 23.272C312.566 23.56 312.858 23.724 313.218 23.764ZM318.237 21.556C318.237 20.796 318.501 20.22 319.029 19.828C319.445 19.508 320.013 19.348 320.733 19.348C321.437 19.348 322.033 19.556 322.521 19.972C323.137 20.5 323.445 21.248 323.445 22.216C323.445 23.128 323.201 23.884 322.713 24.484C322.241 25.068 321.629 25.36 320.877 25.36C320.213 25.36 319.689 25.112 319.305 24.616C319.049 24.872 318.737 25 318.369 25H316.077V23.776H317.925C318.013 23.776 318.089 23.744 318.153 23.68C318.209 23.624 318.237 23.556 318.237 23.476V21.556ZM319.689 23.644C319.985 23.964 320.325 24.124 320.709 24.124C321.085 24.124 321.393 23.96 321.633 23.632C321.873 23.296 321.993 22.864 321.993 22.336C321.993 21.76 321.861 21.308 321.597 20.98C321.357 20.7 321.045 20.56 320.661 20.56C320.373 20.56 320.145 20.652 319.977 20.836C319.785 21.012 319.689 21.252 319.689 21.556V23.644Z" fill="black"/>
<path d="M339.067 23.0667L343.767 18.3667L342.833 17.4334L339.067 21.2L337.167 19.3L336.233 20.2334L339.067 23.0667ZM340 26.6667C339.078 26.6667 338.211 26.4916 337.4 26.1414C336.589 25.7912 335.883 25.3163 335.283 24.7167C334.683 24.1172 334.208 23.4116 333.859 22.6C333.509 21.7885 333.334 20.9218 333.333 20C333.333 19.0783 333.508 18.2116 333.859 17.4C334.209 16.5885 334.684 15.8829 335.283 15.2834C335.882 14.6838 336.588 14.2089 337.4 13.8587C338.212 13.5085 339.079 13.3334 340 13.3334C340.921 13.3334 341.788 13.5085 342.6 13.8587C343.412 14.2089 344.118 14.6838 344.717 15.2834C345.316 15.8829 345.791 16.5885 346.142 17.4C346.493 18.2116 346.668 19.0783 346.667 20C346.665 20.9218 346.49 21.7885 346.141 22.6C345.792 23.4116 345.318 24.1172 344.717 24.7167C344.116 25.3163 343.41 25.7914 342.6 26.142C341.79 26.4927 340.923 26.6676 340 26.6667Z" fill="#34C759"/>
</svg>
